<?xml version="1.0" encoding="us-ascii" standalone="no"?><svg xmlns="http://www.w3.org/2000/svg" xmlns:xlink="http://www.w3.org/1999/xlink" contentStyleType="text/css" height="1198.4px" preserveAspectRatio="none" style="width:3304px;height:1198px;background:#FFFFFF;" version="1.1" viewBox="0 0 3304 1198" width="3304.8px" zoomAndPan="magnify"><defs/><g><!--cluster Core--><g id="cluster_Core"><path d="M961.896,4.8109 L989.896,4.8109 A3,3 0 0 1 991.896,6.8109 L997.496,24.5078 L2977.896,24.5078 A2,2 0 0 1 2979.896,26.5078 L2979.896,964.4109 A2,2 0 0 1 2977.896,966.4109 L961.896,966.4109 A2,2 0 0 1 959.896,964.4109 L959.896,6.8109 A2,2 0 0 1 961.896,4.8109 " fill="none" style="stroke:#000000;stroke-width:1.2000000000000002;"/><line style="stroke:#000000;stroke-width:1.2000000000000002;" x1="959.896" x2="997.496" y1="24.5078" y2="24.5078"/><text fill="#000000" font-family="sans-serif" font-size="11.2" font-weight="bold" lengthAdjust="spacing" textLength="27.2" x="963.096" y="18.4969">Core</text></g><!--cluster Data--><g id="cluster_Data"><path d="M332.296,1008.0109 L357.896,1008.0109 A3,3 0 0 1 359.896,1010.0109 L365.496,1027.7078 L1066.696,1027.7078 A2,2 0 0 1 1068.696,1029.7078 L1068.696,1190.8109 A2,2 0 0 1 1066.696,1192.8109 L332.296,1192.8109 A2,2 0 0 1 330.296,1190.8109 L330.296,1010.0109 A2,2 0 0 1 332.296,1008.0109 " fill="none" style="stroke:#000000;stroke-width:1.2000000000000002;"/><line style="stroke:#000000;stroke-width:1.2000000000000002;" x1="330.296" x2="365.496" y1="1027.7078" y2="1027.7078"/><text fill="#000000" font-family="sans-serif" font-size="11.2" font-weight="bold" lengthAdjust="spacing" textLength="24.8" x="333.496" y="1021.6969">Data</text></g><!--cluster Components--><g id="cluster_Components"><path d="M169.096,4.8109 L241.096,4.8109 A3,3 0 0 1 243.096,6.8109 L248.696,24.5078 L841.896,24.5078 A2,2 0 0 1 843.896,26.5078 L843.896,632.0109 A2,2 0 0 1 841.896,634.0109 L169.096,634.0109 A2,2 0 0 1 167.096,632.0109 L167.096,6.8109 A2,2 0 0 1 169.096,4.8109 " fill="none" style="stroke:#000000;stroke-width:1.2000000000000002;"/><line style="stroke:#000000;stroke-width:1.2000000000000002;" x1="167.096" x2="248.696" y1="24.5078" y2="24.5078"/><text fill="#000000" font-family="sans-serif" font-size="11.2" font-weight="bold" lengthAdjust="spacing" textLength="71.2" x="170.296" y="18.4969">Components</text></g><!--cluster Settings--><g id="cluster_Settings"><path d="M230.696,773.6109 L277.896,773.6109 A3,3 0 0 1 279.896,775.6109 L285.496,793.3078 L895.496,793.3078 A2,2 0 0 1 897.496,795.3078 L897.496,986.8109 A2,2 0 0 1 895.496,988.8109 L230.696,988.8109 A2,2 0 0 1 228.696,986.8109 L228.696,775.6109 A2,2 0 0 1 230.696,773.6109 " fill="none" style="stroke:#000000;stroke-width:1.2000000000000002;"/><line style="stroke:#000000;stroke-width:1.2000000000000002;" x1="228.696" x2="285.496" y1="793.3078" y2="793.3078"/><text fill="#000000" font-family="sans-serif" font-size="11.2" font-weight="bold" lengthAdjust="spacing" textLength="46.4" x="231.896" y="787.2969">Settings</text></g><!--cluster FileIO--><g id="cluster_FileIO"><path d="M3001.096,826.0109 L3034.696,826.0109 A3,3 0 0 1 3036.696,828.0109 L3042.296,845.7078 L3297.896,845.7078 A2,2 0 0 1 3299.896,847.7078 L3299.896,1153.6109 A2,2 0 0 1 3297.896,1155.6109 L3001.096,1155.6109 A2,2 0 0 1 2999.096,1153.6109 L2999.096,828.0109 A2,2 0 0 1 3001.096,826.0109 " fill="none" style="stroke:#000000;stroke-width:1.2000000000000002;"/><line style="stroke:#000000;stroke-width:1.2000000000000002;" x1="2999.096" x2="3042.296" y1="845.7078" y2="845.7078"/><text fill="#000000" font-family="sans-serif" font-size="11.2" font-weight="bold" lengthAdjust="spacing" textLength="32.8" x="3002.296" y="839.6969">FileIO</text></g><!--class Engine--><g id="elem_Engine"><rect codeLine="3" fill="#F1F1F1" height="276.75" id="Engine" rx="2" ry="2" style="stroke:#181818;stroke-width:0.4000000000000001;" width="300" x="2132.296" y="34.4109"/><ellipse cx="2261.296" cy="47.2109" fill="#ADD1B2" rx="8.8" ry="8.8" style="stroke:#181818;stroke-width:0.8000000000000002;"/><path d="M2263.5085,43.9109 Q2263.6335,43.7359 2263.7835,43.6484 Q2263.9335,43.5609 2264.1085,43.5609 Q2264.4085,43.5609 2264.596,43.7734 Q2264.7835,43.9734 2264.7835,44.4609 L2264.7835,45.6234 Q2264.7835,46.1109 2264.596,46.3234 Q2264.4085,46.5359 2264.1085,46.5359 Q2263.8335,46.5359 2263.671,46.3734 Q2263.5085,46.2234 2263.421,45.8109 Q2263.3835,45.5234 2263.2335,45.3734 Q2262.971,45.0734 2262.4835,44.8984 Q2261.996,44.7234 2261.496,44.7234 Q2260.8835,44.7234 2260.371,44.9859 Q2259.871,45.2484 2259.471,45.8484 Q2259.0835,46.4484 2259.0835,47.2734 L2259.0835,48.1484 Q2259.0835,49.1359 2259.796,49.7984 Q2260.5085,50.4484 2261.7835,50.4484 Q2262.5335,50.4484 2263.0585,50.2484 Q2263.371,50.1234 2263.7085,49.7734 Q2263.921,49.5609 2264.0335,49.4984 Q2264.1585,49.4359 2264.321,49.4359 Q2264.5835,49.4359 2264.7835,49.6484 Q2264.996,49.8484 2264.996,50.1234 Q2264.996,50.3984 2264.721,50.7234 Q2264.321,51.1859 2263.6835,51.4484 Q2262.821,51.8109 2261.7835,51.8109 Q2260.571,51.8109 2259.6085,51.3109 Q2258.821,50.9109 2258.271,50.0609 Q2257.721,49.1984 2257.721,48.1734 L2257.721,47.2484 Q2257.721,46.1859 2258.2085,45.2734 Q2258.7085,44.3484 2259.5835,43.8609 Q2260.4585,43.3609 2261.446,43.3609 Q2262.0335,43.3609 2262.546,43.4984 Q2263.071,43.6234 2263.5085,43.9109 Z " fill="#000000"/><text fill="#000000" font-family="sans-serif" font-size="11.2" lengthAdjust="spacing" textLength="35.2" x="2277.696" y="51.8484">Engine</text><line style="stroke:#181818;stroke-width:0.4000000000000001;" x1="2133.096" x2="2431.496" y1="60.0109" y2="60.0109"/><line style="stroke:#181818;stroke-width:0.4000000000000001;" x1="2133.096" x2="2431.496" y1="66.4109" y2="66.4109"/><ellipse cx="2141.096" cy="78.2594" fill="#84BE84" rx="2.4" ry="2.4" style="stroke:#038048;stroke-width:0.8000000000000002;"/><text fill="#000000" font-family="sans-serif" font-size="11.2" lengthAdjust="spacing" text-decoration="underline" textLength="163.2" x="2148.296" y="81.6969">GetCurrentSettings() : Settings&amp;</text><ellipse cx="2141.096" cy="93.1563" fill="#84BE84" rx="2.4" ry="2.4" style="stroke:#038048;stroke-width:0.8000000000000002;"/><text fill="#000000" font-family="sans-serif" font-size="11.2" lengthAdjust="spacing" text-decoration="underline" textLength="134.4" x="2148.296" y="96.5938">GetWindowSize() : b2Vec2</text><ellipse cx="2141.096" cy="108.0531" fill="#84BE84" rx="2.4" ry="2.4" style="stroke:#038048;stroke-width:0.8000000000000002;"/><text fill="#000000" font-family="sans-serif" font-size="11.2" lengthAdjust="spacing" text-decoration="underline" textLength="132.8" x="2148.296" y="111.4906">GetWorldId() : b2WorldId&amp;</text><ellipse cx="2141.096" cy="122.95" fill="#84BE84" rx="2.4" ry="2.4" style="stroke:#038048;stroke-width:0.8000000000000002;"/><text fill="#000000" font-family="sans-serif" font-size="11.2" lengthAdjust="spacing" text-decoration="underline" textLength="77.6" x="2148.296" y="126.3875">Initialize() : void</text><ellipse cx="2141.096" cy="137.8469" fill="#84BE84" rx="2.4" ry="2.4" style="stroke:#038048;stroke-width:0.8000000000000002;"/><text fill="#000000" font-family="sans-serif" font-size="11.2" lengthAdjust="spacing" text-decoration="underline" textLength="232" x="2148.296" y="141.2844">Start(GameTemplate&amp; _gameTemplate) : void</text><ellipse cx="2141.096" cy="152.7438" fill="#84BE84" rx="2.4" ry="2.4" style="stroke:#038048;stroke-width:0.8000000000000002;"/><text fill="#000000" font-family="sans-serif" font-size="11.2" lengthAdjust="spacing" text-decoration="underline" textLength="61.6" x="2148.296" y="156.1813">Stop() : void</text><ellipse cx="2141.096" cy="167.6406" fill="#84BE84" rx="2.4" ry="2.4" style="stroke:#038048;stroke-width:0.8000000000000002;"/><text fill="#000000" font-family="sans-serif" font-size="11.2" lengthAdjust="spacing" text-decoration="underline" textLength="139.2" x="2148.296" y="171.0781">Instantiate(Args... args) : T*</text><ellipse cx="2141.096" cy="182.5375" fill="#84BE84" rx="2.4" ry="2.4" style="stroke:#038048;stroke-width:0.8000000000000002;"/><text fill="#000000" font-family="sans-serif" font-size="11.2" lengthAdjust="spacing" text-decoration="underline" textLength="184.8" x="2148.296" y="185.975">Destroy(GameObject* _object) : void</text><ellipse cx="2141.096" cy="197.4344" fill="#84BE84" rx="2.4" ry="2.4" style="stroke:#038048;stroke-width:0.8000000000000002;"/><text fill="#000000" font-family="sans-serif" font-size="11.2" lengthAdjust="spacing" text-decoration="underline" textLength="236.8" x="2148.296" y="200.8719">CreateBody(b2BodyDef* _bodyDef) : b2BodyId</text><ellipse cx="2141.096" cy="212.3313" fill="#84BE84" rx="2.4" ry="2.4" style="stroke:#038048;stroke-width:0.8000000000000002;"/><text fill="#000000" font-family="sans-serif" font-size="11.2" lengthAdjust="spacing" text-decoration="underline" textLength="160" x="2148.296" y="215.7688">SetFarPlane(float _value) : void</text><ellipse cx="2141.096" cy="227.2281" fill="#84BE84" rx="2.4" ry="2.4" style="stroke:#038048;stroke-width:0.8000000000000002;"/><text fill="#000000" font-family="sans-serif" font-size="11.2" lengthAdjust="spacing" text-decoration="underline" textLength="172.8" x="2148.296" y="230.6656">SetGravity(b2Vec2 _gravity) : void</text><ellipse cx="2141.096" cy="242.125" fill="#84BE84" rx="2.4" ry="2.4" style="stroke:#038048;stroke-width:0.8000000000000002;"/><text fill="#000000" font-family="sans-serif" font-size="11.2" lengthAdjust="spacing" text-decoration="underline" textLength="166.4" x="2148.296" y="245.5625">SetNearPlane(float _value) : void</text><ellipse cx="2141.096" cy="257.0219" fill="#84BE84" rx="2.4" ry="2.4" style="stroke:#038048;stroke-width:0.8000000000000002;"/><text fill="#000000" font-family="sans-serif" font-size="11.2" lengthAdjust="spacing" text-decoration="underline" textLength="279.2" x="2148.296" y="260.4594">SetWindowSize(uint16_t _width, uint16_t _height) : void</text><ellipse cx="2141.096" cy="271.9188" fill="#84BE84" rx="2.4" ry="2.4" style="stroke:#038048;stroke-width:0.8000000000000002;"/><text fill="#000000" font-family="sans-serif" font-size="11.2" lengthAdjust="spacing" text-decoration="underline" textLength="200" x="2148.296" y="275.3563">SetWindowTitle(const char* _title) : void</text><ellipse cx="2141.096" cy="286.8156" fill="#84BE84" rx="2.4" ry="2.4" style="stroke:#038048;stroke-width:0.8000000000000002;"/><text fill="#000000" font-family="sans-serif" font-size="11.2" lengthAdjust="spacing" text-decoration="underline" textLength="141.6" x="2148.296" y="290.2531">SetZoom(float _value) : void</text><ellipse cx="2141.096" cy="301.7125" fill="#84BE84" rx="2.4" ry="2.4" style="stroke:#038048;stroke-width:0.8000000000000002;"/><text fill="#000000" font-family="sans-serif" font-size="11.2" lengthAdjust="spacing" text-decoration="underline" textLength="169.6" x="2148.296" y="305.15">ToggleVsync(bool _enable) : void</text></g><!--class GameTemplate--><g id="elem_GameTemplate"><rect codeLine="22" fill="#F1F1F1" height="97.9875" id="GameTemplate" rx="2" ry="2" style="stroke:#181818;stroke-width:0.4000000000000001;" width="176" x="2791.096" y="508.4109"/><ellipse cx="2836.896" cy="521.2109" fill="#ADD1B2" rx="8.8" ry="8.8" style="stroke:#181818;stroke-width:0.8000000000000002;"/><path d="M2839.1085,517.9109 Q2839.2335,517.7359 2839.3835,517.6484 Q2839.5335,517.5609 2839.7085,517.5609 Q2840.0085,517.5609 2840.196,517.7734 Q2840.3835,517.9734 2840.3835,518.4609 L2840.3835,519.6234 Q2840.3835,520.1109 2840.196,520.3234 Q2840.0085,520.5359 2839.7085,520.5359 Q2839.4335,520.5359 2839.271,520.3734 Q2839.1085,520.2234 2839.021,519.8109 Q2838.9835,519.5234 2838.8335,519.3734 Q2838.571,519.0734 2838.0835,518.8984 Q2837.596,518.7234 2837.096,518.7234 Q2836.4835,518.7234 2835.971,518.9859 Q2835.471,519.2484 2835.071,519.8484 Q2834.6835,520.4484 2834.6835,521.2734 L2834.6835,522.1484 Q2834.6835,523.1359 2835.396,523.7984 Q2836.1085,524.4484 2837.3835,524.4484 Q2838.1335,524.4484 2838.6585,524.2484 Q2838.971,524.1234 2839.3085,523.7734 Q2839.521,523.5609 2839.6335,523.4984 Q2839.7585,523.4359 2839.921,523.4359 Q2840.1835,523.4359 2840.3835,523.6484 Q2840.596,523.8484 2840.596,524.1234 Q2840.596,524.3984 2840.321,524.7234 Q2839.921,525.1859 2839.2835,525.4484 Q2838.421,525.8109 2837.3835,525.8109 Q2836.171,525.8109 2835.2085,525.3109 Q2834.421,524.9109 2833.871,524.0609 Q2833.321,523.1984 2833.321,522.1734 L2833.321,521.2484 Q2833.321,520.1859 2833.8085,519.2734 Q2834.3085,518.3484 2835.1835,517.8609 Q2836.0585,517.3609 2837.046,517.3609 Q2837.6335,517.3609 2838.146,517.4984 Q2838.671,517.6234 2839.1085,517.9109 Z " fill="#000000"/><text fill="#000000" font-family="sans-serif" font-size="11.2" lengthAdjust="spacing" textLength="77.6" x="2853.296" y="525.8484">GameTemplate</text><line style="stroke:#181818;stroke-width:0.4000000000000001;" x1="2791.896" x2="2966.296" y1="534.0109" y2="534.0109"/><line style="stroke:#181818;stroke-width:0.4000000000000001;" x1="2791.896" x2="2966.296" y1="540.4109" y2="540.4109"/><polygon fill="#FFFF44" points="2799.896,548.2594,2803.096,551.4594,2799.896,554.6594,2796.696,551.4594" style="stroke:#B38D22;stroke-width:0.8000000000000002;"/><text fill="#000000" font-family="sans-serif" font-size="11.2" lengthAdjust="spacing" textLength="142.4" x="2807.096" y="555.6969">Instantiate(Args ... args) : T*</text><polygon fill="#FFFF44" points="2799.896,563.1563,2803.096,566.3563,2799.896,569.5563,2796.696,566.3563" style="stroke:#B38D22;stroke-width:0.8000000000000002;"/><text fill="#000000" font-family="sans-serif" font-size="11.2" lengthAdjust="spacing" textLength="62.4" x="2807.096" y="570.5938">Start() : void</text><polygon fill="#FFFF44" points="2799.896,578.0531,2803.096,581.2531,2799.896,584.4531,2796.696,581.2531" style="stroke:#B38D22;stroke-width:0.8000000000000002;"/><text fill="#000000" font-family="sans-serif" font-size="11.2" lengthAdjust="spacing" textLength="61.6" x="2807.096" y="585.4906">Stop() : void</text><polygon fill="#FFFF44" points="2799.896,592.95,2803.096,596.15,2799.896,599.35,2796.696,596.15" style="stroke:#B38D22;stroke-width:0.8000000000000002;"/><text fill="#000000" font-family="sans-serif" font-size="11.2" lengthAdjust="spacing" textLength="155.2" x="2807.096" y="600.3875">Update(float _deltaTime) : void</text></g><!--class GameObject--><g id="elem_GameObject"><rect codeLine="29" fill="#F1F1F1" height="395.925" id="GameObject" rx="2" ry="2" style="stroke:#181818;stroke-width:0.4000000000000001;" width="452" x="973.096" y="359.2109"/><ellipse cx="1164.096" cy="372.0109" fill="#ADD1B2" rx="8.8" ry="8.8" style="stroke:#181818;stroke-width:0.8000000000000002;"/><path d="M1166.3085,368.7109 Q1166.4335,368.5359 1166.5835,368.4484 Q1166.7335,368.3609 1166.9085,368.3609 Q1167.2085,368.3609 1167.396,368.5734 Q1167.5835,368.7734 1167.5835,369.2609 L1167.5835,370.4234 Q1167.5835,370.9109 1167.396,371.1234 Q1167.2085,371.3359 1166.9085,371.3359 Q1166.6335,371.3359 1166.471,371.1734 Q1166.3085,371.0234 1166.221,370.6109 Q1166.1835,370.3234 1166.0335,370.1734 Q1165.771,369.8734 1165.2835,369.6984 Q1164.796,369.5234 1164.296,369.5234 Q1163.6835,369.5234 1163.171,369.7859 Q1162.671,370.0484 1162.271,370.6484 Q1161.8835,371.2484 1161.8835,372.0734 L1161.8835,372.9484 Q1161.8835,373.9359 1162.596,374.5984 Q1163.3085,375.2484 1164.5835,375.2484 Q1165.3335,375.2484 1165.8585,375.0484 Q1166.171,374.9234 1166.5085,374.5734 Q1166.721,374.3609 1166.8335,374.2984 Q1166.9585,374.2359 1167.121,374.2359 Q1167.3835,374.2359 1167.5835,374.4484 Q1167.796,374.6484 1167.796,374.9234 Q1167.796,375.1984 1167.521,375.5234 Q1167.121,375.9859 1166.4835,376.2484 Q1165.621,376.6109 1164.5835,376.6109 Q1163.371,376.6109 1162.4085,376.1109 Q1161.621,375.7109 1161.071,374.8609 Q1160.521,373.9984 1160.521,372.9734 L1160.521,372.0484 Q1160.521,370.9859 1161.0085,370.0734 Q1161.5085,369.1484 1162.3835,368.6609 Q1163.2585,368.1609 1164.246,368.1609 Q1164.8335,368.1609 1165.346,368.2984 Q1165.871,368.4234 1166.3085,368.7109 Z " fill="#000000"/><text fill="#000000" font-family="sans-serif" font-size="11.2" lengthAdjust="spacing" textLength="63.2" x="1180.496" y="376.6484">GameObject</text><line style="stroke:#181818;stroke-width:0.4000000000000001;" x1="973.896" x2="1424.296" y1="384.8109" y2="384.8109"/><polygon fill="none" points="981.896,392.6594,985.096,395.8594,981.896,399.0594,978.696,395.8594" style="stroke:#B38D22;stroke-width:0.8000000000000002;"/><text fill="#000000" font-family="sans-serif" font-size="11.2" lengthAdjust="spacing" textLength="81.6" x="989.096" y="400.0969">body : b2BodyId</text><polygon fill="none" points="981.896,407.5563,985.096,410.7563,981.896,413.9563,978.696,410.7563" style="stroke:#B38D22;stroke-width:0.8000000000000002;"/><text fill="#000000" font-family="sans-serif" font-size="11.2" lengthAdjust="spacing" textLength="121.6" x="989.096" y="414.9938">shapeDef : b2ShapeDef</text><line style="stroke:#181818;stroke-width:0.4000000000000001;" x1="973.896" x2="1424.296" y1="421.0047" y2="421.0047"/><ellipse cx="981.896" cy="432.8531" fill="#84BE84" rx="2.4" ry="2.4" style="stroke:#038048;stroke-width:0.8000000000000002;"/><text fill="#000000" font-family="sans-serif" font-size="11.2" lengthAdjust="spacing" textLength="340" x="989.096" y="436.2906">GameObject(b2BodyType _b2BodyType, const b2Vec2&amp; _position)</text><ellipse cx="981.896" cy="447.75" fill="#84BE84" rx="2.4" ry="2.4" style="stroke:#038048;stroke-width:0.8000000000000002;"/><text fill="#000000" font-family="sans-serif" font-size="11.2" lengthAdjust="spacing" textLength="77.6" x="989.096" y="451.1875">~GameObject()</text><ellipse cx="981.896" cy="462.6469" fill="#84BE84" rx="2.4" ry="2.4" style="stroke:#038048;stroke-width:0.8000000000000002;"/><text fill="#000000" font-family="sans-serif" font-size="11.2" lengthAdjust="spacing" textLength="168.8" x="989.096" y="466.0844">AddComponent(Args ... args) : T*</text><ellipse cx="981.896" cy="477.5438" fill="#84BE84" rx="2.4" ry="2.4" style="stroke:#038048;stroke-width:0.8000000000000002;"/><text fill="#000000" font-family="sans-serif" font-size="11.2" lengthAdjust="spacing" textLength="105.6" x="989.096" y="480.9813">GetComponent() : T*</text><ellipse cx="981.896" cy="492.4406" fill="#84BE84" rx="2.4" ry="2.4" style="stroke:#038048;stroke-width:0.8000000000000002;"/><text fill="#000000" font-family="sans-serif" font-size="11.2" lengthAdjust="spacing" textLength="267.2" x="989.096" y="495.8781">RemoveComponent(Component* _component) : bool</text><ellipse cx="981.896" cy="507.3375" fill="#84BE84" rx="2.4" ry="2.4" style="stroke:#038048;stroke-width:0.8000000000000002;"/><text fill="#000000" font-family="sans-serif" font-size="11.2" lengthAdjust="spacing" textLength="181.6" x="989.096" y="510.775">RemoveComponentsOfType() : void</text><ellipse cx="981.896" cy="522.2344" fill="#84BE84" rx="2.4" ry="2.4" style="stroke:#038048;stroke-width:0.8000000000000002;"/><text fill="#000000" font-family="sans-serif" font-size="11.2" lengthAdjust="spacing" textLength="265.6" x="989.096" y="525.6719">AddShape(const b2Polygon&amp; _polygon) : b2ShapeId</text><ellipse cx="981.896" cy="537.1313" fill="#84BE84" rx="2.4" ry="2.4" style="stroke:#038048;stroke-width:0.8000000000000002;"/><text fill="#000000" font-family="sans-serif" font-size="11.2" lengthAdjust="spacing" textLength="431.2" x="989.096" y="540.5688">AddShape(const b2ShapeDef&amp; _shapeDef, const b2Polygon&amp; _polygon) : b2ShapeId</text><ellipse cx="981.896" cy="552.0281" fill="#84BE84" rx="2.4" ry="2.4" style="stroke:#038048;stroke-width:0.8000000000000002;"/><text fill="#000000" font-family="sans-serif" font-size="11.2" lengthAdjust="spacing" textLength="156" x="989.096" y="555.4656">GetBody() : b2BodyId&amp; {query}</text><ellipse cx="981.896" cy="566.925" fill="#84BE84" rx="2.4" ry="2.4" style="stroke:#038048;stroke-width:0.8000000000000002;"/><text fill="#000000" font-family="sans-serif" font-size="11.2" lengthAdjust="spacing" textLength="156.8" x="989.096" y="570.3625">GetShapeDef() : b2ShapeDef&amp;</text><ellipse cx="981.896" cy="581.8219" fill="#84BE84" rx="2.4" ry="2.4" style="stroke:#038048;stroke-width:0.8000000000000002;"/><text fill="#000000" font-family="sans-serif" font-size="11.2" lengthAdjust="spacing" textLength="154.4" x="989.096" y="585.2594">GetPosition() : b2Vec2 {query}</text><ellipse cx="981.896" cy="596.7188" fill="#84BE84" rx="2.4" ry="2.4" style="stroke:#038048;stroke-width:0.8000000000000002;"/><text fill="#000000" font-family="sans-serif" font-size="11.2" lengthAdjust="spacing" textLength="148.8" x="989.096" y="600.1563">GetRotation() : b2Rot {query}</text><ellipse cx="981.896" cy="611.6156" fill="#84BE84" rx="2.4" ry="2.4" style="stroke:#038048;stroke-width:0.8000000000000002;"/><text fill="#000000" font-family="sans-serif" font-size="11.2" lengthAdjust="spacing" textLength="126.4" x="989.096" y="615.0531">GetAngle() : float {query}</text><ellipse cx="981.896" cy="626.5125" fill="#84BE84" rx="2.4" ry="2.4" style="stroke:#038048;stroke-width:0.8000000000000002;"/><text fill="#000000" font-family="sans-serif" font-size="11.2" lengthAdjust="spacing" textLength="127.2" x="989.096" y="629.95">GetID() : uint32_t {query}</text><ellipse cx="981.896" cy="641.4094" fill="#84BE84" rx="2.4" ry="2.4" style="stroke:#038048;stroke-width:0.8000000000000002;"/><text fill="#000000" font-family="sans-serif" font-size="11.2" lengthAdjust="spacing" textLength="220" x="989.096" y="644.8469">SetPosition(const b2Vec2&amp; _position) : void</text><ellipse cx="981.896" cy="656.3063" fill="#84BE84" rx="2.4" ry="2.4" style="stroke:#038048;stroke-width:0.8000000000000002;"/><text fill="#000000" font-family="sans-serif" font-size="11.2" lengthAdjust="spacing" textLength="213.6" x="989.096" y="659.7438">SetRotation(const b2Rot&amp; _rotation) : void</text><ellipse cx="981.896" cy="671.2031" fill="#84BE84" rx="2.4" ry="2.4" style="stroke:#038048;stroke-width:0.8000000000000002;"/><text fill="#000000" font-family="sans-serif" font-size="11.2" lengthAdjust="spacing" textLength="143.2" x="989.096" y="674.6406">SetAngle(float _angle) : void</text><ellipse cx="981.896" cy="686.1" fill="#84BE84" rx="2.4" ry="2.4" style="stroke:#038048;stroke-width:0.8000000000000002;"/><text fill="#000000" font-family="sans-serif" font-size="11.2" lengthAdjust="spacing" textLength="297.6" x="989.096" y="689.5375">SetTransform(const b2Vec2&amp; _position, float _angle) : void</text><ellipse cx="981.896" cy="700.9969" fill="#84BE84" rx="2.4" ry="2.4" style="stroke:#038048;stroke-width:0.8000000000000002;"/><text fill="#000000" font-family="sans-serif" font-size="11.2" lengthAdjust="spacing" textLength="354.4" x="989.096" y="704.4344">SetTransform(const b2Vec2&amp; _position, const b2Rot&amp; _rotation) : void</text><polygon fill="#FFFF44" points="981.896,711.8938,985.096,715.0938,981.896,718.2938,978.696,715.0938" style="stroke:#B38D22;stroke-width:0.8000000000000002;"/><text fill="#000000" font-family="sans-serif" font-size="11.2" lengthAdjust="spacing" textLength="62.4" x="989.096" y="719.3313">Start() : void</text><polygon fill="#FFFF44" points="981.896,726.7906,985.096,729.9906,981.896,733.1906,978.696,729.9906" style="stroke:#B38D22;stroke-width:0.8000000000000002;"/><text fill="#000000" font-family="sans-serif" font-size="11.2" lengthAdjust="spacing" textLength="155.2" x="989.096" y="734.2281">Update(float _deltaTime) : void</text><polygon fill="#FFFF44" points="981.896,741.6875,985.096,744.8875,981.896,748.0875,978.696,744.8875" style="stroke:#B38D22;stroke-width:0.8000000000000002;"/><text fill="#000000" font-family="sans-serif" font-size="11.2" lengthAdjust="spacing" textLength="76" x="989.096" y="749.125">Render() : void</text></g><!--class Component--><g id="elem_Component"><rect codeLine="56" fill="#F1F1F1" height="127.7813" id="Component" rx="2" ry="2" style="stroke:#181818;stroke-width:0.4000000000000001;" width="176" x="1111.096" y="825.6109"/><ellipse cx="1166.496" cy="838.4109" fill="#ADD1B2" rx="8.8" ry="8.8" style="stroke:#181818;stroke-width:0.8000000000000002;"/><path d="M1168.7085,835.1109 Q1168.8335,834.9359 1168.9835,834.8484 Q1169.1335,834.7609 1169.3085,834.7609 Q1169.6085,834.7609 1169.796,834.9734 Q1169.9835,835.1734 1169.9835,835.6609 L1169.9835,836.8234 Q1169.9835,837.3109 1169.796,837.5234 Q1169.6085,837.7359 1169.3085,837.7359 Q1169.0335,837.7359 1168.871,837.5734 Q1168.7085,837.4234 1168.621,837.0109 Q1168.5835,836.7234 1168.4335,836.5734 Q1168.171,836.2734 1167.6835,836.0984 Q1167.196,835.9234 1166.696,835.9234 Q1166.0835,835.9234 1165.571,836.1859 Q1165.071,836.4484 1164.671,837.0484 Q1164.2835,837.6484 1164.2835,838.4734 L1164.2835,839.3484 Q1164.2835,840.3359 1164.996,840.9984 Q1165.7085,841.6484 1166.9835,841.6484 Q1167.7335,841.6484 1168.2585,841.4484 Q1168.571,841.3234 1168.9085,840.9734 Q1169.121,840.7609 1169.2335,840.6984 Q1169.3585,840.6359 1169.521,840.6359 Q1169.7835,840.6359 1169.9835,840.8484 Q1170.196,841.0484 1170.196,841.3234 Q1170.196,841.5984 1169.921,841.9234 Q1169.521,842.3859 1168.8835,842.6484 Q1168.021,843.0109 1166.9835,843.0109 Q1165.771,843.0109 1164.8085,842.5109 Q1164.021,842.1109 1163.471,841.2609 Q1162.921,840.3984 1162.921,839.3734 L1162.921,838.4484 Q1162.921,837.3859 1163.4085,836.4734 Q1163.9085,835.5484 1164.7835,835.0609 Q1165.6585,834.5609 1166.646,834.5609 Q1167.2335,834.5609 1167.746,834.6984 Q1168.271,834.8234 1168.7085,835.1109 Z " fill="#000000"/><text fill="#000000" font-family="sans-serif" font-size="11.2" lengthAdjust="spacing" textLength="58.4" x="1182.896" y="843.0484">Component</text><line style="stroke:#181818;stroke-width:0.4000000000000001;" x1="1111.896" x2="1286.296" y1="851.2109" y2="851.2109"/><polygon fill="none" points="1119.896,859.0594,1123.096,862.2594,1119.896,865.4594,1116.696,862.2594" style="stroke:#B38D22;stroke-width:0.8000000000000002;"/><text fill="#000000" font-family="sans-serif" font-size="11.2" lengthAdjust="spacing" textLength="140" x="1127.096" y="866.4969">GameObject : GameObject*</text><line style="stroke:#181818;stroke-width:0.4000000000000001;" x1="1111.896" x2="1286.296" y1="872.5078" y2="872.5078"/><ellipse cx="1119.896" cy="884.3563" fill="#84BE84" rx="2.4" ry="2.4" style="stroke:#038048;stroke-width:0.8000000000000002;"/><text fill="#000000" font-family="sans-serif" font-size="11.2" lengthAdjust="spacing" textLength="66.4" x="1127.096" y="887.7938">Component()</text><ellipse cx="1119.896" cy="899.2531" fill="#84BE84" rx="2.4" ry="2.4" style="stroke:#038048;stroke-width:0.8000000000000002;"/><text fill="#000000" font-family="sans-serif" font-size="11.2" lengthAdjust="spacing" textLength="72.8" x="1127.096" y="902.6906">~Component()</text><polygon fill="#FFFF44" points="1119.896,910.15,1123.096,913.35,1119.896,916.55,1116.696,913.35" style="stroke:#B38D22;stroke-width:0.8000000000000002;"/><text fill="#000000" font-family="sans-serif" font-size="11.2" lengthAdjust="spacing" textLength="62.4" x="1127.096" y="917.5875">Start() : void</text><polygon fill="#FFFF44" points="1119.896,925.0469,1123.096,928.2469,1119.896,931.4469,1116.696,928.2469" style="stroke:#B38D22;stroke-width:0.8000000000000002;"/><text fill="#000000" font-family="sans-serif" font-size="11.2" lengthAdjust="spacing" textLength="155.2" x="1127.096" y="932.4844">Update(float _deltaTime) : void</text><polygon fill="#FFFF44" points="1119.896,939.9438,1123.096,943.1438,1119.896,946.3438,1116.696,943.1438" style="stroke:#B38D22;stroke-width:0.8000000000000002;"/><text fill="#000000" font-family="sans-serif" font-size="11.2" lengthAdjust="spacing" textLength="76" x="1127.096" y="947.3813">Render() : void</text></g><!--class Renderer--><g id="elem_Renderer"><rect codeLine="65" fill="#F1F1F1" height="83.0906" id="Renderer" rx="2" ry="2" style="stroke:#181818;stroke-width:0.4000000000000001;" width="676.8" x="1453.496" y="515.6109"/><ellipse cx="1764.496" cy="528.4109" fill="#ADD1B2" rx="8.8" ry="8.8" style="stroke:#181818;stroke-width:0.8000000000000002;"/><path d="M1766.7085,525.1109 Q1766.8335,524.9359 1766.9835,524.8484 Q1767.1335,524.7609 1767.3085,524.7609 Q1767.6085,524.7609 1767.796,524.9734 Q1767.9835,525.1734 1767.9835,525.6609 L1767.9835,526.8234 Q1767.9835,527.3109 1767.796,527.5234 Q1767.6085,527.7359 1767.3085,527.7359 Q1767.0335,527.7359 1766.871,527.5734 Q1766.7085,527.4234 1766.621,527.0109 Q1766.5835,526.7234 1766.4335,526.5734 Q1766.171,526.2734 1765.6835,526.0984 Q1765.196,525.9234 1764.696,525.9234 Q1764.0835,525.9234 1763.571,526.1859 Q1763.071,526.4484 1762.671,527.0484 Q1762.2835,527.6484 1762.2835,528.4734 L1762.2835,529.3484 Q1762.2835,530.3359 1762.996,530.9984 Q1763.7085,531.6484 1764.9835,531.6484 Q1765.7335,531.6484 1766.2585,531.4484 Q1766.571,531.3234 1766.9085,530.9734 Q1767.121,530.7609 1767.2335,530.6984 Q1767.3585,530.6359 1767.521,530.6359 Q1767.7835,530.6359 1767.9835,530.8484 Q1768.196,531.0484 1768.196,531.3234 Q1768.196,531.5984 1767.921,531.9234 Q1767.521,532.3859 1766.8835,532.6484 Q1766.021,533.0109 1764.9835,533.0109 Q1763.771,533.0109 1762.8085,532.5109 Q1762.021,532.1109 1761.471,531.2609 Q1760.921,530.3984 1760.921,529.3734 L1760.921,528.4484 Q1760.921,527.3859 1761.4085,526.4734 Q1761.9085,525.5484 1762.7835,525.0609 Q1763.6585,524.5609 1764.646,524.5609 Q1765.2335,524.5609 1765.746,524.6984 Q1766.271,524.8234 1766.7085,525.1109 Z " fill="#000000"/><text fill="#000000" font-family="sans-serif" font-size="11.2" lengthAdjust="spacing" textLength="48" x="1780.896" y="533.0484">Renderer</text><line style="stroke:#181818;stroke-width:0.4000000000000001;" x1="1454.296" x2="2129.496" y1="541.2109" y2="541.2109"/><line style="stroke:#181818;stroke-width:0.4000000000000001;" x1="1454.296" x2="2129.496" y1="547.6109" y2="547.6109"/><ellipse cx="1462.296" cy="559.4594" fill="#84BE84" rx="2.4" ry="2.4" style="stroke:#038048;stroke-width:0.8000000000000002;"/><text fill="#000000" font-family="sans-serif" font-size="11.2" lengthAdjust="spacing" text-decoration="underline" textLength="656" x="1469.496" y="562.8969">DrawAnimationSprite(Texture* _texture, const AnimationSettings&amp; _animationSettings, const SpriteSettings&amp; _spriteSettings) : void</text><ellipse cx="1462.296" cy="574.3563" fill="#84BE84" rx="2.4" ry="2.4" style="stroke:#038048;stroke-width:0.8000000000000002;"/><text fill="#000000" font-family="sans-serif" font-size="11.2" lengthAdjust="spacing" text-decoration="underline" textLength="365.6" x="1469.496" y="577.7938">DrawPolygon(b2Vec2* _vertices, int _vertexCount, Colour _colour) : void</text><ellipse cx="1462.296" cy="589.2531" fill="#84BE84" rx="2.4" ry="2.4" style="stroke:#038048;stroke-width:0.8000000000000002;"/><text fill="#000000" font-family="sans-serif" font-size="11.2" lengthAdjust="spacing" text-decoration="underline" textLength="372.8" x="1469.496" y="592.6906">DrawSprite(Texture* _texture, const SpriteSettings&amp; _spriteSettings) : void</text></g><!--class Input--><g id="elem_Input"><rect codeLine="71" fill="#F1F1F1" height="157.575" id="Input" rx="2" ry="2" style="stroke:#181818;stroke-width:0.4000000000000001;" width="248" x="2158.296" y="478.4109"/><ellipse cx="2266.496" cy="491.2109" fill="#ADD1B2" rx="8.8" ry="8.8" style="stroke:#181818;stroke-width:0.8000000000000002;"/><path d="M2268.7085,487.9109 Q2268.8335,487.7359 2268.9835,487.6484 Q2269.1335,487.5609 2269.3085,487.5609 Q2269.6085,487.5609 2269.796,487.7734 Q2269.9835,487.9734 2269.9835,488.4609 L2269.9835,489.6234 Q2269.9835,490.1109 2269.796,490.3234 Q2269.6085,490.5359 2269.3085,490.5359 Q2269.0335,490.5359 2268.871,490.3734 Q2268.7085,490.2234 2268.621,489.8109 Q2268.5835,489.5234 2268.4335,489.3734 Q2268.171,489.0734 2267.6835,488.8984 Q2267.196,488.7234 2266.696,488.7234 Q2266.0835,488.7234 2265.571,488.9859 Q2265.071,489.2484 2264.671,489.8484 Q2264.2835,490.4484 2264.2835,491.2734 L2264.2835,492.1484 Q2264.2835,493.1359 2264.996,493.7984 Q2265.7085,494.4484 2266.9835,494.4484 Q2267.7335,494.4484 2268.2585,494.2484 Q2268.571,494.1234 2268.9085,493.7734 Q2269.121,493.5609 2269.2335,493.4984 Q2269.3585,493.4359 2269.521,493.4359 Q2269.7835,493.4359 2269.9835,493.6484 Q2270.196,493.8484 2270.196,494.1234 Q2270.196,494.3984 2269.921,494.7234 Q2269.521,495.1859 2268.8835,495.4484 Q2268.021,495.8109 2266.9835,495.8109 Q2265.771,495.8109 2264.8085,495.3109 Q2264.021,494.9109 2263.471,494.0609 Q2262.921,493.1984 2262.921,492.1734 L2262.921,491.2484 Q2262.921,490.1859 2263.4085,489.2734 Q2263.9085,488.3484 2264.7835,487.8609 Q2265.6585,487.3609 2266.646,487.3609 Q2267.2335,487.3609 2267.746,487.4984 Q2268.271,487.6234 2268.7085,487.9109 Z " fill="#000000"/><text fill="#000000" font-family="sans-serif" font-size="11.2" lengthAdjust="spacing" textLength="24.8" x="2282.896" y="495.8484">Input</text><line style="stroke:#181818;stroke-width:0.4000000000000001;" x1="2159.096" x2="2405.496" y1="504.0109" y2="504.0109"/><line style="stroke:#181818;stroke-width:0.4000000000000001;" x1="2159.096" x2="2405.496" y1="510.4109" y2="510.4109"/><ellipse cx="2167.096" cy="522.2594" fill="#84BE84" rx="2.4" ry="2.4" style="stroke:#038048;stroke-width:0.8000000000000002;"/><text fill="#000000" font-family="sans-serif" font-size="11.2" lengthAdjust="spacing" text-decoration="underline" textLength="123.2" x="2174.296" y="525.6969">GetKey(Key _key) : bool</text><ellipse cx="2167.096" cy="537.1563" fill="#84BE84" rx="2.4" ry="2.4" style="stroke:#038048;stroke-width:0.8000000000000002;"/><text fill="#000000" font-family="sans-serif" font-size="11.2" lengthAdjust="spacing" text-decoration="underline" textLength="151.2" x="2174.296" y="540.5938">GetKeyDown(Key _key) : bool</text><ellipse cx="2167.096" cy="552.0531" fill="#84BE84" rx="2.4" ry="2.4" style="stroke:#038048;stroke-width:0.8000000000000002;"/><text fill="#000000" font-family="sans-serif" font-size="11.2" lengthAdjust="spacing" text-decoration="underline" textLength="136.8" x="2174.296" y="555.4906">GetKeyUp(Key _key) : bool</text><ellipse cx="2167.096" cy="566.95" fill="#84BE84" rx="2.4" ry="2.4" style="stroke:#038048;stroke-width:0.8000000000000002;"/><text fill="#000000" font-family="sans-serif" font-size="11.2" lengthAdjust="spacing" text-decoration="underline" textLength="124" x="2174.296" y="570.3875">GetAnyKeyDown() : bool</text><ellipse cx="2167.096" cy="581.8469" fill="#84BE84" rx="2.4" ry="2.4" style="stroke:#038048;stroke-width:0.8000000000000002;"/><text fill="#000000" font-family="sans-serif" font-size="11.2" lengthAdjust="spacing" text-decoration="underline" textLength="199.2" x="2174.296" y="585.2844">GetMouse(MouseButton _button) : bool</text><ellipse cx="2167.096" cy="596.7438" fill="#84BE84" rx="2.4" ry="2.4" style="stroke:#038048;stroke-width:0.8000000000000002;"/><text fill="#000000" font-family="sans-serif" font-size="11.2" lengthAdjust="spacing" text-decoration="underline" textLength="227.2" x="2174.296" y="600.1813">GetMouseDown(MouseButton _button) : bool</text><ellipse cx="2167.096" cy="611.6406" fill="#84BE84" rx="2.4" ry="2.4" style="stroke:#038048;stroke-width:0.8000000000000002;"/><text fill="#000000" font-family="sans-serif" font-size="11.2" lengthAdjust="spacing" text-decoration="underline" textLength="212.8" x="2174.296" y="615.0781">GetMouseUp(MouseButton _button) : bool</text><ellipse cx="2167.096" cy="626.5375" fill="#84BE84" rx="2.4" ry="2.4" style="stroke:#038048;stroke-width:0.8000000000000002;"/><text fill="#000000" font-family="sans-serif" font-size="11.2" lengthAdjust="spacing" text-decoration="underline" textLength="127.2" x="2174.296" y="629.975">GetMousePos() : b2Vec2</text></g><!--class Box2DDebug--><g id="elem_Box2DDebug"><rect codeLine="84" fill="#F1F1F1" height="68.1938" id="Box2DDebug" rx="2" ry="2" style="stroke:#181818;stroke-width:0.4000000000000001;" width="152.8" x="2434.696" y="523.2109"/><ellipse cx="2474.496" cy="536.0109" fill="#ADD1B2" rx="8.8" ry="8.8" style="stroke:#181818;stroke-width:0.8000000000000002;"/><path d="M2476.7085,532.7109 Q2476.8335,532.5359 2476.9835,532.4484 Q2477.1335,532.3609 2477.3085,532.3609 Q2477.6085,532.3609 2477.796,532.5734 Q2477.9835,532.7734 2477.9835,533.2609 L2477.9835,534.4234 Q2477.9835,534.9109 2477.796,535.1234 Q2477.6085,535.3359 2477.3085,535.3359 Q2477.0335,535.3359 2476.871,535.1734 Q2476.7085,535.0234 2476.621,534.6109 Q2476.5835,534.3234 2476.4335,534.1734 Q2476.171,533.8734 2475.6835,533.6984 Q2475.196,533.5234 2474.696,533.5234 Q2474.0835,533.5234 2473.571,533.7859 Q2473.071,534.0484 2472.671,534.6484 Q2472.2835,535.2484 2472.2835,536.0734 L2472.2835,536.9484 Q2472.2835,537.9359 2472.996,538.5984 Q2473.7085,539.2484 2474.9835,539.2484 Q2475.7335,539.2484 2476.2585,539.0484 Q2476.571,538.9234 2476.9085,538.5734 Q2477.121,538.3609 2477.2335,538.2984 Q2477.3585,538.2359 2477.521,538.2359 Q2477.7835,538.2359 2477.9835,538.4484 Q2478.196,538.6484 2478.196,538.9234 Q2478.196,539.1984 2477.921,539.5234 Q2477.521,539.9859 2476.8835,540.2484 Q2476.021,540.6109 2474.9835,540.6109 Q2473.771,540.6109 2472.8085,540.1109 Q2472.021,539.7109 2471.471,538.8609 Q2470.921,537.9984 2470.921,536.9734 L2470.921,536.0484 Q2470.921,534.9859 2471.4085,534.0734 Q2471.9085,533.1484 2472.7835,532.6609 Q2473.6585,532.1609 2474.646,532.1609 Q2475.2335,532.1609 2475.746,532.2984 Q2476.271,532.4234 2476.7085,532.7109 Z " fill="#000000"/><text fill="#000000" font-family="sans-serif" font-size="11.2" lengthAdjust="spacing" textLength="66.4" x="2490.896" y="540.6484">Box2DDebug</text><line style="stroke:#181818;stroke-width:0.4000000000000001;" x1="2435.496" x2="2586.696" y1="548.8109" y2="548.8109"/><line style="stroke:#181818;stroke-width:0.4000000000000001;" x1="2435.496" x2="2586.696" y1="555.2109" y2="555.2109"/><ellipse cx="2443.496" cy="567.0594" fill="#84BE84" rx="2.4" ry="2.4" style="stroke:#038048;stroke-width:0.8000000000000002;"/><text fill="#000000" font-family="sans-serif" font-size="11.2" lengthAdjust="spacing" text-decoration="underline" textLength="88.8" x="2450.696" y="570.4969">IsEnabled() : bool</text><ellipse cx="2443.496" cy="581.9563" fill="#84BE84" rx="2.4" ry="2.4" style="stroke:#038048;stroke-width:0.8000000000000002;"/><text fill="#000000" font-family="sans-serif" font-size="11.2" lengthAdjust="spacing" text-decoration="underline" textLength="132" x="2450.696" y="585.3938">Enable(bool _value) : void</text></g><!--class Time--><g id="elem_Time"><rect codeLine="89" fill="#F1F1F1" height="53.2969" id="Time" rx="2" ry="2" style="stroke:#181818;stroke-width:0.4000000000000001;" width="147.2" x="2615.896" y="530.4109"/><ellipse cx="2673.696" cy="543.2109" fill="#ADD1B2" rx="8.8" ry="8.8" style="stroke:#181818;stroke-width:0.8000000000000002;"/><path d="M2675.9085,539.9109 Q2676.0335,539.7359 2676.1835,539.6484 Q2676.3335,539.5609 2676.5085,539.5609 Q2676.8085,539.5609 2676.996,539.7734 Q2677.1835,539.9734 2677.1835,540.4609 L2677.1835,541.6234 Q2677.1835,542.1109 2676.996,542.3234 Q2676.8085,542.5359 2676.5085,542.5359 Q2676.2335,542.5359 2676.071,542.3734 Q2675.9085,542.2234 2675.821,541.8109 Q2675.7835,541.5234 2675.6335,541.3734 Q2675.371,541.0734 2674.8835,540.8984 Q2674.396,540.7234 2673.896,540.7234 Q2673.2835,540.7234 2672.771,540.9859 Q2672.271,541.2484 2671.871,541.8484 Q2671.4835,542.4484 2671.4835,543.2734 L2671.4835,544.1484 Q2671.4835,545.1359 2672.196,545.7984 Q2672.9085,546.4484 2674.1835,546.4484 Q2674.9335,546.4484 2675.4585,546.2484 Q2675.771,546.1234 2676.1085,545.7734 Q2676.321,545.5609 2676.4335,545.4984 Q2676.5585,545.4359 2676.721,545.4359 Q2676.9835,545.4359 2677.1835,545.6484 Q2677.396,545.8484 2677.396,546.1234 Q2677.396,546.3984 2677.121,546.7234 Q2676.721,547.1859 2676.0835,547.4484 Q2675.221,547.8109 2674.1835,547.8109 Q2672.971,547.8109 2672.0085,547.3109 Q2671.221,546.9109 2670.671,546.0609 Q2670.121,545.1984 2670.121,544.1734 L2670.121,543.2484 Q2670.121,542.1859 2670.6085,541.2734 Q2671.1085,540.3484 2671.9835,539.8609 Q2672.8585,539.3609 2673.846,539.3609 Q2674.4335,539.3609 2674.946,539.4984 Q2675.471,539.6234 2675.9085,539.9109 Z " fill="#000000"/><text fill="#000000" font-family="sans-serif" font-size="11.2" lengthAdjust="spacing" textLength="24.8" x="2690.096" y="547.8484">Time</text><line style="stroke:#181818;stroke-width:0.4000000000000001;" x1="2616.696" x2="2762.296" y1="556.0109" y2="556.0109"/><line style="stroke:#181818;stroke-width:0.4000000000000001;" x1="2616.696" x2="2762.296" y1="562.4109" y2="562.4109"/><ellipse cx="2624.696" cy="574.2594" fill="#84BE84" rx="2.4" ry="2.4" style="stroke:#038048;stroke-width:0.8000000000000002;"/><text fill="#000000" font-family="sans-serif" font-size="11.2" lengthAdjust="spacing" text-decoration="underline" textLength="126.4" x="2631.896" y="577.6969">GetTimeSeconds() : float</text></g><!--class Texture--><g id="elem_Texture"><rect codeLine="96" fill="#F1F1F1" height="112.8844" id="Texture" rx="2" ry="2" style="stroke:#181818;stroke-width:0.4000000000000001;" width="392.8" x="572.296" y="1052.4109"/><ellipse cx="746.096" cy="1065.2109" fill="#ADD1B2" rx="8.8" ry="8.8" style="stroke:#181818;stroke-width:0.8000000000000002;"/><path d="M748.3085,1061.9109 Q748.4335,1061.7359 748.5835,1061.6484 Q748.7335,1061.5609 748.9085,1061.5609 Q749.2085,1061.5609 749.396,1061.7734 Q749.5835,1061.9734 749.5835,1062.4609 L749.5835,1063.6234 Q749.5835,1064.1109 749.396,1064.3234 Q749.2085,1064.5359 748.9085,1064.5359 Q748.6335,1064.5359 748.471,1064.3734 Q748.3085,1064.2234 748.221,1063.8109 Q748.1835,1063.5234 748.0335,1063.3734 Q747.771,1063.0734 747.2835,1062.8984 Q746.796,1062.7234 746.296,1062.7234 Q745.6835,1062.7234 745.171,1062.9859 Q744.671,1063.2484 744.271,1063.8484 Q743.8835,1064.4484 743.8835,1065.2734 L743.8835,1066.1484 Q743.8835,1067.1359 744.596,1067.7984 Q745.3085,1068.4484 746.5835,1068.4484 Q747.3335,1068.4484 747.8585,1068.2484 Q748.171,1068.1234 748.5085,1067.7734 Q748.721,1067.5609 748.8335,1067.4984 Q748.9585,1067.4359 749.121,1067.4359 Q749.3835,1067.4359 749.5835,1067.6484 Q749.796,1067.8484 749.796,1068.1234 Q749.796,1068.3984 749.521,1068.7234 Q749.121,1069.1859 748.4835,1069.4484 Q747.621,1069.8109 746.5835,1069.8109 Q745.371,1069.8109 744.4085,1069.3109 Q743.621,1068.9109 743.071,1068.0609 Q742.521,1067.1984 742.521,1066.1734 L742.521,1065.2484 Q742.521,1064.1859 743.0085,1063.2734 Q743.5085,1062.3484 744.3835,1061.8609 Q745.2585,1061.3609 746.246,1061.3609 Q746.8335,1061.3609 747.346,1061.4984 Q747.871,1061.6234 748.3085,1061.9109 Z " fill="#000000"/><text fill="#000000" font-family="sans-serif" font-size="11.2" lengthAdjust="spacing" textLength="38.4" x="762.496" y="1069.8484">Texture</text><line style="stroke:#181818;stroke-width:0.4000000000000001;" x1="573.096" x2="964.296" y1="1078.0109" y2="1078.0109"/><line style="stroke:#181818;stroke-width:0.4000000000000001;" x1="573.096" x2="964.296" y1="1084.4109" y2="1084.4109"/><ellipse cx="581.096" cy="1096.2594" fill="#84BE84" rx="2.4" ry="2.4" style="stroke:#038048;stroke-width:0.8000000000000002;"/><text fill="#000000" font-family="sans-serif" font-size="11.2" lengthAdjust="spacing" textLength="163.2" x="588.296" y="1099.6969">Texture(uint32_t _imageFormat)</text><ellipse cx="581.096" cy="1111.1563" fill="#84BE84" rx="2.4" ry="2.4" style="stroke:#038048;stroke-width:0.8000000000000002;"/><text fill="#000000" font-family="sans-serif" font-size="11.2" lengthAdjust="spacing" textLength="372" x="588.296" y="1114.5938">Generate(int _imageWidth, int _imageHeight, unsigned char* _data) : void</text><ellipse cx="581.096" cy="1126.0531" fill="#84BE84" rx="2.4" ry="2.4" style="stroke:#038048;stroke-width:0.8000000000000002;"/><text fill="#000000" font-family="sans-serif" font-size="11.2" lengthAdjust="spacing" textLength="100.8" x="588.296" y="1129.4906">Bind() : void {query}</text><ellipse cx="581.096" cy="1140.95" fill="#84BE84" rx="2.4" ry="2.4" style="stroke:#038048;stroke-width:0.8000000000000002;"/><text fill="#000000" font-family="sans-serif" font-size="11.2" lengthAdjust="spacing" textLength="134.4" x="588.296" y="1144.3875">GetID() : uint32_t&amp; {query}</text><ellipse cx="581.096" cy="1155.8469" fill="#84BE84" rx="2.4" ry="2.4" style="stroke:#038048;stroke-width:0.8000000000000002;"/><text fill="#000000" font-family="sans-serif" font-size="11.2" lengthAdjust="spacing" textLength="135.2" x="588.296" y="1159.2844">GetSize() : b2Vec2 {query}</text></g><!--class Colour--><g id="elem_Colour"><rect codeLine="104" fill="#F1F1F1" height="142.6781" id="Colour" rx="2" ry="2" style="stroke:#181818;stroke-width:0.4000000000000001;" width="200.8" x="343.496" y="1037.6109"/><ellipse cx="423.696" cy="1050.4109" fill="#ADD1B2" rx="8.8" ry="8.8" style="stroke:#181818;stroke-width:0.8000000000000002;"/><path d="M425.9085,1047.1109 Q426.0335,1046.9359 426.1835,1046.8484 Q426.3335,1046.7609 426.5085,1046.7609 Q426.8085,1046.7609 426.996,1046.9734 Q427.1835,1047.1734 427.1835,1047.6609 L427.1835,1048.8234 Q427.1835,1049.3109 426.996,1049.5234 Q426.8085,1049.7359 426.5085,1049.7359 Q426.2335,1049.7359 426.071,1049.5734 Q425.9085,1049.4234 425.821,1049.0109 Q425.7835,1048.7234 425.6335,1048.5734 Q425.371,1048.2734 424.8835,1048.0984 Q424.396,1047.9234 423.896,1047.9234 Q423.2835,1047.9234 422.771,1048.1859 Q422.271,1048.4484 421.871,1049.0484 Q421.4835,1049.6484 421.4835,1050.4734 L421.4835,1051.3484 Q421.4835,1052.3359 422.196,1052.9984 Q422.9085,1053.6484 424.1835,1053.6484 Q424.9335,1053.6484 425.4585,1053.4484 Q425.771,1053.3234 426.1085,1052.9734 Q426.321,1052.7609 426.4335,1052.6984 Q426.5585,1052.6359 426.721,1052.6359 Q426.9835,1052.6359 427.1835,1052.8484 Q427.396,1053.0484 427.396,1053.3234 Q427.396,1053.5984 427.121,1053.9234 Q426.721,1054.3859 426.0835,1054.6484 Q425.221,1055.0109 424.1835,1055.0109 Q422.971,1055.0109 422.0085,1054.5109 Q421.221,1054.1109 420.671,1053.2609 Q420.121,1052.3984 420.121,1051.3734 L420.121,1050.4484 Q420.121,1049.3859 420.6085,1048.4734 Q421.1085,1047.5484 421.9835,1047.0609 Q422.8585,1046.5609 423.846,1046.5609 Q424.4335,1046.5609 424.946,1046.6984 Q425.471,1046.8234 425.9085,1047.1109 Z " fill="#000000"/><text fill="#000000" font-family="sans-serif" font-size="11.2" lengthAdjust="spacing" textLength="33.6" x="440.096" y="1055.0484">Colour</text><line style="stroke:#181818;stroke-width:0.4000000000000001;" x1="344.296" x2="543.496" y1="1063.2109" y2="1063.2109"/><ellipse cx="352.296" cy="1075.0594" fill="none" rx="2.4" ry="2.4" style="stroke:#038048;stroke-width:0.8000000000000002;"/><text fill="#000000" font-family="sans-serif" font-size="11.2" lengthAdjust="spacing" textLength="25.6" x="359.496" y="1078.4969">r : int</text><ellipse cx="352.296" cy="1089.9563" fill="none" rx="2.4" ry="2.4" style="stroke:#038048;stroke-width:0.8000000000000002;"/><text fill="#000000" font-family="sans-serif" font-size="11.2" lengthAdjust="spacing" textLength="28" x="359.496" y="1093.3938">g : int</text><ellipse cx="352.296" cy="1104.8531" fill="none" rx="2.4" ry="2.4" style="stroke:#038048;stroke-width:0.8000000000000002;"/><text fill="#000000" font-family="sans-serif" font-size="11.2" lengthAdjust="spacing" textLength="28" x="359.496" y="1108.2906">b : int</text><ellipse cx="352.296" cy="1119.75" fill="none" rx="2.4" ry="2.4" style="stroke:#038048;stroke-width:0.8000000000000002;"/><text fill="#000000" font-family="sans-serif" font-size="11.2" lengthAdjust="spacing" textLength="37.6" x="359.496" y="1123.1875">a : float</text><line style="stroke:#181818;stroke-width:0.4000000000000001;" x1="344.296" x2="543.496" y1="1129.1984" y2="1129.1984"/><ellipse cx="352.296" cy="1141.0469" fill="#84BE84" rx="2.4" ry="2.4" style="stroke:#038048;stroke-width:0.8000000000000002;"/><text fill="#000000" font-family="sans-serif" font-size="11.2" lengthAdjust="spacing" textLength="180" x="359.496" y="1144.4844">Colour(int _r, int _g, int _b, float _a)</text><ellipse cx="352.296" cy="1155.9438" fill="#84BE84" rx="2.4" ry="2.4" style="stroke:#038048;stroke-width:0.8000000000000002;"/><text fill="#000000" font-family="sans-serif" font-size="11.2" lengthAdjust="spacing" textLength="172" x="359.496" y="1159.3813">GetGLReady() : glm::vec4 {query}</text><ellipse cx="352.296" cy="1170.8406" fill="#84BE84" rx="2.4" ry="2.4" style="stroke:#038048;stroke-width:0.8000000000000002;"/><text fill="#000000" font-family="sans-serif" font-size="11.2" lengthAdjust="spacing" text-decoration="underline" textLength="167.2" x="359.496" y="1174.2781">FromHex(int32_t _value) : Colour</text></g><!--class Shader--><g id="elem_Shader"><rect codeLine="114" fill="#F1F1F1" height="38.4" id="Shader" rx="2" ry="2" style="stroke:#181818;stroke-width:0.4000000000000001;" width="62.4" x="993.496" y="1089.6109"/><ellipse cx="1005.496" cy="1102.4109" fill="#ADD1B2" rx="8.8" ry="8.8" style="stroke:#181818;stroke-width:0.8000000000000002;"/><path d="M1007.7085,1099.1109 Q1007.8335,1098.9359 1007.9835,1098.8484 Q1008.1335,1098.7609 1008.3085,1098.7609 Q1008.6085,1098.7609 1008.796,1098.9734 Q1008.9835,1099.1734 1008.9835,1099.6609 L1008.9835,1100.8234 Q1008.9835,1101.3109 1008.796,1101.5234 Q1008.6085,1101.7359 1008.3085,1101.7359 Q1008.0335,1101.7359 1007.871,1101.5734 Q1007.7085,1101.4234 1007.621,1101.0109 Q1007.5835,1100.7234 1007.4335,1100.5734 Q1007.171,1100.2734 1006.6835,1100.0984 Q1006.196,1099.9234 1005.696,1099.9234 Q1005.0835,1099.9234 1004.571,1100.1859 Q1004.071,1100.4484 1003.671,1101.0484 Q1003.2835,1101.6484 1003.2835,1102.4734 L1003.2835,1103.3484 Q1003.2835,1104.3359 1003.996,1104.9984 Q1004.7085,1105.6484 1005.9835,1105.6484 Q1006.7335,1105.6484 1007.2585,1105.4484 Q1007.571,1105.3234 1007.9085,1104.9734 Q1008.121,1104.7609 1008.2335,1104.6984 Q1008.3585,1104.6359 1008.521,1104.6359 Q1008.7835,1104.6359 1008.9835,1104.8484 Q1009.196,1105.0484 1009.196,1105.3234 Q1009.196,1105.5984 1008.921,1105.9234 Q1008.521,1106.3859 1007.8835,1106.6484 Q1007.021,1107.0109 1005.9835,1107.0109 Q1004.771,1107.0109 1003.8085,1106.5109 Q1003.021,1106.1109 1002.471,1105.2609 Q1001.921,1104.3984 1001.921,1103.3734 L1001.921,1102.4484 Q1001.921,1101.3859 1002.4085,1100.4734 Q1002.9085,1099.5484 1003.7835,1099.0609 Q1004.6585,1098.5609 1005.646,1098.5609 Q1006.2335,1098.5609 1006.746,1098.6984 Q1007.271,1098.8234 1007.7085,1099.1109 Z " fill="#000000"/><text fill="#000000" font-family="sans-serif" font-size="11.2" lengthAdjust="spacing" textLength="36.8" x="1016.696" y="1107.0484">Shader</text><line style="stroke:#181818;stroke-width:0.4000000000000001;" x1="994.296" x2="1055.096" y1="1115.2109" y2="1115.2109"/><line style="stroke:#181818;stroke-width:0.4000000000000001;" x1="994.296" x2="1055.096" y1="1121.6109" y2="1121.6109"/></g><!--class AnimatedSprite--><g id="elem_AnimatedSprite"><rect codeLine="118" fill="#F1F1F1" height="127.7813" id="AnimatedSprite" rx="2" ry="2" style="stroke:#181818;stroke-width:0.4000000000000001;" width="650.4" x="180.296" y="493.2109"/><ellipse cx="463.696" cy="506.0109" fill="#ADD1B2" rx="8.8" ry="8.8" style="stroke:#181818;stroke-width:0.8000000000000002;"/><path d="M465.9085,502.7109 Q466.0335,502.5359 466.1835,502.4484 Q466.3335,502.3609 466.5085,502.3609 Q466.8085,502.3609 466.996,502.5734 Q467.1835,502.7734 467.1835,503.2609 L467.1835,504.4234 Q467.1835,504.9109 466.996,505.1234 Q466.8085,505.3359 466.5085,505.3359 Q466.2335,505.3359 466.071,505.1734 Q465.9085,505.0234 465.821,504.6109 Q465.7835,504.3234 465.6335,504.1734 Q465.371,503.8734 464.8835,503.6984 Q464.396,503.5234 463.896,503.5234 Q463.2835,503.5234 462.771,503.7859 Q462.271,504.0484 461.871,504.6484 Q461.4835,505.2484 461.4835,506.0734 L461.4835,506.9484 Q461.4835,507.9359 462.196,508.5984 Q462.9085,509.2484 464.1835,509.2484 Q464.9335,509.2484 465.4585,509.0484 Q465.771,508.9234 466.1085,508.5734 Q466.321,508.3609 466.4335,508.2984 Q466.5585,508.2359 466.721,508.2359 Q466.9835,508.2359 467.1835,508.4484 Q467.396,508.6484 467.396,508.9234 Q467.396,509.1984 467.121,509.5234 Q466.721,509.9859 466.0835,510.2484 Q465.221,510.6109 464.1835,510.6109 Q462.971,510.6109 462.0085,510.1109 Q461.221,509.7109 460.671,508.8609 Q460.121,507.9984 460.121,506.9734 L460.121,506.0484 Q460.121,504.9859 460.6085,504.0734 Q461.1085,503.1484 461.9835,502.6609 Q462.8585,502.1609 463.846,502.1609 Q464.4335,502.1609 464.946,502.2984 Q465.471,502.4234 465.9085,502.7109 Z " fill="#000000"/><text fill="#000000" font-family="sans-serif" font-size="11.2" lengthAdjust="spacing" textLength="76.8" x="480.096" y="510.6484">AnimatedSprite</text><line style="stroke:#181818;stroke-width:0.4000000000000001;" x1="181.096" x2="829.896" y1="518.8109" y2="518.8109"/><line style="stroke:#181818;stroke-width:0.4000000000000001;" x1="181.096" x2="829.896" y1="525.2109" y2="525.2109"/><ellipse cx="189.096" cy="537.0594" fill="#84BE84" rx="2.4" ry="2.4" style="stroke:#038048;stroke-width:0.8000000000000002;"/><text fill="#000000" font-family="sans-serif" font-size="11.2" lengthAdjust="spacing" textLength="629.6" x="196.296" y="540.4969">AnimatedSprite(fe::Texture* _texture, const AnimationSettings&amp; _animationSettings, const b2Vec2&amp; _size, bool _makeShape)</text><ellipse cx="189.096" cy="551.9563" fill="#84BE84" rx="2.4" ry="2.4" style="stroke:#038048;stroke-width:0.8000000000000002;"/><text fill="#000000" font-family="sans-serif" font-size="11.2" lengthAdjust="spacing" textLength="518.4" x="196.296" y="555.3938">AnimatedSprite(fe::Texture* _texture, const AnimationSettings&amp; _animationSettings, bool _makeShape)</text><ellipse cx="189.096" cy="566.8531" fill="#84BE84" rx="2.4" ry="2.4" style="stroke:#038048;stroke-width:0.8000000000000002;"/><text fill="#000000" font-family="sans-serif" font-size="11.2" lengthAdjust="spacing" textLength="176.8" x="196.296" y="570.2906">GetTotalFrameCount() : int {query}</text><ellipse cx="189.096" cy="581.75" fill="#84BE84" rx="2.4" ry="2.4" style="stroke:#038048;stroke-width:0.8000000000000002;"/><text fill="#000000" font-family="sans-serif" font-size="11.2" lengthAdjust="spacing" textLength="247.2" x="196.296" y="585.1875">SetCycle(int _startFrame, int _frameCount) : void</text><polygon fill="#FFFF44" points="189.096,592.6469,192.296,595.8469,189.096,599.0469,185.896,595.8469" style="stroke:#B38D22;stroke-width:0.8000000000000002;"/><text fill="#000000" font-family="sans-serif" font-size="11.2" lengthAdjust="spacing" textLength="131.2" x="196.296" y="600.0844">GetDefaultSize() : b2Vec2</text><polygon fill="#FFFF44" points="189.096,607.5438,192.296,610.7438,189.096,613.9438,185.896,610.7438" style="stroke:#B38D22;stroke-width:0.8000000000000002;"/><text fill="#000000" font-family="sans-serif" font-size="11.2" lengthAdjust="spacing" textLength="76" x="196.296" y="614.9813">Render() : void</text></g><!--class Sprite--><g id="elem_Sprite"><rect codeLine="127" fill="#F1F1F1" height="276.75" id="Sprite" rx="2" ry="2" style="stroke:#181818;stroke-width:0.4000000000000001;" width="369.6" x="320.696" y="34.4109"/><ellipse cx="487.296" cy="47.2109" fill="#ADD1B2" rx="8.8" ry="8.8" style="stroke:#181818;stroke-width:0.8000000000000002;"/><path d="M489.5085,43.9109 Q489.6335,43.7359 489.7835,43.6484 Q489.9335,43.5609 490.1085,43.5609 Q490.4085,43.5609 490.596,43.7734 Q490.7835,43.9734 490.7835,44.4609 L490.7835,45.6234 Q490.7835,46.1109 490.596,46.3234 Q490.4085,46.5359 490.1085,46.5359 Q489.8335,46.5359 489.671,46.3734 Q489.5085,46.2234 489.421,45.8109 Q489.3835,45.5234 489.2335,45.3734 Q488.971,45.0734 488.4835,44.8984 Q487.996,44.7234 487.496,44.7234 Q486.8835,44.7234 486.371,44.9859 Q485.871,45.2484 485.471,45.8484 Q485.0835,46.4484 485.0835,47.2734 L485.0835,48.1484 Q485.0835,49.1359 485.796,49.7984 Q486.5085,50.4484 487.7835,50.4484 Q488.5335,50.4484 489.0585,50.2484 Q489.371,50.1234 489.7085,49.7734 Q489.921,49.5609 490.0335,49.4984 Q490.1585,49.4359 490.321,49.4359 Q490.5835,49.4359 490.7835,49.6484 Q490.996,49.8484 490.996,50.1234 Q490.996,50.3984 490.721,50.7234 Q490.321,51.1859 489.6835,51.4484 Q488.821,51.8109 487.7835,51.8109 Q486.571,51.8109 485.6085,51.3109 Q484.821,50.9109 484.271,50.0609 Q483.721,49.1984 483.721,48.1734 L483.721,47.2484 Q483.721,46.1859 484.2085,45.2734 Q484.7085,44.3484 485.5835,43.8609 Q486.4585,43.3609 487.446,43.3609 Q488.0335,43.3609 488.546,43.4984 Q489.071,43.6234 489.5085,43.9109 Z " fill="#000000"/><text fill="#000000" font-family="sans-serif" font-size="11.2" lengthAdjust="spacing" textLength="29.6" x="503.696" y="51.8484">Sprite</text><line style="stroke:#181818;stroke-width:0.4000000000000001;" x1="321.496" x2="689.496" y1="60.0109" y2="60.0109"/><polygon fill="none" points="329.496,67.8594,332.696,71.0594,329.496,74.2594,326.296,71.0594" style="stroke:#B38D22;stroke-width:0.8000000000000002;"/><text fill="#000000" font-family="sans-serif" font-size="11.2" lengthAdjust="spacing" textLength="148.8" x="336.696" y="75.2969">spriteSettings : SpriteSettings</text><polygon fill="none" points="329.496,82.7563,332.696,85.9563,329.496,89.1563,326.296,85.9563" style="stroke:#B38D22;stroke-width:0.8000000000000002;"/><text fill="#000000" font-family="sans-serif" font-size="11.2" lengthAdjust="spacing" textLength="76" x="336.696" y="90.1938">offset : b2Vec2</text><polygon fill="none" points="329.496,97.6531,332.696,100.8531,329.496,104.0531,326.296,100.8531" style="stroke:#B38D22;stroke-width:0.8000000000000002;"/><text fill="#000000" font-family="sans-serif" font-size="11.2" lengthAdjust="spacing" textLength="102.4" x="336.696" y="105.0906">texture : fe::Texture*</text><line style="stroke:#181818;stroke-width:0.4000000000000001;" x1="321.496" x2="689.496" y1="111.1016" y2="111.1016"/><ellipse cx="329.496" cy="122.95" fill="#84BE84" rx="2.4" ry="2.4" style="stroke:#038048;stroke-width:0.8000000000000002;"/><text fill="#000000" font-family="sans-serif" font-size="11.2" lengthAdjust="spacing" textLength="348.8" x="336.696" y="126.3875">Sprite(fe::Texture* _texture, bool _makeShape, const b2Vec2&amp; _size)</text><ellipse cx="329.496" cy="137.8469" fill="#84BE84" rx="2.4" ry="2.4" style="stroke:#038048;stroke-width:0.8000000000000002;"/><text fill="#000000" font-family="sans-serif" font-size="11.2" lengthAdjust="spacing" textLength="251.2" x="336.696" y="141.2844">Sprite(fe::Texture* _texture, const b2Vec2&amp; _size)</text><ellipse cx="329.496" cy="152.7438" fill="#84BE84" rx="2.4" ry="2.4" style="stroke:#038048;stroke-width:0.8000000000000002;"/><text fill="#000000" font-family="sans-serif" font-size="11.2" lengthAdjust="spacing" textLength="224" x="336.696" y="156.1813">GetSpriteSettings() : SpriteSettings&amp; {query}</text><ellipse cx="329.496" cy="167.6406" fill="#84BE84" rx="2.4" ry="2.4" style="stroke:#038048;stroke-width:0.8000000000000002;"/><text fill="#000000" font-family="sans-serif" font-size="11.2" lengthAdjust="spacing" textLength="164.8" x="336.696" y="171.0781">FlipHorizontal(bool _value) : void</text><ellipse cx="329.496" cy="182.5375" fill="#84BE84" rx="2.4" ry="2.4" style="stroke:#038048;stroke-width:0.8000000000000002;"/><text fill="#000000" font-family="sans-serif" font-size="11.2" lengthAdjust="spacing" textLength="152.8" x="336.696" y="185.975">FlipVertical(bool _value) : void</text><ellipse cx="329.496" cy="197.4344" fill="#84BE84" rx="2.4" ry="2.4" style="stroke:#038048;stroke-width:0.8000000000000002;"/><text fill="#000000" font-family="sans-serif" font-size="11.2" lengthAdjust="spacing" textLength="216.8" x="336.696" y="200.8719">SetColour(const fe::Colour&amp; _colour) : void</text><ellipse cx="329.496" cy="212.3313" fill="#84BE84" rx="2.4" ry="2.4" style="stroke:#038048;stroke-width:0.8000000000000002;"/><text fill="#000000" font-family="sans-serif" font-size="11.2" lengthAdjust="spacing" textLength="199.2" x="336.696" y="215.7688">SetOffset(const b2Vec2&amp; _offset) : void</text><ellipse cx="329.496" cy="227.2281" fill="#84BE84" rx="2.4" ry="2.4" style="stroke:#038048;stroke-width:0.8000000000000002;"/><text fill="#000000" font-family="sans-serif" font-size="11.2" lengthAdjust="spacing" textLength="312" x="336.696" y="230.6656">SetSpriteSettings(const SpriteSettings&amp; _spriteSettings) : void</text><ellipse cx="329.496" cy="242.125" fill="#84BE84" rx="2.4" ry="2.4" style="stroke:#038048;stroke-width:0.8000000000000002;"/><text fill="#000000" font-family="sans-serif" font-size="11.2" lengthAdjust="spacing" textLength="124" x="336.696" y="245.5625">Show(bool _value) : void</text><polygon fill="#FFFF44" points="329.496,253.0219,332.696,256.2219,329.496,259.4219,326.296,256.2219" style="stroke:#B38D22;stroke-width:0.8000000000000002;"/><text fill="#000000" font-family="sans-serif" font-size="11.2" lengthAdjust="spacing" textLength="62.4" x="336.696" y="260.4594">Start() : void</text><polygon fill="#FFFF44" points="329.496,267.9188,332.696,271.1188,329.496,274.3188,326.296,271.1188" style="stroke:#B38D22;stroke-width:0.8000000000000002;"/><text fill="#000000" font-family="sans-serif" font-size="11.2" lengthAdjust="spacing" textLength="155.2" x="336.696" y="275.3563">Update(float _deltaTime) : void</text><polygon fill="#FFFF44" points="329.496,282.8156,332.696,286.0156,329.496,289.2156,326.296,286.0156" style="stroke:#B38D22;stroke-width:0.8000000000000002;"/><text fill="#000000" font-family="sans-serif" font-size="11.2" lengthAdjust="spacing" textLength="76" x="336.696" y="290.2531">Render() : void</text><polygon fill="#FFFF44" points="329.496,297.7125,332.696,300.9125,329.496,304.1125,326.296,300.9125" style="stroke:#B38D22;stroke-width:0.8000000000000002;"/><text fill="#000000" font-family="sans-serif" font-size="11.2" lengthAdjust="spacing" textLength="131.2" x="336.696" y="305.15">GetDefaultSize() : b2Vec2</text></g><!--class EngineSettings--><g id="elem_EngineSettings"><rect codeLine="148" fill="#F1F1F1" height="172.4719" id="EngineSettings" rx="2" ry="2" style="stroke:#181818;stroke-width:0.4000000000000001;" width="144.8" x="739.496" y="803.2109"/><ellipse cx="770.936" cy="816.0109" fill="#ADD1B2" rx="8.8" ry="8.8" style="stroke:#181818;stroke-width:0.8000000000000002;"/><path d="M773.1485,812.7109 Q773.2735,812.5359 773.4235,812.4484 Q773.5735,812.3609 773.7485,812.3609 Q774.0485,812.3609 774.236,812.5734 Q774.4235,812.7734 774.4235,813.2609 L774.4235,814.4234 Q774.4235,814.9109 774.236,815.1234 Q774.0485,815.3359 773.7485,815.3359 Q773.4735,815.3359 773.311,815.1734 Q773.1485,815.0234 773.061,814.6109 Q773.0235,814.3234 772.8735,814.1734 Q772.611,813.8734 772.1235,813.6984 Q771.636,813.5234 771.136,813.5234 Q770.5235,813.5234 770.011,813.7859 Q769.511,814.0484 769.111,814.6484 Q768.7235,815.2484 768.7235,816.0734 L768.7235,816.9484 Q768.7235,817.9359 769.436,818.5984 Q770.1485,819.2484 771.4235,819.2484 Q772.1735,819.2484 772.6985,819.0484 Q773.011,818.9234 773.3485,818.5734 Q773.561,818.3609 773.6735,818.2984 Q773.7985,818.2359 773.961,818.2359 Q774.2235,818.2359 774.4235,818.4484 Q774.636,818.6484 774.636,818.9234 Q774.636,819.1984 774.361,819.5234 Q773.961,819.9859 773.3235,820.2484 Q772.461,820.6109 771.4235,820.6109 Q770.211,820.6109 769.2485,820.1109 Q768.461,819.7109 767.911,818.8609 Q767.361,817.9984 767.361,816.9734 L767.361,816.0484 Q767.361,814.9859 767.8485,814.0734 Q768.3485,813.1484 769.2235,812.6609 Q770.0985,812.1609 771.086,812.1609 Q771.6735,812.1609 772.186,812.2984 Q772.711,812.4234 773.1485,812.7109 Z " fill="#000000"/><text fill="#000000" font-family="sans-serif" font-size="11.2" lengthAdjust="spacing" textLength="76" x="786.456" y="820.6484">EngineSettings</text><line style="stroke:#181818;stroke-width:0.4000000000000001;" x1="740.296" x2="883.496" y1="828.8109" y2="828.8109"/><ellipse cx="748.296" cy="840.6594" fill="none" rx="2.4" ry="2.4" style="stroke:#038048;stroke-width:0.8000000000000002;"/><text fill="#000000" font-family="sans-serif" font-size="11.2" lengthAdjust="spacing" textLength="81.6" x="755.496" y="844.0969">gravity : b2Vec2</text><ellipse cx="748.296" cy="855.5563" fill="none" rx="2.4" ry="2.4" style="stroke:#038048;stroke-width:0.8000000000000002;"/><text fill="#000000" font-family="sans-serif" font-size="11.2" lengthAdjust="spacing" textLength="81.6" x="755.496" y="858.9938">gravity : b2Vec2</text><ellipse cx="748.296" cy="870.4531" fill="none" rx="2.4" ry="2.4" style="stroke:#038048;stroke-width:0.8000000000000002;"/><text fill="#000000" font-family="sans-serif" font-size="11.2" lengthAdjust="spacing" textLength="96" x="755.496" y="873.8906">enableVsync : bool</text><ellipse cx="748.296" cy="885.35" fill="none" rx="2.4" ry="2.4" style="stroke:#038048;stroke-width:0.8000000000000002;"/><text fill="#000000" font-family="sans-serif" font-size="11.2" lengthAdjust="spacing" textLength="124" x="755.496" y="888.7875">windowTitle : const char*</text><ellipse cx="748.296" cy="900.2469" fill="none" rx="2.4" ry="2.4" style="stroke:#038048;stroke-width:0.8000000000000002;"/><text fill="#000000" font-family="sans-serif" font-size="11.2" lengthAdjust="spacing" textLength="73.6" x="755.496" y="903.6844">farPlane : float</text><ellipse cx="748.296" cy="915.1438" fill="none" rx="2.4" ry="2.4" style="stroke:#038048;stroke-width:0.8000000000000002;"/><text fill="#000000" font-family="sans-serif" font-size="11.2" lengthAdjust="spacing" textLength="83.2" x="755.496" y="918.5813">nearPlane : float</text><ellipse cx="748.296" cy="930.0406" fill="none" rx="2.4" ry="2.4" style="stroke:#038048;stroke-width:0.8000000000000002;"/><text fill="#000000" font-family="sans-serif" font-size="11.2" lengthAdjust="spacing" textLength="57.6" x="755.496" y="933.4781">zoom : float</text><ellipse cx="748.296" cy="944.9375" fill="none" rx="2.4" ry="2.4" style="stroke:#038048;stroke-width:0.8000000000000002;"/><text fill="#000000" font-family="sans-serif" font-size="11.2" lengthAdjust="spacing" textLength="118.4" x="755.496" y="948.375">windowHeight : uint16_t</text><ellipse cx="748.296" cy="959.8344" fill="none" rx="2.4" ry="2.4" style="stroke:#038048;stroke-width:0.8000000000000002;"/><text fill="#000000" font-family="sans-serif" font-size="11.2" lengthAdjust="spacing" textLength="115.2" x="755.496" y="963.2719">windowWidth : uint16_t</text><line style="stroke:#181818;stroke-width:0.4000000000000001;" x1="740.296" x2="883.496" y1="969.2828" y2="969.2828"/></g><!--class SpriteSettings--><g id="elem_SpriteSettings"><rect codeLine="160" fill="#F1F1F1" height="127.7813" id="SpriteSettings" rx="2" ry="2" style="stroke:#181818;stroke-width:0.4000000000000001;" width="116" x="241.896" y="825.6109"/><ellipse cx="262.896" cy="838.4109" fill="#ADD1B2" rx="8.8" ry="8.8" style="stroke:#181818;stroke-width:0.8000000000000002;"/><path d="M265.1085,835.1109 Q265.2335,834.9359 265.3835,834.8484 Q265.5335,834.7609 265.7085,834.7609 Q266.0085,834.7609 266.196,834.9734 Q266.3835,835.1734 266.3835,835.6609 L266.3835,836.8234 Q266.3835,837.3109 266.196,837.5234 Q266.0085,837.7359 265.7085,837.7359 Q265.4335,837.7359 265.271,837.5734 Q265.1085,837.4234 265.021,837.0109 Q264.9835,836.7234 264.8335,836.5734 Q264.571,836.2734 264.0835,836.0984 Q263.596,835.9234 263.096,835.9234 Q262.4835,835.9234 261.971,836.1859 Q261.471,836.4484 261.071,837.0484 Q260.6835,837.6484 260.6835,838.4734 L260.6835,839.3484 Q260.6835,840.3359 261.396,840.9984 Q262.1085,841.6484 263.3835,841.6484 Q264.1335,841.6484 264.6585,841.4484 Q264.971,841.3234 265.3085,840.9734 Q265.521,840.7609 265.6335,840.6984 Q265.7585,840.6359 265.921,840.6359 Q266.1835,840.6359 266.3835,840.8484 Q266.596,841.0484 266.596,841.3234 Q266.596,841.5984 266.321,841.9234 Q265.921,842.3859 265.2835,842.6484 Q264.421,843.0109 263.3835,843.0109 Q262.171,843.0109 261.2085,842.5109 Q260.421,842.1109 259.871,841.2609 Q259.321,840.3984 259.321,839.3734 L259.321,838.4484 Q259.321,837.3859 259.8085,836.4734 Q260.3085,835.5484 261.1835,835.0609 Q262.0585,834.5609 263.046,834.5609 Q263.6335,834.5609 264.146,834.6984 Q264.671,834.8234 265.1085,835.1109 Z " fill="#000000"/><text fill="#000000" font-family="sans-serif" font-size="11.2" lengthAdjust="spacing" textLength="70.4" x="276.096" y="843.0484">SpriteSettings</text><line style="stroke:#181818;stroke-width:0.4000000000000001;" x1="242.696" x2="357.096" y1="851.2109" y2="851.2109"/><ellipse cx="250.696" cy="863.0594" fill="none" rx="2.4" ry="2.4" style="stroke:#038048;stroke-width:0.8000000000000002;"/><text fill="#000000" font-family="sans-serif" font-size="11.2" lengthAdjust="spacing" textLength="74.4" x="257.896" y="866.4969">colour : Colour</text><ellipse cx="250.696" cy="877.9563" fill="none" rx="2.4" ry="2.4" style="stroke:#038048;stroke-width:0.8000000000000002;"/><text fill="#000000" font-family="sans-serif" font-size="11.2" lengthAdjust="spacing" textLength="87.2" x="257.896" y="881.3938">position : b2Vec2</text><ellipse cx="250.696" cy="892.8531" fill="none" rx="2.4" ry="2.4" style="stroke:#038048;stroke-width:0.8000000000000002;"/><text fill="#000000" font-family="sans-serif" font-size="11.2" lengthAdjust="spacing" textLength="67.2" x="257.896" y="896.2906">size : b2Vec2</text><ellipse cx="250.696" cy="907.75" fill="none" rx="2.4" ry="2.4" style="stroke:#038048;stroke-width:0.8000000000000002;"/><text fill="#000000" font-family="sans-serif" font-size="11.2" lengthAdjust="spacing" textLength="95.2" x="257.896" y="911.1875">flipHorizontal : bool</text><ellipse cx="250.696" cy="922.6469" fill="none" rx="2.4" ry="2.4" style="stroke:#038048;stroke-width:0.8000000000000002;"/><text fill="#000000" font-family="sans-serif" font-size="11.2" lengthAdjust="spacing" textLength="83.2" x="257.896" y="926.0844">flipVertical : bool</text><ellipse cx="250.696" cy="937.5438" fill="none" rx="2.4" ry="2.4" style="stroke:#038048;stroke-width:0.8000000000000002;"/><text fill="#000000" font-family="sans-serif" font-size="11.2" lengthAdjust="spacing" textLength="59.2" x="257.896" y="940.9813">angle : float</text><line style="stroke:#181818;stroke-width:0.4000000000000001;" x1="242.696" x2="357.096" y1="946.9922" y2="946.9922"/></g><!--class AnimationSettings--><g id="elem_AnimationSettings"><rect codeLine="169" fill="#F1F1F1" height="157.575" id="AnimationSettings" rx="2" ry="2" style="stroke:#181818;stroke-width:0.4000000000000001;" width="324.8" x="386.296" y="810.8109"/><ellipse cx="500.096" cy="823.6109" fill="#ADD1B2" rx="8.8" ry="8.8" style="stroke:#181818;stroke-width:0.8000000000000002;"/><path d="M502.3085,820.3109 Q502.4335,820.1359 502.5835,820.0484 Q502.7335,819.9609 502.9085,819.9609 Q503.2085,819.9609 503.396,820.1734 Q503.5835,820.3734 503.5835,820.8609 L503.5835,822.0234 Q503.5835,822.5109 503.396,822.7234 Q503.2085,822.9359 502.9085,822.9359 Q502.6335,822.9359 502.471,822.7734 Q502.3085,822.6234 502.221,822.2109 Q502.1835,821.9234 502.0335,821.7734 Q501.771,821.4734 501.2835,821.2984 Q500.796,821.1234 500.296,821.1234 Q499.6835,821.1234 499.171,821.3859 Q498.671,821.6484 498.271,822.2484 Q497.8835,822.8484 497.8835,823.6734 L497.8835,824.5484 Q497.8835,825.5359 498.596,826.1984 Q499.3085,826.8484 500.5835,826.8484 Q501.3335,826.8484 501.8585,826.6484 Q502.171,826.5234 502.5085,826.1734 Q502.721,825.9609 502.8335,825.8984 Q502.9585,825.8359 503.121,825.8359 Q503.3835,825.8359 503.5835,826.0484 Q503.796,826.2484 503.796,826.5234 Q503.796,826.7984 503.521,827.1234 Q503.121,827.5859 502.4835,827.8484 Q501.621,828.2109 500.5835,828.2109 Q499.371,828.2109 498.4085,827.7109 Q497.621,827.3109 497.071,826.4609 Q496.521,825.5984 496.521,824.5734 L496.521,823.6484 Q496.521,822.5859 497.0085,821.6734 Q497.5085,820.7484 498.3835,820.2609 Q499.2585,819.7609 500.246,819.7609 Q500.8335,819.7609 501.346,819.8984 Q501.871,820.0234 502.3085,820.3109 Z " fill="#000000"/><text fill="#000000" font-family="sans-serif" font-size="11.2" lengthAdjust="spacing" textLength="90.4" x="516.496" y="828.2484">AnimationSettings</text><line style="stroke:#181818;stroke-width:0.4000000000000001;" x1="387.096" x2="710.296" y1="836.4109" y2="836.4109"/><ellipse cx="395.096" cy="848.2594" fill="none" rx="2.4" ry="2.4" style="stroke:#038048;stroke-width:0.8000000000000002;"/><text fill="#000000" font-family="sans-serif" font-size="11.2" lengthAdjust="spacing" textLength="46.4" x="402.296" y="851.6969">fps : float</text><ellipse cx="395.096" cy="863.1563" fill="none" rx="2.4" ry="2.4" style="stroke:#038048;stroke-width:0.8000000000000002;"/><text fill="#000000" font-family="sans-serif" font-size="11.2" lengthAdjust="spacing" textLength="63.2" x="402.296" y="866.5938">columns : int</text><ellipse cx="395.096" cy="878.0531" fill="none" rx="2.4" ry="2.4" style="stroke:#038048;stroke-width:0.8000000000000002;"/><text fill="#000000" font-family="sans-serif" font-size="11.2" lengthAdjust="spacing" textLength="110.4" x="402.296" y="881.4906">cycleFrameCount : int</text><ellipse cx="395.096" cy="892.95" fill="none" rx="2.4" ry="2.4" style="stroke:#038048;stroke-width:0.8000000000000002;"/><text fill="#000000" font-family="sans-serif" font-size="11.2" lengthAdjust="spacing" textLength="104" x="402.296" y="896.3875">cycleStartFrame : int</text><ellipse cx="395.096" cy="907.8469" fill="none" rx="2.4" ry="2.4" style="stroke:#038048;stroke-width:0.8000000000000002;"/><text fill="#000000" font-family="sans-serif" font-size="11.2" lengthAdjust="spacing" textLength="44.8" x="402.296" y="911.2844">rows : int</text><ellipse cx="395.096" cy="922.7438" fill="none" rx="2.4" ry="2.4" style="stroke:#038048;stroke-width:0.8000000000000002;"/><text fill="#000000" font-family="sans-serif" font-size="11.2" lengthAdjust="spacing" textLength="106.4" x="402.296" y="926.1813">totalFrameCount : int</text><line style="stroke:#181818;stroke-width:0.4000000000000001;" x1="387.096" x2="710.296" y1="932.1922" y2="932.1922"/><ellipse cx="395.096" cy="944.0406" fill="#84BE84" rx="2.4" ry="2.4" style="stroke:#038048;stroke-width:0.8000000000000002;"/><text fill="#000000" font-family="sans-serif" font-size="11.2" lengthAdjust="spacing" textLength="279.2" x="402.296" y="947.4781">AnimationSettings(int _cols, int _rows, int _numFrames)</text><ellipse cx="395.096" cy="958.9375" fill="#84BE84" rx="2.4" ry="2.4" style="stroke:#038048;stroke-width:0.8000000000000002;"/><text fill="#000000" font-family="sans-serif" font-size="11.2" lengthAdjust="spacing" textLength="304" x="402.296" y="962.375">SetCycle(int _cycleStartFrame, int _cycleFrameCount) : void</text></g><!--class AssetManager--><g id="elem_AssetManager"><rect codeLine="182" fill="#F1F1F1" height="68.1938" id="AssetManager" rx="2" ry="2" style="stroke:#181818;stroke-width:0.4000000000000001;" width="264" x="3014.296" y="855.6109"/><ellipse cx="3106.496" cy="868.4109" fill="#ADD1B2" rx="8.8" ry="8.8" style="stroke:#181818;stroke-width:0.8000000000000002;"/><path d="M3108.7085,865.1109 Q3108.8335,864.9359 3108.9835,864.8484 Q3109.1335,864.7609 3109.3085,864.7609 Q3109.6085,864.7609 3109.796,864.9734 Q3109.9835,865.1734 3109.9835,865.6609 L3109.9835,866.8234 Q3109.9835,867.3109 3109.796,867.5234 Q3109.6085,867.7359 3109.3085,867.7359 Q3109.0335,867.7359 3108.871,867.5734 Q3108.7085,867.4234 3108.621,867.0109 Q3108.5835,866.7234 3108.4335,866.5734 Q3108.171,866.2734 3107.6835,866.0984 Q3107.196,865.9234 3106.696,865.9234 Q3106.0835,865.9234 3105.571,866.1859 Q3105.071,866.4484 3104.671,867.0484 Q3104.2835,867.6484 3104.2835,868.4734 L3104.2835,869.3484 Q3104.2835,870.3359 3104.996,870.9984 Q3105.7085,871.6484 3106.9835,871.6484 Q3107.7335,871.6484 3108.2585,871.4484 Q3108.571,871.3234 3108.9085,870.9734 Q3109.121,870.7609 3109.2335,870.6984 Q3109.3585,870.6359 3109.521,870.6359 Q3109.7835,870.6359 3109.9835,870.8484 Q3110.196,871.0484 3110.196,871.3234 Q3110.196,871.5984 3109.921,871.9234 Q3109.521,872.3859 3108.8835,872.6484 Q3108.021,873.0109 3106.9835,873.0109 Q3105.771,873.0109 3104.8085,872.5109 Q3104.021,872.1109 3103.471,871.2609 Q3102.921,870.3984 3102.921,869.3734 L3102.921,868.4484 Q3102.921,867.3859 3103.4085,866.4734 Q3103.9085,865.5484 3104.7835,865.0609 Q3105.6585,864.5609 3106.646,864.5609 Q3107.2335,864.5609 3107.746,864.6984 Q3108.271,864.8234 3108.7085,865.1109 Z " fill="#000000"/><text fill="#000000" font-family="sans-serif" font-size="11.2" lengthAdjust="spacing" textLength="72.8" x="3122.896" y="873.0484">AssetManager</text><line style="stroke:#181818;stroke-width:0.4000000000000001;" x1="3015.096" x2="3277.496" y1="881.2109" y2="881.2109"/><line style="stroke:#181818;stroke-width:0.4000000000000001;" x1="3015.096" x2="3277.496" y1="887.6109" y2="887.6109"/><ellipse cx="3023.096" cy="899.4594" fill="#84BE84" rx="2.4" ry="2.4" style="stroke:#038048;stroke-width:0.8000000000000002;"/><text fill="#000000" font-family="sans-serif" font-size="11.2" lengthAdjust="spacing" text-decoration="underline" textLength="243.2" x="3030.296" y="902.8969">LoadTexture(const std::string&amp; _path) : Texture*</text><ellipse cx="3023.096" cy="914.3563" fill="#84BE84" rx="2.4" ry="2.4" style="stroke:#038048;stroke-width:0.8000000000000002;"/><text fill="#000000" font-family="sans-serif" font-size="11.2" lengthAdjust="spacing" text-decoration="underline" textLength="232" x="3030.296" y="917.7938">UnloadTexture(const std::string&amp; _path) : bool</text></g><!--class FileUtils--><g id="elem_FileUtils"><rect codeLine="187" fill="#F1F1F1" height="68.1938" id="FileUtils" rx="2" ry="2" style="stroke:#181818;stroke-width:0.4000000000000001;" width="274.4" x="3012.296" y="1074.8109"/><ellipse cx="3126.496" cy="1087.6109" fill="#ADD1B2" rx="8.8" ry="8.8" style="stroke:#181818;stroke-width:0.8000000000000002;"/><path d="M3128.7085,1084.3109 Q3128.8335,1084.1359 3128.9835,1084.0484 Q3129.1335,1083.9609 3129.3085,1083.9609 Q3129.6085,1083.9609 3129.796,1084.1734 Q3129.9835,1084.3734 3129.9835,1084.8609 L3129.9835,1086.0234 Q3129.9835,1086.5109 3129.796,1086.7234 Q3129.6085,1086.9359 3129.3085,1086.9359 Q3129.0335,1086.9359 3128.871,1086.7734 Q3128.7085,1086.6234 3128.621,1086.2109 Q3128.5835,1085.9234 3128.4335,1085.7734 Q3128.171,1085.4734 3127.6835,1085.2984 Q3127.196,1085.1234 3126.696,1085.1234 Q3126.0835,1085.1234 3125.571,1085.3859 Q3125.071,1085.6484 3124.671,1086.2484 Q3124.2835,1086.8484 3124.2835,1087.6734 L3124.2835,1088.5484 Q3124.2835,1089.5359 3124.996,1090.1984 Q3125.7085,1090.8484 3126.9835,1090.8484 Q3127.7335,1090.8484 3128.2585,1090.6484 Q3128.571,1090.5234 3128.9085,1090.1734 Q3129.121,1089.9609 3129.2335,1089.8984 Q3129.3585,1089.8359 3129.521,1089.8359 Q3129.7835,1089.8359 3129.9835,1090.0484 Q3130.196,1090.2484 3130.196,1090.5234 Q3130.196,1090.7984 3129.921,1091.1234 Q3129.521,1091.5859 3128.8835,1091.8484 Q3128.021,1092.2109 3126.9835,1092.2109 Q3125.771,1092.2109 3124.8085,1091.7109 Q3124.021,1091.3109 3123.471,1090.4609 Q3122.921,1089.5984 3122.921,1088.5734 L3122.921,1087.6484 Q3122.921,1086.5859 3123.4085,1085.6734 Q3123.9085,1084.7484 3124.7835,1084.2609 Q3125.6585,1083.7609 3126.646,1083.7609 Q3127.2335,1083.7609 3127.746,1083.8984 Q3128.271,1084.0234 3128.7085,1084.3109 Z " fill="#000000"/><text fill="#000000" font-family="sans-serif" font-size="11.2" lengthAdjust="spacing" textLength="39.2" x="3142.896" y="1092.2484">FileUtils</text><line style="stroke:#181818;stroke-width:0.4000000000000001;" x1="3013.096" x2="3285.896" y1="1100.4109" y2="1100.4109"/><line style="stroke:#181818;stroke-width:0.4000000000000001;" x1="3013.096" x2="3285.896" y1="1106.8109" y2="1106.8109"/><ellipse cx="3021.096" cy="1118.6594" fill="#84BE84" rx="2.4" ry="2.4" style="stroke:#038048;stroke-width:0.8000000000000002;"/><text fill="#000000" font-family="sans-serif" font-size="11.2" lengthAdjust="spacing" text-decoration="underline" textLength="187.2" x="3028.296" y="1122.0969">Exists(const std::string&amp; _path) : bool</text><ellipse cx="3021.096" cy="1133.5563" fill="#84BE84" rx="2.4" ry="2.4" style="stroke:#038048;stroke-width:0.8000000000000002;"/><text fill="#000000" font-family="sans-serif" font-size="11.2" lengthAdjust="spacing" text-decoration="underline" textLength="253.6" x="3028.296" y="1136.9938">ReadTextFile(const std::string&amp; _path) : std::string</text></g><!--reverse link AssetManager to Texture--><g id="link_AssetManager_Texture"><path codeLine="193" d="M3103.9254,926.5892 C3072.0374,951.7092 3028.088,981.2109 2979.896,995.2109 C2926.544,1010.7069 1033.928,988.6749 979.896,1001.6109 C937.072,1011.8589 893.064,1032.1949 856.376,1052.3709 " fill="none" id="AssetManager-backto-Texture" style="stroke:#181818;stroke-width:0.8000000000000002;"/><polygon fill="#181818" points="3107.696,923.6189,3100.0599,925.5607,3104.5538,926.0942,3104.0203,930.5881,3107.696,923.6189" style="stroke:#181818;stroke-width:0.8000000000000002;"/></g><!--reverse link AssetManager to FileUtils--><g id="link_AssetManager_FileUtils"><path codeLine="194" d="M3146.8543,928.4984 C3147.4543,969.4504 3148.4,1033.7789 3149.008,1074.7309 " fill="none" id="AssetManager-backto-FileUtils" style="stroke:#181818;stroke-width:0.8000000000000002;"/><polygon fill="#181818" points="3146.784,923.6989,3143.6898,930.945,3146.8426,927.6985,3150.0891,930.8513,3146.784,923.6989" style="stroke:#181818;stroke-width:0.8000000000000002;"/></g><!--reverse link Engine to GameObject--><g id="link_Engine_GameObject"><path codeLine="196" d="M2122.4213,186.4613 C1948.3413,204.8853 1666.104,249.5149 1439.896,359.2109 C1435.032,361.5709 1430.184,364.0429 1425.352,366.6189 " fill="none" id="Engine-backto-GameObject" style="stroke:#181818;stroke-width:0.8000000000000002;"/><polygon fill="#181818" points="2131.968,185.4509,2126.8579,182.7739,2122.4213,186.4613,2127.5315,189.1384,2131.968,185.4509" style="stroke:#181818;stroke-width:0.8000000000000002;"/></g><!--reverse link Engine to GameTemplate--><g id="link_Engine_GameTemplate"><path codeLine="197" d="M2441.6615,202.1197 C2548.4535,227.4157 2680.328,272.8029 2777.496,359.2109 C2822.536,399.2589 2850.48,464.0429 2865.392,508.3469 " fill="none" id="Engine-backto-GameTemplate" style="stroke:#181818;stroke-width:0.8000000000000002;"/><polygon fill="#181818" points="2432.32,199.9069,2436.2532,204.1271,2441.6615,202.1197,2437.7283,197.8995,2432.32,199.9069" style="stroke:#181818;stroke-width:0.8000000000000002;"/></g><!--reverse link Engine to EngineSettings--><g id="link_Engine_EngineSettings"><path codeLine="198" d="M2122.5134,174.7968 C1813.5934,180.0048 1131.112,208.4829 959.096,359.2109 C942.096,374.1069 869.608,657.1469 833.088,803.1869 " fill="none" id="Engine-backto-EngineSettings" style="stroke:#181818;stroke-width:0.8000000000000002;"/><polygon fill="#181818" points="2132.112,174.6349,2127.2587,171.5163,2122.5134,174.7968,2127.3666,177.9154,2132.112,174.6349" style="stroke:#181818;stroke-width:0.8000000000000002;"/></g><!--reverse link Engine to Input--><g id="link_Engine_Input"><path codeLine="199" d="M2282.296,316.0669 C2282.296,372.2269 2282.296,430.3069 2282.296,478.3149 " fill="none" id="Engine-backto-Input" style="stroke:#181818;stroke-width:0.8000000000000002;"/><polygon fill="#181818" points="2282.296,311.2669,2279.096,318.4669,2282.296,315.2669,2285.496,318.4669,2282.296,311.2669" style="stroke:#181818;stroke-width:0.8000000000000002;"/></g><!--reverse link Engine to Box2DDebug--><g id="link_Engine_Box2DDebug"><path codeLine="200" d="M2392.5754,315.2383 C2403.4714,331.0863 2411.264,343.3069 2420.696,359.2109 C2453.256,414.1149 2482.328,482.7629 2498.264,522.8909 " fill="none" id="Engine-backto-Box2DDebug" style="stroke:#181818;stroke-width:0.8000000000000002;"/><polygon fill="#181818" points="2389.856,311.2829,2391.2982,319.0289,2392.1222,314.5791,2396.572,315.403,2389.856,311.2829" style="stroke:#181818;stroke-width:0.8000000000000002;"/></g><!--reverse link Engine to Renderer--><g id="link_Engine_Renderer"><path codeLine="201" d="M2128.3763,293.7565 C2030.5123,370.1485 1912.536,462.2429 1844.392,515.4349 " fill="none" id="Engine-backto-Renderer" style="stroke:#181818;stroke-width:0.8000000000000002;"/><polygon fill="#181818" points="2132.16,290.8029,2124.5154,292.7108,2129.0069,293.2642,2128.4534,297.7557,2132.16,290.8029" style="stroke:#181818;stroke-width:0.8000000000000002;"/></g><!--reverse link Engine to Time--><g id="link_Engine_Time"><path codeLine="202" d="M2436.6645,238.4462 C2495.3045,268.7422 2555.176,307.6509 2601.496,359.2109 C2647.472,410.3869 2672.752,489.5149 2683.384,530.2349 " fill="none" id="Engine-backto-Time" style="stroke:#181818;stroke-width:0.8000000000000002;"/><polygon fill="#181818" points="2432.4,236.2429,2437.3279,242.3908,2435.9537,238.079,2440.2655,236.7048,2432.4,236.2429" style="stroke:#181818;stroke-width:0.8000000000000002;"/></g><!--reverse link GameObject to Component--><g id="link_GameObject_Component"><path codeLine="204" d="M1189.1671,764.8184 C1189.4391,790.1384 1189.944,804.8269 1190.872,825.5789 " fill="none" id="GameObject-backto-Component" style="stroke:#181818;stroke-width:0.8000000000000002;"/><polygon fill="#181818" points="1189.064,755.2189,1185.9157,760.053,1189.1671,764.8184,1192.3154,759.9843,1189.064,755.2189" style="stroke:#181818;stroke-width:0.8000000000000002;"/></g><!--reverse link Component to GameObject--><g id="link_Component_GameObject"><path codeLine="207" d="M1208.2584,815.9899 C1209.2504,795.2379 1209.424,780.5389 1209.712,755.2189 " fill="none" id="Component-backto-GameObject" style="stroke:#181818;stroke-width:0.8000000000000002;"/><polygon fill="none" points="1207.8,825.5789,1211.2255,820.9372,1208.2584,815.9899,1204.8328,820.6316,1207.8,825.5789" style="stroke:#181818;stroke-width:0.8000000000000002;"/></g><!--reverse link Component to Sprite--><g id="link_Component_Sprite"><path codeLine="206" d="M1097.5557,853.6453 C1046.4037,832.2453 997.912,804.0029 959.096,755.2109 C845.04,611.8509 959.272,502.1549 844.696,359.2109 C804.44,308.9949 746.768,270.3549 690.36,241.6749 " fill="none" id="Component-backto-Sprite" style="stroke:#181818;stroke-width:0.8000000000000002;"/><polygon fill="none" points="1110.84,859.2029,1099.4082,849.2172,1095.7032,858.0734,1110.84,859.2029" style="stroke:#181818;stroke-width:0.8000000000000002;"/></g><!--reverse link Renderer to Shader--><g id="link_Renderer_Shader"><path codeLine="209" d="M1748.7818,606.068 C1671.8778,690.076 1491.44,876.7789 1301.496,995.2109 C1219.04,1046.6189 1109.12,1083.1709 1056.024,1099.0989 " fill="none" id="Renderer-backto-Shader" style="stroke:#181818;stroke-width:0.8000000000000002;"/><polygon fill="#181818" points="1755.264,598.9869,1749.6626,600.3667,1748.7818,606.068,1754.3832,604.6882,1755.264,598.9869" style="stroke:#181818;stroke-width:0.8000000000000002;"/></g><!--reverse link Sprite to AnimatedSprite--><g id="link_Sprite_AnimatedSprite"><path codeLine="211" d="M505.496,325.6669 C505.496,387.8269 505.496,443.8189 505.496,493.1709 " fill="none" id="Sprite-backto-AnimatedSprite" style="stroke:#181818;stroke-width:0.8000000000000002;"/><polygon fill="none" points="505.496,311.2669,500.696,325.6669,510.296,325.6669,505.496,311.2669" style="stroke:#181818;stroke-width:0.8000000000000002;"/></g><!--reverse link Sprite to SpriteSettings--><g id="link_Sprite_SpriteSettings"><path codeLine="212" d="M311.9294,235.5316 C251.9854,264.0196 200.784,301.0349 166.296,359.2109 C76.552,510.6109 98.944,592.6109 166.296,755.2109 C181.736,792.4829 213.176,824.7869 241.688,848.2829 " fill="none" id="Sprite-backto-SpriteSettings" style="stroke:#181818;stroke-width:0.8000000000000002;"/><polygon fill="#181818" points="320.6,231.4109,314.8911,230.5811,311.9294,235.5316,317.6382,236.3615,320.6,231.4109" style="stroke:#181818;stroke-width:0.8000000000000002;"/></g><!--reverse link Sprite to Texture--><g id="link_Sprite_Texture"><path codeLine="213" d="M311.3091,213.7113 C229.0291,240.4233 148.952,282.8109 99.896,359.2109 C4.8,507.3069 56.984,584.5229 99.896,755.2109 C129.408,872.6189 125.416,932.0589 228.696,995.2109 C244.32,1004.7629 540.52,997.1869 558.296,1001.6109 C600.6,1012.1309 644.12,1032.3149 680.52,1052.2989 " fill="none" id="Sprite-backto-Texture" style="stroke:#181818;stroke-width:0.8000000000000002;"/><polygon fill="none" points="320.44,210.7469,314.8865,209.1855,311.3091,213.7113,316.8627,215.2727,320.44,210.7469" style="stroke:#181818;stroke-width:0.8000000000000002;"/></g><!--reverse link Sprite to Renderer--><g id="link_Sprite_Renderer"><path codeLine="214" d="M695.0804,240.0119 C776.7364,266.3399 869.864,293.2509 959.896,311.2109 C1169.8,353.0909 1234.912,294.9869 1439.096,359.2109 C1551.88,394.6909 1669.04,468.8989 1735.952,515.4829 " fill="none" id="Sprite-backto-Renderer" style="stroke:#181818;stroke-width:0.8000000000000002;"/><polygon fill="#181818" points="690.512,238.5389,696.3826,243.794,694.319,239.7664,698.3466,237.7028,690.512,238.5389" style="stroke:#181818;stroke-width:0.8000000000000002;"/></g><!--reverse link SpriteSettings to Colour--><g id="link_SpriteSettings_Colour"><path codeLine="216" d="M347.0352,961.6479 C364.3952,987.8719 379.304,1010.4029 397.144,1037.3629 " fill="none" id="SpriteSettings-backto-Colour" style="stroke:#181818;stroke-width:0.8000000000000002;"/><polygon fill="#181818" points="341.736,953.6429,341.7173,959.4118,347.0352,961.6479,347.0539,955.879,341.736,953.6429" style="stroke:#181818;stroke-width:0.8000000000000002;"/></g><!--reverse link AnimatedSprite to AnimationSettings--><g id="link_AnimatedSprite_AnimationSettings"><path codeLine="218" d="M515.0185,630.9222 C522.0585,684.8582 530.96,753.0189 538.504,810.7709 " fill="none" id="AnimatedSprite-backto-AnimationSettings" style="stroke:#181818;stroke-width:0.8000000000000002;"/><polygon fill="#181818" points="513.776,621.4029,511.2242,626.5767,515.0185,630.9222,517.5703,625.7484,513.776,621.4029" style="stroke:#181818;stroke-width:0.8000000000000002;"/></g><!--SRC=[lHbTRzisyBdw5G8C17AQ5bWsxC7eIn8tgR5kAMAd1VPYqDPPrYgH6ad5SRlij-_u8Odwh5gqAz1QFDuTx_kEB2KfY8nimRzY73vxFlxP9aG8_pMDOWg-0Qa_ppyBIMIyVV9lG5xbd0ELIv0off48flxCBnOdtIGVOXgompB-11fxS_uUjkSzg8mduIAqU7RLnNP1OncJfE3vmEAm0sif2PV13QgwWZHBY8GJVnqvoq5QbWtnNb3yeYY4XE22H-BbovS-mLz5iZhj89Y3a9mTjJYtcxzWAq_zDTCV0yTSSS0JBbbu33RdwcSEEwJRc2zZ9mLUTEe0yfhmTmcX4EmIHgI_VY19FgWso1jE7cAfpbEEGeEPzJ3H7_3r1pc1aSTK_lJh6kaESIZtPtu5s4CSxUKOJgjO9X1i6Nh6t-u9Hpj91Hgc_PEnTApGAnP52RmNHxeDDemb_XeesJHEUDB_EXdb1g2JLvDc2FazCJGnSToIQz8TevFxB5GihKuX99AiudI4a2OiNH5Ld7N5s4JiIGOOWNfpQHULnIfkDcnNnmmmRCllCz_uoGGPfcN61AOqezEAoRyE5mTy4OPNBCqOnJeqQBVdgbwLcCtDEqZP0rJxvHU6pRRurWc6Zkub4xSxfKv7fK0njLs2Gj5tB3b6Z6fTzTUqCjvYYB0mBr8MPg_CDvOhsa9N4RTadFYV_yw17vzgQCLnmRJct9CQqZlhBgUaTpAxOofrIZnSTg9TKCmhZMEYjWjdCTS8gZByVBxkm5awOlL5LyjDIqV6WWW1ICCjk9F626nJZAX59zgA4ofsZATz0ftvtuF7IC5x2ycOYg4Hxu26m8FXKb8cXpj4E8deP7WNTEAKefbJbqx_RpqC4l3EMMZEoU62ngcsz3BZCPwxWaUPSr1zntmLdgaGYr59ERm1Av0DCmTJr003xKd9PEk1xTueoWDmt0HaZubZbl1unN8gpz1J2SkvgdVgzmkSlwJaryZTilM2Phdi6pf_WsE0V_trHpYsAt83SyuET3psVJOIzu8U2-R3YB-pN42W_xtCfMGKsvx-7K6csNyRAIhoROHOCfjpUUMTffiksUFvV0wRFEhqrKAyrlDGE6GZWsBdf_R4rGeDbS4zWQ6sbe3X5uggULWkJvxdqVAMCoUIkBSS6yMk5XOKb0rcZGaQmJLMNYAdRYkYm5MPqVcaSJwOeRK2lD53AuwnLCGHXR2OHx4yaNQQNUBuMjQYCRslft7NhrWrdCggHOtMcQ_LV_RiEKSgv6rNKMsrgQs8QsPS6qR65joQ8BA_cwgxJIqwYddpzWw8dKIY99tD7c3xYoiiefLElkOiVGEFGUcJCc3CmLwXMwKQ3YnOjfN_gNF9BUOrDmXCMORGL2ut5kexmGvci-zJtClcBT1PPxv9WfHy13rcJN-e1Fs7gLJ2eI6vvcWntHkqTvGJkwQig-CsiU4lL2VMPDRdkv95k-lYCJX8aZoHVQy1FOtPyLdRLyCMQYZTwOVfM6R3j2e5QotFl8uqscBJe9DwcsnHL8XijnCWEuncvLEPwSXT2NQTnDaRnkDFZAAJUojlYVjUZmnVmbI1O9BVc4MTRG0d_HC54jrgDPh3h56kaw1Xr6-SafPxTXXKwCTCbIC2_wbUgmeLsezoPOmuqMzVPpeUrlftpAE5ViPejUb3zPI2UyvZIeMoiqyzjOQhToZqRdrYB6r3pMccMzh-fbvzcWYwlpRtMuD2FIHS8vbeh3KDir5SeJgCf9Ax0xohvLBBV3idVLgR-exN65CQEhHAURihEPkc1gDsnNJFsQ7uf7cgwx9mAjGk4sqV87cUKb5rUGjMHRvg29tRoxBwDxUL84sOhBUOvdQziJJuMwKQGZNQH2sDhkC45hT-hTyBB36_4ue3MlUbxYqZOJ46cj0NCfpDXEHeRNNZ9dAltv5Q9RPaSK-JaKpAsAZrDoNslOmJqIdWwyTOI36ERPrIpLnAAiL_aDw1LcQjMUxLYnU51TeRfVoUP_yduHIXrIs-2IqUHbrulTeLEugxlYQwWEf2uaABcxiBKoNRyvot1NLIEHTwNlLgyUeVt375n86okXfU-JgW-DYPqxFJYUPGd-2AhTEITwcVtM6EMGi-hYvUexuP-NKzyngJx6bvl5CiFEy_]--></g></svg>