<?xml version="1.0" encoding="us-ascii" standalone="no"?><svg xmlns="http://www.w3.org/2000/svg" xmlns:xlink="http://www.w3.org/1999/xlink" contentStyleType="text/css" height="1498px" preserveAspectRatio="none" style="width:4179px;height:1498px;background:#FFFFFF;" version="1.1" viewBox="0 0 4179 1498" width="4179px" zoomAndPan="magnify"><defs/><g><!--cluster Core--><g id="cluster_Core"><path d="M1202.37,6.0137 L1237.37,6.0137 A3.75,3.75 0 0 1 1239.87,8.5137 L1246.87,30.6348 L3770.37,30.6348 A2.5,2.5 0 0 1 3772.87,33.1348 L3772.87,1205.5137 A2.5,2.5 0 0 1 3770.37,1208.0137 L1202.37,1208.0137 A2.5,2.5 0 0 1 1199.87,1205.5137 L1199.87,8.5137 A2.5,2.5 0 0 1 1202.37,6.0137 " fill="none" style="stroke:#000000;stroke-width:1.5;"/><line style="stroke:#000000;stroke-width:1.5;" x1="1199.87" x2="1246.87" y1="30.6348" y2="30.6348"/><text fill="#000000" font-family="sans-serif" font-size="14" font-weight="bold" lengthAdjust="spacing" textLength="34" x="1203.87" y="23.1211">Core</text></g><!--cluster Data--><g id="cluster_Data"><path d="M415.37,1260.0137 L447.37,1260.0137 A3.75,3.75 0 0 1 449.87,1262.5137 L456.87,1284.6348 L1333.37,1284.6348 A2.5,2.5 0 0 1 1335.87,1287.1348 L1335.87,1488.5137 A2.5,2.5 0 0 1 1333.37,1491.0137 L415.37,1491.0137 A2.5,2.5 0 0 1 412.87,1488.5137 L412.87,1262.5137 A2.5,2.5 0 0 1 415.37,1260.0137 " fill="none" style="stroke:#000000;stroke-width:1.5;"/><line style="stroke:#000000;stroke-width:1.5;" x1="412.87" x2="456.87" y1="1284.6348" y2="1284.6348"/><text fill="#000000" font-family="sans-serif" font-size="14" font-weight="bold" lengthAdjust="spacing" textLength="31" x="416.87" y="1277.1211">Data</text></g><!--cluster Components--><g id="cluster_Components"><path d="M211.37,6.0137 L301.37,6.0137 A3.75,3.75 0 0 1 303.87,8.5137 L310.87,30.6348 L1052.37,30.6348 A2.5,2.5 0 0 1 1054.87,33.1348 L1054.87,790.0137 A2.5,2.5 0 0 1 1052.37,792.5137 L211.37,792.5137 A2.5,2.5 0 0 1 208.87,790.0137 L208.87,8.5137 A2.5,2.5 0 0 1 211.37,6.0137 " fill="none" style="stroke:#000000;stroke-width:1.5;"/><line style="stroke:#000000;stroke-width:1.5;" x1="208.87" x2="310.87" y1="30.6348" y2="30.6348"/><text fill="#000000" font-family="sans-serif" font-size="14" font-weight="bold" lengthAdjust="spacing" textLength="89" x="212.87" y="23.1211">Components</text></g><!--cluster Settings--><g id="cluster_Settings"><path d="M288.37,967.0137 L347.37,967.0137 A3.75,3.75 0 0 1 349.87,969.5137 L356.87,991.6348 L1119.37,991.6348 A2.5,2.5 0 0 1 1121.87,994.1348 L1121.87,1233.5137 A2.5,2.5 0 0 1 1119.37,1236.0137 L288.37,1236.0137 A2.5,2.5 0 0 1 285.87,1233.5137 L285.87,969.5137 A2.5,2.5 0 0 1 288.37,967.0137 " fill="none" style="stroke:#000000;stroke-width:1.5;"/><line style="stroke:#000000;stroke-width:1.5;" x1="285.87" x2="356.87" y1="991.6348" y2="991.6348"/><text fill="#000000" font-family="sans-serif" font-size="14" font-weight="bold" lengthAdjust="spacing" textLength="58" x="289.87" y="984.1211">Settings</text></g><!--cluster FileIO--><g id="cluster_FileIO"><path d="M3799.37,1032.5137 L3841.37,1032.5137 A3.75,3.75 0 0 1 3843.87,1035.0137 L3850.87,1057.1348 L4170.37,1057.1348 A2.5,2.5 0 0 1 4172.87,1059.6348 L4172.87,1442.0137 A2.5,2.5 0 0 1 4170.37,1444.5137 L3799.37,1444.5137 A2.5,2.5 0 0 1 3796.87,1442.0137 L3796.87,1035.0137 A2.5,2.5 0 0 1 3799.37,1032.5137 " fill="none" style="stroke:#000000;stroke-width:1.5;"/><line style="stroke:#000000;stroke-width:1.5;" x1="3796.87" x2="3850.87" y1="1057.1348" y2="1057.1348"/><text fill="#000000" font-family="sans-serif" font-size="14" font-weight="bold" lengthAdjust="spacing" textLength="41" x="3800.87" y="1049.6211">FileIO</text></g><!--class Engine--><g id="elem_Engine"><rect codeLine="3" fill="#F1F1F1" height="345.9375" id="Engine" rx="2.5" ry="2.5" style="stroke:#181818;stroke-width:0.5;" width="375" x="2665.37" y="43.0137"/><ellipse cx="2826.62" cy="59.0137" fill="#ADD1B2" rx="11" ry="11" style="stroke:#181818;stroke-width:1.0;"/><path d="M2829.3856,54.8887 Q2829.5419,54.6699 2829.7294,54.5605 Q2829.9169,54.4512 2830.1356,54.4512 Q2830.5106,54.4512 2830.745,54.7168 Q2830.9794,54.9668 2830.9794,55.5762 L2830.9794,57.0293 Q2830.9794,57.6387 2830.745,57.9043 Q2830.5106,58.1699 2830.1356,58.1699 Q2829.7919,58.1699 2829.5888,57.9668 Q2829.3856,57.7793 2829.2763,57.2637 Q2829.2294,56.9043 2829.0419,56.7168 Q2828.7138,56.3418 2828.1044,56.123 Q2827.495,55.9043 2826.87,55.9043 Q2826.1044,55.9043 2825.4638,56.2324 Q2824.8388,56.5605 2824.3388,57.3105 Q2823.8544,58.0605 2823.8544,59.0918 L2823.8544,60.1855 Q2823.8544,61.4199 2824.745,62.248 Q2825.6356,63.0605 2827.2294,63.0605 Q2828.1669,63.0605 2828.8231,62.8105 Q2829.2138,62.6543 2829.6356,62.2168 Q2829.9013,61.9512 2830.0419,61.873 Q2830.1981,61.7949 2830.4013,61.7949 Q2830.7294,61.7949 2830.9794,62.0605 Q2831.245,62.3105 2831.245,62.6543 Q2831.245,62.998 2830.9013,63.4043 Q2830.4013,63.9824 2829.6044,64.3105 Q2828.5263,64.7637 2827.2294,64.7637 Q2825.7138,64.7637 2824.5106,64.1387 Q2823.5263,63.6387 2822.8388,62.5762 Q2822.1513,61.498 2822.1513,60.2168 L2822.1513,59.0605 Q2822.1513,57.7324 2822.7606,56.5918 Q2823.3856,55.4355 2824.4794,54.8262 Q2825.5731,54.2012 2826.8075,54.2012 Q2827.5419,54.2012 2828.1825,54.373 Q2828.8388,54.5293 2829.3856,54.8887 Z " fill="#000000"/><text fill="#000000" font-family="sans-serif" font-size="14" lengthAdjust="spacing" textLength="44" x="2847.12" y="64.8105">Engine</text><line style="stroke:#181818;stroke-width:0.5;" x1="2666.37" x2="3039.37" y1="75.0137" y2="75.0137"/><line style="stroke:#181818;stroke-width:0.5;" x1="2666.37" x2="3039.37" y1="83.0137" y2="83.0137"/><ellipse cx="2676.37" cy="97.8242" fill="#84BE84" rx="3" ry="3" style="stroke:#038048;stroke-width:1.0;"/><text fill="#000000" font-family="sans-serif" font-size="14" lengthAdjust="spacing" text-decoration="underline" textLength="204" x="2685.37" y="102.1211">GetCurrentSettings() : Settings&amp;</text><ellipse cx="2676.37" cy="116.4453" fill="#84BE84" rx="3" ry="3" style="stroke:#038048;stroke-width:1.0;"/><text fill="#000000" font-family="sans-serif" font-size="14" lengthAdjust="spacing" text-decoration="underline" textLength="168" x="2685.37" y="120.7422">GetWindowSize() : b2Vec2</text><ellipse cx="2676.37" cy="135.0664" fill="#84BE84" rx="3" ry="3" style="stroke:#038048;stroke-width:1.0;"/><text fill="#000000" font-family="sans-serif" font-size="14" lengthAdjust="spacing" text-decoration="underline" textLength="166" x="2685.37" y="139.3633">GetWorldId() : b2WorldId&amp;</text><ellipse cx="2676.37" cy="153.6875" fill="#84BE84" rx="3" ry="3" style="stroke:#038048;stroke-width:1.0;"/><text fill="#000000" font-family="sans-serif" font-size="14" lengthAdjust="spacing" text-decoration="underline" textLength="97" x="2685.37" y="157.9844">Initialize() : void</text><ellipse cx="2676.37" cy="172.3086" fill="#84BE84" rx="3" ry="3" style="stroke:#038048;stroke-width:1.0;"/><text fill="#000000" font-family="sans-serif" font-size="14" lengthAdjust="spacing" text-decoration="underline" textLength="290" x="2685.37" y="176.6055">Start(GameTemplate&amp; _gameTemplate) : void</text><ellipse cx="2676.37" cy="190.9297" fill="#84BE84" rx="3" ry="3" style="stroke:#038048;stroke-width:1.0;"/><text fill="#000000" font-family="sans-serif" font-size="14" lengthAdjust="spacing" text-decoration="underline" textLength="77" x="2685.37" y="195.2266">Stop() : void</text><ellipse cx="2676.37" cy="209.5508" fill="#84BE84" rx="3" ry="3" style="stroke:#038048;stroke-width:1.0;"/><text fill="#000000" font-family="sans-serif" font-size="14" lengthAdjust="spacing" text-decoration="underline" textLength="174" x="2685.37" y="213.8477">Instantiate(Args... args) : T*</text><ellipse cx="2676.37" cy="228.1719" fill="#84BE84" rx="3" ry="3" style="stroke:#038048;stroke-width:1.0;"/><text fill="#000000" font-family="sans-serif" font-size="14" lengthAdjust="spacing" text-decoration="underline" textLength="231" x="2685.37" y="232.4688">Destroy(GameObject* _object) : void</text><ellipse cx="2676.37" cy="246.793" fill="#84BE84" rx="3" ry="3" style="stroke:#038048;stroke-width:1.0;"/><text fill="#000000" font-family="sans-serif" font-size="14" lengthAdjust="spacing" text-decoration="underline" textLength="296" x="2685.37" y="251.0898">CreateBody(b2BodyDef* _bodyDef) : b2BodyId</text><ellipse cx="2676.37" cy="265.4141" fill="#84BE84" rx="3" ry="3" style="stroke:#038048;stroke-width:1.0;"/><text fill="#000000" font-family="sans-serif" font-size="14" lengthAdjust="spacing" text-decoration="underline" textLength="200" x="2685.37" y="269.7109">SetFarPlane(float _value) : void</text><ellipse cx="2676.37" cy="284.0352" fill="#84BE84" rx="3" ry="3" style="stroke:#038048;stroke-width:1.0;"/><text fill="#000000" font-family="sans-serif" font-size="14" lengthAdjust="spacing" text-decoration="underline" textLength="216" x="2685.37" y="288.332">SetGravity(b2Vec2 _gravity) : void</text><ellipse cx="2676.37" cy="302.6563" fill="#84BE84" rx="3" ry="3" style="stroke:#038048;stroke-width:1.0;"/><text fill="#000000" font-family="sans-serif" font-size="14" lengthAdjust="spacing" text-decoration="underline" textLength="208" x="2685.37" y="306.9531">SetNearPlane(float _value) : void</text><ellipse cx="2676.37" cy="321.2773" fill="#84BE84" rx="3" ry="3" style="stroke:#038048;stroke-width:1.0;"/><text fill="#000000" font-family="sans-serif" font-size="14" lengthAdjust="spacing" text-decoration="underline" textLength="349" x="2685.37" y="325.5742">SetWindowSize(uint16_t _width, uint16_t _height) : void</text><ellipse cx="2676.37" cy="339.8984" fill="#84BE84" rx="3" ry="3" style="stroke:#038048;stroke-width:1.0;"/><text fill="#000000" font-family="sans-serif" font-size="14" lengthAdjust="spacing" text-decoration="underline" textLength="250" x="2685.37" y="344.1953">SetWindowTitle(const char* _title) : void</text><ellipse cx="2676.37" cy="358.5195" fill="#84BE84" rx="3" ry="3" style="stroke:#038048;stroke-width:1.0;"/><text fill="#000000" font-family="sans-serif" font-size="14" lengthAdjust="spacing" text-decoration="underline" textLength="177" x="2685.37" y="362.8164">SetZoom(float _value) : void</text><ellipse cx="2676.37" cy="377.1406" fill="#84BE84" rx="3" ry="3" style="stroke:#038048;stroke-width:1.0;"/><text fill="#000000" font-family="sans-serif" font-size="14" lengthAdjust="spacing" text-decoration="underline" textLength="212" x="2685.37" y="381.4375">ToggleVsync(bool _enable) : void</text></g><!--class GameTemplate--><g id="elem_GameTemplate"><rect codeLine="22" fill="#F1F1F1" height="122.4844" id="GameTemplate" rx="2.5" ry="2.5" style="stroke:#181818;stroke-width:0.5;" width="220" x="3536.87" y="635.5137"/><ellipse cx="3594.12" cy="651.5137" fill="#ADD1B2" rx="11" ry="11" style="stroke:#181818;stroke-width:1.0;"/><path d="M3596.8856,647.3887 Q3597.0419,647.1699 3597.2294,647.0605 Q3597.4169,646.9512 3597.6356,646.9512 Q3598.0106,646.9512 3598.245,647.2168 Q3598.4794,647.4668 3598.4794,648.0762 L3598.4794,649.5293 Q3598.4794,650.1387 3598.245,650.4043 Q3598.0106,650.6699 3597.6356,650.6699 Q3597.2919,650.6699 3597.0888,650.4668 Q3596.8856,650.2793 3596.7763,649.7637 Q3596.7294,649.4043 3596.5419,649.2168 Q3596.2138,648.8418 3595.6044,648.623 Q3594.995,648.4043 3594.37,648.4043 Q3593.6044,648.4043 3592.9638,648.7324 Q3592.3388,649.0605 3591.8388,649.8105 Q3591.3544,650.5605 3591.3544,651.5918 L3591.3544,652.6855 Q3591.3544,653.9199 3592.245,654.748 Q3593.1356,655.5605 3594.7294,655.5605 Q3595.6669,655.5605 3596.3231,655.3105 Q3596.7138,655.1543 3597.1356,654.7168 Q3597.4013,654.4512 3597.5419,654.373 Q3597.6981,654.2949 3597.9013,654.2949 Q3598.2294,654.2949 3598.4794,654.5605 Q3598.745,654.8105 3598.745,655.1543 Q3598.745,655.498 3598.4013,655.9043 Q3597.9013,656.4824 3597.1044,656.8105 Q3596.0263,657.2637 3594.7294,657.2637 Q3593.2138,657.2637 3592.0106,656.6387 Q3591.0263,656.1387 3590.3388,655.0762 Q3589.6513,653.998 3589.6513,652.7168 L3589.6513,651.5605 Q3589.6513,650.2324 3590.2606,649.0918 Q3590.8856,647.9355 3591.9794,647.3262 Q3593.0731,646.7012 3594.3075,646.7012 Q3595.0419,646.7012 3595.6825,646.873 Q3596.3388,647.0293 3596.8856,647.3887 Z " fill="#000000"/><text fill="#000000" font-family="sans-serif" font-size="14" lengthAdjust="spacing" textLength="97" x="3614.62" y="657.3105">GameTemplate</text><line style="stroke:#181818;stroke-width:0.5;" x1="3537.87" x2="3755.87" y1="667.5137" y2="667.5137"/><line style="stroke:#181818;stroke-width:0.5;" x1="3537.87" x2="3755.87" y1="675.5137" y2="675.5137"/><polygon fill="#FFFF44" points="3547.87,685.3242,3551.87,689.3242,3547.87,693.3242,3543.87,689.3242" style="stroke:#B38D22;stroke-width:1.0;"/><text fill="#000000" font-family="sans-serif" font-size="14" lengthAdjust="spacing" textLength="178" x="3556.87" y="694.6211">Instantiate(Args ... args) : T*</text><polygon fill="#FFFF44" points="3547.87,703.9453,3551.87,707.9453,3547.87,711.9453,3543.87,707.9453" style="stroke:#B38D22;stroke-width:1.0;"/><text fill="#000000" font-family="sans-serif" font-size="14" lengthAdjust="spacing" textLength="78" x="3556.87" y="713.2422">Start() : void</text><polygon fill="#FFFF44" points="3547.87,722.5664,3551.87,726.5664,3547.87,730.5664,3543.87,726.5664" style="stroke:#B38D22;stroke-width:1.0;"/><text fill="#000000" font-family="sans-serif" font-size="14" lengthAdjust="spacing" textLength="77" x="3556.87" y="731.8633">Stop() : void</text><polygon fill="#FFFF44" points="3547.87,741.1875,3551.87,745.1875,3547.87,749.1875,3543.87,745.1875" style="stroke:#B38D22;stroke-width:1.0;"/><text fill="#000000" font-family="sans-serif" font-size="14" lengthAdjust="spacing" textLength="194" x="3556.87" y="750.4844">Update(float _deltaTime) : void</text></g><!--class GameObject--><g id="elem_GameObject"><rect codeLine="29" fill="#F1F1F1" height="494.9063" id="GameObject" rx="2.5" ry="2.5" style="stroke:#181818;stroke-width:0.5;" width="565" x="1216.37" y="449.0137"/><ellipse cx="1455.12" cy="465.0137" fill="#ADD1B2" rx="11" ry="11" style="stroke:#181818;stroke-width:1.0;"/><path d="M1457.8856,460.8887 Q1458.0419,460.6699 1458.2294,460.5605 Q1458.4169,460.4512 1458.6356,460.4512 Q1459.0106,460.4512 1459.245,460.7168 Q1459.4794,460.9668 1459.4794,461.5762 L1459.4794,463.0293 Q1459.4794,463.6387 1459.245,463.9043 Q1459.0106,464.1699 1458.6356,464.1699 Q1458.2919,464.1699 1458.0888,463.9668 Q1457.8856,463.7793 1457.7763,463.2637 Q1457.7294,462.9043 1457.5419,462.7168 Q1457.2138,462.3418 1456.6044,462.123 Q1455.995,461.9043 1455.37,461.9043 Q1454.6044,461.9043 1453.9638,462.2324 Q1453.3388,462.5605 1452.8388,463.3105 Q1452.3544,464.0605 1452.3544,465.0918 L1452.3544,466.1855 Q1452.3544,467.4199 1453.245,468.248 Q1454.1356,469.0605 1455.7294,469.0605 Q1456.6669,469.0605 1457.3231,468.8105 Q1457.7138,468.6543 1458.1356,468.2168 Q1458.4013,467.9512 1458.5419,467.873 Q1458.6981,467.7949 1458.9013,467.7949 Q1459.2294,467.7949 1459.4794,468.0605 Q1459.745,468.3105 1459.745,468.6543 Q1459.745,468.998 1459.4013,469.4043 Q1458.9013,469.9824 1458.1044,470.3105 Q1457.0263,470.7637 1455.7294,470.7637 Q1454.2138,470.7637 1453.0106,470.1387 Q1452.0263,469.6387 1451.3388,468.5762 Q1450.6513,467.498 1450.6513,466.2168 L1450.6513,465.0605 Q1450.6513,463.7324 1451.2606,462.5918 Q1451.8856,461.4355 1452.9794,460.8262 Q1454.0731,460.2012 1455.3075,460.2012 Q1456.0419,460.2012 1456.6825,460.373 Q1457.3388,460.5293 1457.8856,460.8887 Z " fill="#000000"/><text fill="#000000" font-family="sans-serif" font-size="14" lengthAdjust="spacing" textLength="79" x="1475.62" y="470.8105">GameObject</text><line style="stroke:#181818;stroke-width:0.5;" x1="1217.37" x2="1780.37" y1="481.0137" y2="481.0137"/><polygon fill="none" points="1227.37,490.8242,1231.37,494.8242,1227.37,498.8242,1223.37,494.8242" style="stroke:#B38D22;stroke-width:1.0;"/><text fill="#000000" font-family="sans-serif" font-size="14" lengthAdjust="spacing" textLength="102" x="1236.37" y="500.1211">body : b2BodyId</text><polygon fill="none" points="1227.37,509.4453,1231.37,513.4453,1227.37,517.4453,1223.37,513.4453" style="stroke:#B38D22;stroke-width:1.0;"/><text fill="#000000" font-family="sans-serif" font-size="14" lengthAdjust="spacing" textLength="152" x="1236.37" y="518.7422">shapeDef : b2ShapeDef</text><line style="stroke:#181818;stroke-width:0.5;" x1="1217.37" x2="1780.37" y1="526.2559" y2="526.2559"/><ellipse cx="1227.37" cy="541.0664" fill="#84BE84" rx="3" ry="3" style="stroke:#038048;stroke-width:1.0;"/><text fill="#000000" font-family="sans-serif" font-size="14" lengthAdjust="spacing" textLength="425" x="1236.37" y="545.3633">GameObject(b2BodyType _b2BodyType, const b2Vec2&amp; _position)</text><ellipse cx="1227.37" cy="559.6875" fill="#84BE84" rx="3" ry="3" style="stroke:#038048;stroke-width:1.0;"/><text fill="#000000" font-family="sans-serif" font-size="14" lengthAdjust="spacing" textLength="97" x="1236.37" y="563.9844">~GameObject()</text><ellipse cx="1227.37" cy="578.3086" fill="#84BE84" rx="3" ry="3" style="stroke:#038048;stroke-width:1.0;"/><text fill="#000000" font-family="sans-serif" font-size="14" lengthAdjust="spacing" textLength="211" x="1236.37" y="582.6055">AddComponent(Args ... args) : T*</text><ellipse cx="1227.37" cy="596.9297" fill="#84BE84" rx="3" ry="3" style="stroke:#038048;stroke-width:1.0;"/><text fill="#000000" font-family="sans-serif" font-size="14" lengthAdjust="spacing" textLength="132" x="1236.37" y="601.2266">GetComponent() : T*</text><ellipse cx="1227.37" cy="615.5508" fill="#84BE84" rx="3" ry="3" style="stroke:#038048;stroke-width:1.0;"/><text fill="#000000" font-family="sans-serif" font-size="14" lengthAdjust="spacing" textLength="334" x="1236.37" y="619.8477">RemoveComponent(Component* _component) : bool</text><ellipse cx="1227.37" cy="634.1719" fill="#84BE84" rx="3" ry="3" style="stroke:#038048;stroke-width:1.0;"/><text fill="#000000" font-family="sans-serif" font-size="14" lengthAdjust="spacing" textLength="227" x="1236.37" y="638.4688">RemoveComponentsOfType() : void</text><ellipse cx="1227.37" cy="652.793" fill="#84BE84" rx="3" ry="3" style="stroke:#038048;stroke-width:1.0;"/><text fill="#000000" font-family="sans-serif" font-size="14" lengthAdjust="spacing" textLength="332" x="1236.37" y="657.0898">AddShape(const b2Polygon&amp; _polygon) : b2ShapeId</text><ellipse cx="1227.37" cy="671.4141" fill="#84BE84" rx="3" ry="3" style="stroke:#038048;stroke-width:1.0;"/><text fill="#000000" font-family="sans-serif" font-size="14" lengthAdjust="spacing" textLength="539" x="1236.37" y="675.7109">AddShape(const b2ShapeDef&amp; _shapeDef, const b2Polygon&amp; _polygon) : b2ShapeId</text><ellipse cx="1227.37" cy="690.0352" fill="#84BE84" rx="3" ry="3" style="stroke:#038048;stroke-width:1.0;"/><text fill="#000000" font-family="sans-serif" font-size="14" lengthAdjust="spacing" textLength="195" x="1236.37" y="694.332">GetBody() : b2BodyId&amp; {query}</text><ellipse cx="1227.37" cy="708.6563" fill="#84BE84" rx="3" ry="3" style="stroke:#038048;stroke-width:1.0;"/><text fill="#000000" font-family="sans-serif" font-size="14" lengthAdjust="spacing" textLength="196" x="1236.37" y="712.9531">GetShapeDef() : b2ShapeDef&amp;</text><ellipse cx="1227.37" cy="727.2773" fill="#84BE84" rx="3" ry="3" style="stroke:#038048;stroke-width:1.0;"/><text fill="#000000" font-family="sans-serif" font-size="14" lengthAdjust="spacing" textLength="193" x="1236.37" y="731.5742">GetPosition() : b2Vec2 {query}</text><ellipse cx="1227.37" cy="745.8984" fill="#84BE84" rx="3" ry="3" style="stroke:#038048;stroke-width:1.0;"/><text fill="#000000" font-family="sans-serif" font-size="14" lengthAdjust="spacing" textLength="186" x="1236.37" y="750.1953">GetRotation() : b2Rot {query}</text><ellipse cx="1227.37" cy="764.5195" fill="#84BE84" rx="3" ry="3" style="stroke:#038048;stroke-width:1.0;"/><text fill="#000000" font-family="sans-serif" font-size="14" lengthAdjust="spacing" textLength="158" x="1236.37" y="768.8164">GetAngle() : float {query}</text><ellipse cx="1227.37" cy="783.1406" fill="#84BE84" rx="3" ry="3" style="stroke:#038048;stroke-width:1.0;"/><text fill="#000000" font-family="sans-serif" font-size="14" lengthAdjust="spacing" textLength="159" x="1236.37" y="787.4375">GetID() : uint32_t {query}</text><ellipse cx="1227.37" cy="801.7617" fill="#84BE84" rx="3" ry="3" style="stroke:#038048;stroke-width:1.0;"/><text fill="#000000" font-family="sans-serif" font-size="14" lengthAdjust="spacing" textLength="275" x="1236.37" y="806.0586">SetPosition(const b2Vec2&amp; _position) : void</text><ellipse cx="1227.37" cy="820.3828" fill="#84BE84" rx="3" ry="3" style="stroke:#038048;stroke-width:1.0;"/><text fill="#000000" font-family="sans-serif" font-size="14" lengthAdjust="spacing" textLength="267" x="1236.37" y="824.6797">SetRotation(const b2Rot&amp; _rotation) : void</text><ellipse cx="1227.37" cy="839.0039" fill="#84BE84" rx="3" ry="3" style="stroke:#038048;stroke-width:1.0;"/><text fill="#000000" font-family="sans-serif" font-size="14" lengthAdjust="spacing" textLength="179" x="1236.37" y="843.3008">SetAngle(float _angle) : void</text><ellipse cx="1227.37" cy="857.625" fill="#84BE84" rx="3" ry="3" style="stroke:#038048;stroke-width:1.0;"/><text fill="#000000" font-family="sans-serif" font-size="14" lengthAdjust="spacing" textLength="372" x="1236.37" y="861.9219">SetTransform(const b2Vec2&amp; _position, float _angle) : void</text><ellipse cx="1227.37" cy="876.2461" fill="#84BE84" rx="3" ry="3" style="stroke:#038048;stroke-width:1.0;"/><text fill="#000000" font-family="sans-serif" font-size="14" lengthAdjust="spacing" textLength="443" x="1236.37" y="880.543">SetTransform(const b2Vec2&amp; _position, const b2Rot&amp; _rotation) : void</text><polygon fill="#FFFF44" points="1227.37,889.8672,1231.37,893.8672,1227.37,897.8672,1223.37,893.8672" style="stroke:#B38D22;stroke-width:1.0;"/><text fill="#000000" font-family="sans-serif" font-size="14" lengthAdjust="spacing" textLength="78" x="1236.37" y="899.1641">Start() : void</text><polygon fill="#FFFF44" points="1227.37,908.4883,1231.37,912.4883,1227.37,916.4883,1223.37,912.4883" style="stroke:#B38D22;stroke-width:1.0;"/><text fill="#000000" font-family="sans-serif" font-size="14" lengthAdjust="spacing" textLength="194" x="1236.37" y="917.7852">Update(float _deltaTime) : void</text><polygon fill="#FFFF44" points="1227.37,927.1094,1231.37,931.1094,1227.37,935.1094,1223.37,931.1094" style="stroke:#B38D22;stroke-width:1.0;"/><text fill="#000000" font-family="sans-serif" font-size="14" lengthAdjust="spacing" textLength="95" x="1236.37" y="936.4063">Render() : void</text></g><!--class Component--><g id="elem_Component"><rect codeLine="56" fill="#F1F1F1" height="159.7266" id="Component" rx="2.5" ry="2.5" style="stroke:#181818;stroke-width:0.5;" width="220" x="1388.87" y="1032.0137"/><ellipse cx="1458.12" cy="1048.0137" fill="#ADD1B2" rx="11" ry="11" style="stroke:#181818;stroke-width:1.0;"/><path d="M1460.8856,1043.8887 Q1461.0419,1043.6699 1461.2294,1043.5605 Q1461.4169,1043.4512 1461.6356,1043.4512 Q1462.0106,1043.4512 1462.245,1043.7168 Q1462.4794,1043.9668 1462.4794,1044.5762 L1462.4794,1046.0293 Q1462.4794,1046.6387 1462.245,1046.9043 Q1462.0106,1047.1699 1461.6356,1047.1699 Q1461.2919,1047.1699 1461.0888,1046.9668 Q1460.8856,1046.7793 1460.7763,1046.2637 Q1460.7294,1045.9043 1460.5419,1045.7168 Q1460.2138,1045.3418 1459.6044,1045.123 Q1458.995,1044.9043 1458.37,1044.9043 Q1457.6044,1044.9043 1456.9638,1045.2324 Q1456.3388,1045.5605 1455.8388,1046.3105 Q1455.3544,1047.0605 1455.3544,1048.0918 L1455.3544,1049.1855 Q1455.3544,1050.4199 1456.245,1051.248 Q1457.1356,1052.0605 1458.7294,1052.0605 Q1459.6669,1052.0605 1460.3231,1051.8105 Q1460.7138,1051.6543 1461.1356,1051.2168 Q1461.4013,1050.9512 1461.5419,1050.873 Q1461.6981,1050.7949 1461.9013,1050.7949 Q1462.2294,1050.7949 1462.4794,1051.0605 Q1462.745,1051.3105 1462.745,1051.6543 Q1462.745,1051.998 1462.4013,1052.4043 Q1461.9013,1052.9824 1461.1044,1053.3105 Q1460.0263,1053.7637 1458.7294,1053.7637 Q1457.2138,1053.7637 1456.0106,1053.1387 Q1455.0263,1052.6387 1454.3388,1051.5762 Q1453.6513,1050.498 1453.6513,1049.2168 L1453.6513,1048.0605 Q1453.6513,1046.7324 1454.2606,1045.5918 Q1454.8856,1044.4355 1455.9794,1043.8262 Q1457.0731,1043.2012 1458.3075,1043.2012 Q1459.0419,1043.2012 1459.6825,1043.373 Q1460.3388,1043.5293 1460.8856,1043.8887 Z " fill="#000000"/><text fill="#000000" font-family="sans-serif" font-size="14" lengthAdjust="spacing" textLength="73" x="1478.62" y="1053.8105">Component</text><line style="stroke:#181818;stroke-width:0.5;" x1="1389.87" x2="1607.87" y1="1064.0137" y2="1064.0137"/><polygon fill="none" points="1399.87,1073.8242,1403.87,1077.8242,1399.87,1081.8242,1395.87,1077.8242" style="stroke:#B38D22;stroke-width:1.0;"/><text fill="#000000" font-family="sans-serif" font-size="14" lengthAdjust="spacing" textLength="175" x="1408.87" y="1083.1211">GameObject : GameObject*</text><line style="stroke:#181818;stroke-width:0.5;" x1="1389.87" x2="1607.87" y1="1090.6348" y2="1090.6348"/><ellipse cx="1399.87" cy="1105.4453" fill="#84BE84" rx="3" ry="3" style="stroke:#038048;stroke-width:1.0;"/><text fill="#000000" font-family="sans-serif" font-size="14" lengthAdjust="spacing" textLength="83" x="1408.87" y="1109.7422">Component()</text><ellipse cx="1399.87" cy="1124.0664" fill="#84BE84" rx="3" ry="3" style="stroke:#038048;stroke-width:1.0;"/><text fill="#000000" font-family="sans-serif" font-size="14" lengthAdjust="spacing" textLength="91" x="1408.87" y="1128.3633">~Component()</text><polygon fill="#FFFF44" points="1399.87,1137.6875,1403.87,1141.6875,1399.87,1145.6875,1395.87,1141.6875" style="stroke:#B38D22;stroke-width:1.0;"/><text fill="#000000" font-family="sans-serif" font-size="14" lengthAdjust="spacing" textLength="78" x="1408.87" y="1146.9844">Start() : void</text><polygon fill="#FFFF44" points="1399.87,1156.3086,1403.87,1160.3086,1399.87,1164.3086,1395.87,1160.3086" style="stroke:#B38D22;stroke-width:1.0;"/><text fill="#000000" font-family="sans-serif" font-size="14" lengthAdjust="spacing" textLength="194" x="1408.87" y="1165.6055">Update(float _deltaTime) : void</text><polygon fill="#FFFF44" points="1399.87,1174.9297,1403.87,1178.9297,1399.87,1182.9297,1395.87,1178.9297" style="stroke:#B38D22;stroke-width:1.0;"/><text fill="#000000" font-family="sans-serif" font-size="14" lengthAdjust="spacing" textLength="95" x="1408.87" y="1184.2266">Render() : void</text></g><!--class Renderer--><g id="elem_Renderer"><rect codeLine="65" fill="#F1F1F1" height="103.8633" id="Renderer" rx="2.5" ry="2.5" style="stroke:#181818;stroke-width:0.5;" width="846" x="1816.87" y="644.5137"/><ellipse cx="2205.62" cy="660.5137" fill="#ADD1B2" rx="11" ry="11" style="stroke:#181818;stroke-width:1.0;"/><path d="M2208.3856,656.3887 Q2208.5419,656.1699 2208.7294,656.0605 Q2208.9169,655.9512 2209.1356,655.9512 Q2209.5106,655.9512 2209.745,656.2168 Q2209.9794,656.4668 2209.9794,657.0762 L2209.9794,658.5293 Q2209.9794,659.1387 2209.745,659.4043 Q2209.5106,659.6699 2209.1356,659.6699 Q2208.7919,659.6699 2208.5888,659.4668 Q2208.3856,659.2793 2208.2763,658.7637 Q2208.2294,658.4043 2208.0419,658.2168 Q2207.7138,657.8418 2207.1044,657.623 Q2206.495,657.4043 2205.87,657.4043 Q2205.1044,657.4043 2204.4638,657.7324 Q2203.8388,658.0605 2203.3388,658.8105 Q2202.8544,659.5605 2202.8544,660.5918 L2202.8544,661.6855 Q2202.8544,662.9199 2203.745,663.748 Q2204.6356,664.5605 2206.2294,664.5605 Q2207.1669,664.5605 2207.8231,664.3105 Q2208.2138,664.1543 2208.6356,663.7168 Q2208.9013,663.4512 2209.0419,663.373 Q2209.1981,663.2949 2209.4013,663.2949 Q2209.7294,663.2949 2209.9794,663.5605 Q2210.245,663.8105 2210.245,664.1543 Q2210.245,664.498 2209.9013,664.9043 Q2209.4013,665.4824 2208.6044,665.8105 Q2207.5263,666.2637 2206.2294,666.2637 Q2204.7138,666.2637 2203.5106,665.6387 Q2202.5263,665.1387 2201.8388,664.0762 Q2201.1513,662.998 2201.1513,661.7168 L2201.1513,660.5605 Q2201.1513,659.2324 2201.7606,658.0918 Q2202.3856,656.9355 2203.4794,656.3262 Q2204.5731,655.7012 2205.8075,655.7012 Q2206.5419,655.7012 2207.1825,655.873 Q2207.8388,656.0293 2208.3856,656.3887 Z " fill="#000000"/><text fill="#000000" font-family="sans-serif" font-size="14" lengthAdjust="spacing" textLength="60" x="2226.12" y="666.3105">Renderer</text><line style="stroke:#181818;stroke-width:0.5;" x1="1817.87" x2="2661.87" y1="676.5137" y2="676.5137"/><line style="stroke:#181818;stroke-width:0.5;" x1="1817.87" x2="2661.87" y1="684.5137" y2="684.5137"/><ellipse cx="1827.87" cy="699.3242" fill="#84BE84" rx="3" ry="3" style="stroke:#038048;stroke-width:1.0;"/><text fill="#000000" font-family="sans-serif" font-size="14" lengthAdjust="spacing" text-decoration="underline" textLength="820" x="1836.87" y="703.6211">DrawAnimationSprite(Texture* _texture, const AnimationSettings&amp; _animationSettings, const SpriteSettings&amp; _spriteSettings) : void</text><ellipse cx="1827.87" cy="717.9453" fill="#84BE84" rx="3" ry="3" style="stroke:#038048;stroke-width:1.0;"/><text fill="#000000" font-family="sans-serif" font-size="14" lengthAdjust="spacing" text-decoration="underline" textLength="457" x="1836.87" y="722.2422">DrawPolygon(b2Vec2* _vertices, int _vertexCount, Colour _colour) : void</text><ellipse cx="1827.87" cy="736.5664" fill="#84BE84" rx="3" ry="3" style="stroke:#038048;stroke-width:1.0;"/><text fill="#000000" font-family="sans-serif" font-size="14" lengthAdjust="spacing" text-decoration="underline" textLength="466" x="1836.87" y="740.8633">DrawSprite(Texture* _texture, const SpriteSettings&amp; _spriteSettings) : void</text></g><!--class Input--><g id="elem_Input"><rect codeLine="71" fill="#F1F1F1" height="196.9688" id="Input" rx="2.5" ry="2.5" style="stroke:#181818;stroke-width:0.5;" width="310" x="2697.87" y="598.0137"/><ellipse cx="2833.12" cy="614.0137" fill="#ADD1B2" rx="11" ry="11" style="stroke:#181818;stroke-width:1.0;"/><path d="M2835.8856,609.8887 Q2836.0419,609.6699 2836.2294,609.5605 Q2836.4169,609.4512 2836.6356,609.4512 Q2837.0106,609.4512 2837.245,609.7168 Q2837.4794,609.9668 2837.4794,610.5762 L2837.4794,612.0293 Q2837.4794,612.6387 2837.245,612.9043 Q2837.0106,613.1699 2836.6356,613.1699 Q2836.2919,613.1699 2836.0888,612.9668 Q2835.8856,612.7793 2835.7763,612.2637 Q2835.7294,611.9043 2835.5419,611.7168 Q2835.2138,611.3418 2834.6044,611.123 Q2833.995,610.9043 2833.37,610.9043 Q2832.6044,610.9043 2831.9638,611.2324 Q2831.3388,611.5605 2830.8388,612.3105 Q2830.3544,613.0605 2830.3544,614.0918 L2830.3544,615.1855 Q2830.3544,616.4199 2831.245,617.248 Q2832.1356,618.0605 2833.7294,618.0605 Q2834.6669,618.0605 2835.3231,617.8105 Q2835.7138,617.6543 2836.1356,617.2168 Q2836.4013,616.9512 2836.5419,616.873 Q2836.6981,616.7949 2836.9013,616.7949 Q2837.2294,616.7949 2837.4794,617.0605 Q2837.745,617.3105 2837.745,617.6543 Q2837.745,617.998 2837.4013,618.4043 Q2836.9013,618.9824 2836.1044,619.3105 Q2835.0263,619.7637 2833.7294,619.7637 Q2832.2138,619.7637 2831.0106,619.1387 Q2830.0263,618.6387 2829.3388,617.5762 Q2828.6513,616.498 2828.6513,615.2168 L2828.6513,614.0605 Q2828.6513,612.7324 2829.2606,611.5918 Q2829.8856,610.4355 2830.9794,609.8262 Q2832.0731,609.2012 2833.3075,609.2012 Q2834.0419,609.2012 2834.6825,609.373 Q2835.3388,609.5293 2835.8856,609.8887 Z " fill="#000000"/><text fill="#000000" font-family="sans-serif" font-size="14" lengthAdjust="spacing" textLength="31" x="2853.62" y="619.8105">Input</text><line style="stroke:#181818;stroke-width:0.5;" x1="2698.87" x2="3006.87" y1="630.0137" y2="630.0137"/><line style="stroke:#181818;stroke-width:0.5;" x1="2698.87" x2="3006.87" y1="638.0137" y2="638.0137"/><ellipse cx="2708.87" cy="652.8242" fill="#84BE84" rx="3" ry="3" style="stroke:#038048;stroke-width:1.0;"/><text fill="#000000" font-family="sans-serif" font-size="14" lengthAdjust="spacing" text-decoration="underline" textLength="154" x="2717.87" y="657.1211">GetKey(Key _key) : bool</text><ellipse cx="2708.87" cy="671.4453" fill="#84BE84" rx="3" ry="3" style="stroke:#038048;stroke-width:1.0;"/><text fill="#000000" font-family="sans-serif" font-size="14" lengthAdjust="spacing" text-decoration="underline" textLength="189" x="2717.87" y="675.7422">GetKeyDown(Key _key) : bool</text><ellipse cx="2708.87" cy="690.0664" fill="#84BE84" rx="3" ry="3" style="stroke:#038048;stroke-width:1.0;"/><text fill="#000000" font-family="sans-serif" font-size="14" lengthAdjust="spacing" text-decoration="underline" textLength="171" x="2717.87" y="694.3633">GetKeyUp(Key _key) : bool</text><ellipse cx="2708.87" cy="708.6875" fill="#84BE84" rx="3" ry="3" style="stroke:#038048;stroke-width:1.0;"/><text fill="#000000" font-family="sans-serif" font-size="14" lengthAdjust="spacing" text-decoration="underline" textLength="155" x="2717.87" y="712.9844">GetAnyKeyDown() : bool</text><ellipse cx="2708.87" cy="727.3086" fill="#84BE84" rx="3" ry="3" style="stroke:#038048;stroke-width:1.0;"/><text fill="#000000" font-family="sans-serif" font-size="14" lengthAdjust="spacing" text-decoration="underline" textLength="249" x="2717.87" y="731.6055">GetMouse(MouseButton _button) : bool</text><ellipse cx="2708.87" cy="745.9297" fill="#84BE84" rx="3" ry="3" style="stroke:#038048;stroke-width:1.0;"/><text fill="#000000" font-family="sans-serif" font-size="14" lengthAdjust="spacing" text-decoration="underline" textLength="284" x="2717.87" y="750.2266">GetMouseDown(MouseButton _button) : bool</text><ellipse cx="2708.87" cy="764.5508" fill="#84BE84" rx="3" ry="3" style="stroke:#038048;stroke-width:1.0;"/><text fill="#000000" font-family="sans-serif" font-size="14" lengthAdjust="spacing" text-decoration="underline" textLength="266" x="2717.87" y="768.8477">GetMouseUp(MouseButton _button) : bool</text><ellipse cx="2708.87" cy="783.1719" fill="#84BE84" rx="3" ry="3" style="stroke:#038048;stroke-width:1.0;"/><text fill="#000000" font-family="sans-serif" font-size="14" lengthAdjust="spacing" text-decoration="underline" textLength="159" x="2717.87" y="787.4688">GetMousePos() : b2Vec2</text></g><!--class Box2DDebug--><g id="elem_Box2DDebug"><rect codeLine="84" fill="#F1F1F1" height="159.7266" id="Box2DDebug" rx="2.5" ry="2.5" style="stroke:#181818;stroke-width:0.5;" width="239" x="3043.37" y="616.5137"/><ellipse cx="3117.12" cy="632.5137" fill="#ADD1B2" rx="11" ry="11" style="stroke:#181818;stroke-width:1.0;"/><path d="M3119.8856,628.3887 Q3120.0419,628.1699 3120.2294,628.0605 Q3120.4169,627.9512 3120.6356,627.9512 Q3121.0106,627.9512 3121.245,628.2168 Q3121.4794,628.4668 3121.4794,629.0762 L3121.4794,630.5293 Q3121.4794,631.1387 3121.245,631.4043 Q3121.0106,631.6699 3120.6356,631.6699 Q3120.2919,631.6699 3120.0888,631.4668 Q3119.8856,631.2793 3119.7763,630.7637 Q3119.7294,630.4043 3119.5419,630.2168 Q3119.2138,629.8418 3118.6044,629.623 Q3117.995,629.4043 3117.37,629.4043 Q3116.6044,629.4043 3115.9638,629.7324 Q3115.3388,630.0605 3114.8388,630.8105 Q3114.3544,631.5605 3114.3544,632.5918 L3114.3544,633.6855 Q3114.3544,634.9199 3115.245,635.748 Q3116.1356,636.5605 3117.7294,636.5605 Q3118.6669,636.5605 3119.3231,636.3105 Q3119.7138,636.1543 3120.1356,635.7168 Q3120.4013,635.4512 3120.5419,635.373 Q3120.6981,635.2949 3120.9013,635.2949 Q3121.2294,635.2949 3121.4794,635.5605 Q3121.745,635.8105 3121.745,636.1543 Q3121.745,636.498 3121.4013,636.9043 Q3120.9013,637.4824 3120.1044,637.8105 Q3119.0263,638.2637 3117.7294,638.2637 Q3116.2138,638.2637 3115.0106,637.6387 Q3114.0263,637.1387 3113.3388,636.0762 Q3112.6513,634.998 3112.6513,633.7168 L3112.6513,632.5605 Q3112.6513,631.2324 3113.2606,630.0918 Q3113.8856,628.9355 3114.9794,628.3262 Q3116.0731,627.7012 3117.3075,627.7012 Q3118.0419,627.7012 3118.6825,627.873 Q3119.3388,628.0293 3119.8856,628.3887 Z " fill="#000000"/><text fill="#000000" font-family="sans-serif" font-size="14" lengthAdjust="spacing" textLength="83" x="3137.62" y="638.3105">Box2DDebug</text><line style="stroke:#181818;stroke-width:0.5;" x1="3044.37" x2="3281.37" y1="648.5137" y2="648.5137"/><line style="stroke:#181818;stroke-width:0.5;" x1="3044.37" x2="3281.37" y1="656.5137" y2="656.5137"/><ellipse cx="3054.37" cy="671.3242" fill="#84BE84" rx="3" ry="3" style="stroke:#038048;stroke-width:1.0;"/><text fill="#000000" font-family="sans-serif" font-size="14" lengthAdjust="spacing" text-decoration="underline" textLength="111" x="3063.37" y="675.6211">IsEnabled() : bool</text><ellipse cx="3054.37" cy="689.9453" fill="#84BE84" rx="3" ry="3" style="stroke:#038048;stroke-width:1.0;"/><text fill="#000000" font-family="sans-serif" font-size="14" lengthAdjust="spacing" text-decoration="underline" textLength="147" x="3063.37" y="694.2422">IsAABBEnabled() : bool</text><ellipse cx="3054.37" cy="708.5664" fill="#84BE84" rx="3" ry="3" style="stroke:#038048;stroke-width:1.0;"/><text fill="#000000" font-family="sans-serif" font-size="14" lengthAdjust="spacing" text-decoration="underline" textLength="159" x="3063.37" y="712.8633">IsShapesEnabled() : bool</text><ellipse cx="3054.37" cy="727.1875" fill="#84BE84" rx="3" ry="3" style="stroke:#038048;stroke-width:1.0;"/><text fill="#000000" font-family="sans-serif" font-size="14" lengthAdjust="spacing" text-decoration="underline" textLength="165" x="3063.37" y="731.4844">Enable(bool _value) : void</text><ellipse cx="3054.37" cy="745.8086" fill="#84BE84" rx="3" ry="3" style="stroke:#038048;stroke-width:1.0;"/><text fill="#000000" font-family="sans-serif" font-size="14" lengthAdjust="spacing" text-decoration="underline" textLength="201" x="3063.37" y="750.1055">EnableAABB(bool _value) : void</text><ellipse cx="3054.37" cy="764.4297" fill="#84BE84" rx="3" ry="3" style="stroke:#038048;stroke-width:1.0;"/><text fill="#000000" font-family="sans-serif" font-size="14" lengthAdjust="spacing" text-decoration="underline" textLength="213" x="3063.37" y="768.7266">EnableShapes(bool _value) : void</text></g><!--class Time--><g id="elem_Time"><rect codeLine="93" fill="#F1F1F1" height="66.6211" id="Time" rx="2.5" ry="2.5" style="stroke:#181818;stroke-width:0.5;" width="184" x="3317.87" y="663.0137"/><ellipse cx="3390.12" cy="679.0137" fill="#ADD1B2" rx="11" ry="11" style="stroke:#181818;stroke-width:1.0;"/><path d="M3392.8856,674.8887 Q3393.0419,674.6699 3393.2294,674.5605 Q3393.4169,674.4512 3393.6356,674.4512 Q3394.0106,674.4512 3394.245,674.7168 Q3394.4794,674.9668 3394.4794,675.5762 L3394.4794,677.0293 Q3394.4794,677.6387 3394.245,677.9043 Q3394.0106,678.1699 3393.6356,678.1699 Q3393.2919,678.1699 3393.0888,677.9668 Q3392.8856,677.7793 3392.7763,677.2637 Q3392.7294,676.9043 3392.5419,676.7168 Q3392.2138,676.3418 3391.6044,676.123 Q3390.995,675.9043 3390.37,675.9043 Q3389.6044,675.9043 3388.9638,676.2324 Q3388.3388,676.5605 3387.8388,677.3105 Q3387.3544,678.0605 3387.3544,679.0918 L3387.3544,680.1855 Q3387.3544,681.4199 3388.245,682.248 Q3389.1356,683.0605 3390.7294,683.0605 Q3391.6669,683.0605 3392.3231,682.8105 Q3392.7138,682.6543 3393.1356,682.2168 Q3393.4013,681.9512 3393.5419,681.873 Q3393.6981,681.7949 3393.9013,681.7949 Q3394.2294,681.7949 3394.4794,682.0605 Q3394.745,682.3105 3394.745,682.6543 Q3394.745,682.998 3394.4013,683.4043 Q3393.9013,683.9824 3393.1044,684.3105 Q3392.0263,684.7637 3390.7294,684.7637 Q3389.2138,684.7637 3388.0106,684.1387 Q3387.0263,683.6387 3386.3388,682.5762 Q3385.6513,681.498 3385.6513,680.2168 L3385.6513,679.0605 Q3385.6513,677.7324 3386.2606,676.5918 Q3386.8856,675.4355 3387.9794,674.8262 Q3389.0731,674.2012 3390.3075,674.2012 Q3391.0419,674.2012 3391.6825,674.373 Q3392.3388,674.5293 3392.8856,674.8887 Z " fill="#000000"/><text fill="#000000" font-family="sans-serif" font-size="14" lengthAdjust="spacing" textLength="31" x="3410.62" y="684.8105">Time</text><line style="stroke:#181818;stroke-width:0.5;" x1="3318.87" x2="3500.87" y1="695.0137" y2="695.0137"/><line style="stroke:#181818;stroke-width:0.5;" x1="3318.87" x2="3500.87" y1="703.0137" y2="703.0137"/><ellipse cx="3328.87" cy="717.8242" fill="#84BE84" rx="3" ry="3" style="stroke:#038048;stroke-width:1.0;"/><text fill="#000000" font-family="sans-serif" font-size="14" lengthAdjust="spacing" text-decoration="underline" textLength="158" x="3337.87" y="722.1211">GetTimeSeconds() : float</text></g><!--class Texture--><g id="elem_Texture"><rect codeLine="100" fill="#F1F1F1" height="141.1055" id="Texture" rx="2.5" ry="2.5" style="stroke:#181818;stroke-width:0.5;" width="491" x="715.37" y="1315.5137"/><ellipse cx="932.62" cy="1331.5137" fill="#ADD1B2" rx="11" ry="11" style="stroke:#181818;stroke-width:1.0;"/><path d="M935.3856,1327.3887 Q935.5419,1327.1699 935.7294,1327.0605 Q935.9169,1326.9512 936.1356,1326.9512 Q936.5106,1326.9512 936.745,1327.2168 Q936.9794,1327.4668 936.9794,1328.0762 L936.9794,1329.5293 Q936.9794,1330.1387 936.745,1330.4043 Q936.5106,1330.6699 936.1356,1330.6699 Q935.7919,1330.6699 935.5888,1330.4668 Q935.3856,1330.2793 935.2763,1329.7637 Q935.2294,1329.4043 935.0419,1329.2168 Q934.7138,1328.8418 934.1044,1328.623 Q933.495,1328.4043 932.87,1328.4043 Q932.1044,1328.4043 931.4638,1328.7324 Q930.8388,1329.0605 930.3388,1329.8105 Q929.8544,1330.5605 929.8544,1331.5918 L929.8544,1332.6855 Q929.8544,1333.9199 930.745,1334.748 Q931.6356,1335.5605 933.2294,1335.5605 Q934.1669,1335.5605 934.8231,1335.3105 Q935.2138,1335.1543 935.6356,1334.7168 Q935.9013,1334.4512 936.0419,1334.373 Q936.1981,1334.2949 936.4013,1334.2949 Q936.7294,1334.2949 936.9794,1334.5605 Q937.245,1334.8105 937.245,1335.1543 Q937.245,1335.498 936.9013,1335.9043 Q936.4013,1336.4824 935.6044,1336.8105 Q934.5263,1337.2637 933.2294,1337.2637 Q931.7138,1337.2637 930.5106,1336.6387 Q929.5263,1336.1387 928.8388,1335.0762 Q928.1513,1333.998 928.1513,1332.7168 L928.1513,1331.5605 Q928.1513,1330.2324 928.7606,1329.0918 Q929.3856,1327.9355 930.4794,1327.3262 Q931.5731,1326.7012 932.8075,1326.7012 Q933.5419,1326.7012 934.1825,1326.873 Q934.8388,1327.0293 935.3856,1327.3887 Z " fill="#000000"/><text fill="#000000" font-family="sans-serif" font-size="14" lengthAdjust="spacing" textLength="48" x="953.12" y="1337.3105">Texture</text><line style="stroke:#181818;stroke-width:0.5;" x1="716.37" x2="1205.37" y1="1347.5137" y2="1347.5137"/><line style="stroke:#181818;stroke-width:0.5;" x1="716.37" x2="1205.37" y1="1355.5137" y2="1355.5137"/><ellipse cx="726.37" cy="1370.3242" fill="#84BE84" rx="3" ry="3" style="stroke:#038048;stroke-width:1.0;"/><text fill="#000000" font-family="sans-serif" font-size="14" lengthAdjust="spacing" textLength="204" x="735.37" y="1374.6211">Texture(uint32_t _imageFormat)</text><ellipse cx="726.37" cy="1388.9453" fill="#84BE84" rx="3" ry="3" style="stroke:#038048;stroke-width:1.0;"/><text fill="#000000" font-family="sans-serif" font-size="14" lengthAdjust="spacing" textLength="465" x="735.37" y="1393.2422">Generate(int _imageWidth, int _imageHeight, unsigned char* _data) : void</text><ellipse cx="726.37" cy="1407.5664" fill="#84BE84" rx="3" ry="3" style="stroke:#038048;stroke-width:1.0;"/><text fill="#000000" font-family="sans-serif" font-size="14" lengthAdjust="spacing" textLength="126" x="735.37" y="1411.8633">Bind() : void {query}</text><ellipse cx="726.37" cy="1426.1875" fill="#84BE84" rx="3" ry="3" style="stroke:#038048;stroke-width:1.0;"/><text fill="#000000" font-family="sans-serif" font-size="14" lengthAdjust="spacing" textLength="168" x="735.37" y="1430.4844">GetID() : uint32_t&amp; {query}</text><ellipse cx="726.37" cy="1444.8086" fill="#84BE84" rx="3" ry="3" style="stroke:#038048;stroke-width:1.0;"/><text fill="#000000" font-family="sans-serif" font-size="14" lengthAdjust="spacing" textLength="169" x="735.37" y="1449.1055">GetSize() : b2Vec2 {query}</text></g><!--class Colour--><g id="elem_Colour"><rect codeLine="108" fill="#F1F1F1" height="178.3477" id="Colour" rx="2.5" ry="2.5" style="stroke:#181818;stroke-width:0.5;" width="251" x="429.37" y="1297.0137"/><ellipse cx="529.62" cy="1313.0137" fill="#ADD1B2" rx="11" ry="11" style="stroke:#181818;stroke-width:1.0;"/><path d="M532.3856,1308.8887 Q532.5419,1308.6699 532.7294,1308.5605 Q532.9169,1308.4512 533.1356,1308.4512 Q533.5106,1308.4512 533.745,1308.7168 Q533.9794,1308.9668 533.9794,1309.5762 L533.9794,1311.0293 Q533.9794,1311.6387 533.745,1311.9043 Q533.5106,1312.1699 533.1356,1312.1699 Q532.7919,1312.1699 532.5888,1311.9668 Q532.3856,1311.7793 532.2763,1311.2637 Q532.2294,1310.9043 532.0419,1310.7168 Q531.7138,1310.3418 531.1044,1310.123 Q530.495,1309.9043 529.87,1309.9043 Q529.1044,1309.9043 528.4638,1310.2324 Q527.8388,1310.5605 527.3388,1311.3105 Q526.8544,1312.0605 526.8544,1313.0918 L526.8544,1314.1855 Q526.8544,1315.4199 527.745,1316.248 Q528.6356,1317.0605 530.2294,1317.0605 Q531.1669,1317.0605 531.8231,1316.8105 Q532.2138,1316.6543 532.6356,1316.2168 Q532.9013,1315.9512 533.0419,1315.873 Q533.1981,1315.7949 533.4013,1315.7949 Q533.7294,1315.7949 533.9794,1316.0605 Q534.245,1316.3105 534.245,1316.6543 Q534.245,1316.998 533.9013,1317.4043 Q533.4013,1317.9824 532.6044,1318.3105 Q531.5263,1318.7637 530.2294,1318.7637 Q528.7138,1318.7637 527.5106,1318.1387 Q526.5263,1317.6387 525.8388,1316.5762 Q525.1513,1315.498 525.1513,1314.2168 L525.1513,1313.0605 Q525.1513,1311.7324 525.7606,1310.5918 Q526.3856,1309.4355 527.4794,1308.8262 Q528.5731,1308.2012 529.8075,1308.2012 Q530.5419,1308.2012 531.1825,1308.373 Q531.8388,1308.5293 532.3856,1308.8887 Z " fill="#000000"/><text fill="#000000" font-family="sans-serif" font-size="14" lengthAdjust="spacing" textLength="42" x="550.12" y="1318.8105">Colour</text><line style="stroke:#181818;stroke-width:0.5;" x1="430.37" x2="679.37" y1="1329.0137" y2="1329.0137"/><ellipse cx="440.37" cy="1343.8242" fill="none" rx="3" ry="3" style="stroke:#038048;stroke-width:1.0;"/><text fill="#000000" font-family="sans-serif" font-size="14" lengthAdjust="spacing" textLength="32" x="449.37" y="1348.1211">r : int</text><ellipse cx="440.37" cy="1362.4453" fill="none" rx="3" ry="3" style="stroke:#038048;stroke-width:1.0;"/><text fill="#000000" font-family="sans-serif" font-size="14" lengthAdjust="spacing" textLength="35" x="449.37" y="1366.7422">g : int</text><ellipse cx="440.37" cy="1381.0664" fill="none" rx="3" ry="3" style="stroke:#038048;stroke-width:1.0;"/><text fill="#000000" font-family="sans-serif" font-size="14" lengthAdjust="spacing" textLength="35" x="449.37" y="1385.3633">b : int</text><ellipse cx="440.37" cy="1399.6875" fill="none" rx="3" ry="3" style="stroke:#038048;stroke-width:1.0;"/><text fill="#000000" font-family="sans-serif" font-size="14" lengthAdjust="spacing" textLength="47" x="449.37" y="1403.9844">a : float</text><line style="stroke:#181818;stroke-width:0.5;" x1="430.37" x2="679.37" y1="1411.498" y2="1411.498"/><ellipse cx="440.37" cy="1426.3086" fill="#84BE84" rx="3" ry="3" style="stroke:#038048;stroke-width:1.0;"/><text fill="#000000" font-family="sans-serif" font-size="14" lengthAdjust="spacing" textLength="225" x="449.37" y="1430.6055">Colour(int _r, int _g, int _b, float _a)</text><ellipse cx="440.37" cy="1444.9297" fill="#84BE84" rx="3" ry="3" style="stroke:#038048;stroke-width:1.0;"/><text fill="#000000" font-family="sans-serif" font-size="14" lengthAdjust="spacing" textLength="215" x="449.37" y="1449.2266">GetGLReady() : glm::vec4 {query}</text><ellipse cx="440.37" cy="1463.5508" fill="#84BE84" rx="3" ry="3" style="stroke:#038048;stroke-width:1.0;"/><text fill="#000000" font-family="sans-serif" font-size="14" lengthAdjust="spacing" text-decoration="underline" textLength="209" x="449.37" y="1467.8477">FromHex(int32_t _value) : Colour</text></g><!--class Shader--><g id="elem_Shader"><rect codeLine="118" fill="#F1F1F1" height="48" id="Shader" rx="2.5" ry="2.5" style="stroke:#181818;stroke-width:0.5;" width="78" x="1241.87" y="1362.0137"/><ellipse cx="1256.87" cy="1378.0137" fill="#ADD1B2" rx="11" ry="11" style="stroke:#181818;stroke-width:1.0;"/><path d="M1259.6356,1373.8887 Q1259.7919,1373.6699 1259.9794,1373.5605 Q1260.1669,1373.4512 1260.3856,1373.4512 Q1260.7606,1373.4512 1260.995,1373.7168 Q1261.2294,1373.9668 1261.2294,1374.5762 L1261.2294,1376.0293 Q1261.2294,1376.6387 1260.995,1376.9043 Q1260.7606,1377.1699 1260.3856,1377.1699 Q1260.0419,1377.1699 1259.8388,1376.9668 Q1259.6356,1376.7793 1259.5263,1376.2637 Q1259.4794,1375.9043 1259.2919,1375.7168 Q1258.9638,1375.3418 1258.3544,1375.123 Q1257.745,1374.9043 1257.12,1374.9043 Q1256.3544,1374.9043 1255.7138,1375.2324 Q1255.0888,1375.5605 1254.5888,1376.3105 Q1254.1044,1377.0605 1254.1044,1378.0918 L1254.1044,1379.1855 Q1254.1044,1380.4199 1254.995,1381.248 Q1255.8856,1382.0605 1257.4794,1382.0605 Q1258.4169,1382.0605 1259.0731,1381.8105 Q1259.4638,1381.6543 1259.8856,1381.2168 Q1260.1513,1380.9512 1260.2919,1380.873 Q1260.4481,1380.7949 1260.6513,1380.7949 Q1260.9794,1380.7949 1261.2294,1381.0605 Q1261.495,1381.3105 1261.495,1381.6543 Q1261.495,1381.998 1261.1513,1382.4043 Q1260.6513,1382.9824 1259.8544,1383.3105 Q1258.7763,1383.7637 1257.4794,1383.7637 Q1255.9638,1383.7637 1254.7606,1383.1387 Q1253.7763,1382.6387 1253.0888,1381.5762 Q1252.4013,1380.498 1252.4013,1379.2168 L1252.4013,1378.0605 Q1252.4013,1376.7324 1253.0106,1375.5918 Q1253.6356,1374.4355 1254.7294,1373.8262 Q1255.8231,1373.2012 1257.0575,1373.2012 Q1257.7919,1373.2012 1258.4325,1373.373 Q1259.0888,1373.5293 1259.6356,1373.8887 Z " fill="#000000"/><text fill="#000000" font-family="sans-serif" font-size="14" lengthAdjust="spacing" textLength="46" x="1270.87" y="1383.8105">Shader</text><line style="stroke:#181818;stroke-width:0.5;" x1="1242.87" x2="1318.87" y1="1394.0137" y2="1394.0137"/><line style="stroke:#181818;stroke-width:0.5;" x1="1242.87" x2="1318.87" y1="1402.0137" y2="1402.0137"/></g><!--class AnimatedSprite--><g id="elem_AnimatedSprite"><rect codeLine="122" fill="#F1F1F1" height="159.7266" id="AnimatedSprite" rx="2.5" ry="2.5" style="stroke:#181818;stroke-width:0.5;" width="813" x="225.37" y="616.5137"/><ellipse cx="579.62" cy="632.5137" fill="#ADD1B2" rx="11" ry="11" style="stroke:#181818;stroke-width:1.0;"/><path d="M582.3856,628.3887 Q582.5419,628.1699 582.7294,628.0605 Q582.9169,627.9512 583.1356,627.9512 Q583.5106,627.9512 583.745,628.2168 Q583.9794,628.4668 583.9794,629.0762 L583.9794,630.5293 Q583.9794,631.1387 583.745,631.4043 Q583.5106,631.6699 583.1356,631.6699 Q582.7919,631.6699 582.5888,631.4668 Q582.3856,631.2793 582.2763,630.7637 Q582.2294,630.4043 582.0419,630.2168 Q581.7138,629.8418 581.1044,629.623 Q580.495,629.4043 579.87,629.4043 Q579.1044,629.4043 578.4638,629.7324 Q577.8388,630.0605 577.3388,630.8105 Q576.8544,631.5605 576.8544,632.5918 L576.8544,633.6855 Q576.8544,634.9199 577.745,635.748 Q578.6356,636.5605 580.2294,636.5605 Q581.1669,636.5605 581.8231,636.3105 Q582.2138,636.1543 582.6356,635.7168 Q582.9013,635.4512 583.0419,635.373 Q583.1981,635.2949 583.4013,635.2949 Q583.7294,635.2949 583.9794,635.5605 Q584.245,635.8105 584.245,636.1543 Q584.245,636.498 583.9013,636.9043 Q583.4013,637.4824 582.6044,637.8105 Q581.5263,638.2637 580.2294,638.2637 Q578.7138,638.2637 577.5106,637.6387 Q576.5263,637.1387 575.8388,636.0762 Q575.1513,634.998 575.1513,633.7168 L575.1513,632.5605 Q575.1513,631.2324 575.7606,630.0918 Q576.3856,628.9355 577.4794,628.3262 Q578.5731,627.7012 579.8075,627.7012 Q580.5419,627.7012 581.1825,627.873 Q581.8388,628.0293 582.3856,628.3887 Z " fill="#000000"/><text fill="#000000" font-family="sans-serif" font-size="14" lengthAdjust="spacing" textLength="96" x="600.12" y="638.3105">AnimatedSprite</text><line style="stroke:#181818;stroke-width:0.5;" x1="226.37" x2="1037.37" y1="648.5137" y2="648.5137"/><line style="stroke:#181818;stroke-width:0.5;" x1="226.37" x2="1037.37" y1="656.5137" y2="656.5137"/><ellipse cx="236.37" cy="671.3242" fill="#84BE84" rx="3" ry="3" style="stroke:#038048;stroke-width:1.0;"/><text fill="#000000" font-family="sans-serif" font-size="14" lengthAdjust="spacing" textLength="787" x="245.37" y="675.6211">AnimatedSprite(fe::Texture* _texture, const AnimationSettings&amp; _animationSettings, const b2Vec2&amp; _size, bool _makeShape)</text><ellipse cx="236.37" cy="689.9453" fill="#84BE84" rx="3" ry="3" style="stroke:#038048;stroke-width:1.0;"/><text fill="#000000" font-family="sans-serif" font-size="14" lengthAdjust="spacing" textLength="648" x="245.37" y="694.2422">AnimatedSprite(fe::Texture* _texture, const AnimationSettings&amp; _animationSettings, bool _makeShape)</text><ellipse cx="236.37" cy="708.5664" fill="#84BE84" rx="3" ry="3" style="stroke:#038048;stroke-width:1.0;"/><text fill="#000000" font-family="sans-serif" font-size="14" lengthAdjust="spacing" textLength="221" x="245.37" y="712.8633">GetTotalFrameCount() : int {query}</text><ellipse cx="236.37" cy="727.1875" fill="#84BE84" rx="3" ry="3" style="stroke:#038048;stroke-width:1.0;"/><text fill="#000000" font-family="sans-serif" font-size="14" lengthAdjust="spacing" textLength="309" x="245.37" y="731.4844">SetCycle(int _startFrame, int _frameCount) : void</text><polygon fill="#FFFF44" points="236.37,740.8086,240.37,744.8086,236.37,748.8086,232.37,744.8086" style="stroke:#B38D22;stroke-width:1.0;"/><text fill="#000000" font-family="sans-serif" font-size="14" lengthAdjust="spacing" textLength="164" x="245.37" y="750.1055">GetDefaultSize() : b2Vec2</text><polygon fill="#FFFF44" points="236.37,759.4297,240.37,763.4297,236.37,767.4297,232.37,763.4297" style="stroke:#B38D22;stroke-width:1.0;"/><text fill="#000000" font-family="sans-serif" font-size="14" lengthAdjust="spacing" textLength="95" x="245.37" y="768.7266">Render() : void</text></g><!--class Sprite--><g id="elem_Sprite"><rect codeLine="131" fill="#F1F1F1" height="345.9375" id="Sprite" rx="2.5" ry="2.5" style="stroke:#181818;stroke-width:0.5;" width="462" x="400.87" y="43.0137"/><ellipse cx="609.12" cy="59.0137" fill="#ADD1B2" rx="11" ry="11" style="stroke:#181818;stroke-width:1.0;"/><path d="M611.8856,54.8887 Q612.0419,54.6699 612.2294,54.5605 Q612.4169,54.4512 612.6356,54.4512 Q613.0106,54.4512 613.245,54.7168 Q613.4794,54.9668 613.4794,55.5762 L613.4794,57.0293 Q613.4794,57.6387 613.245,57.9043 Q613.0106,58.1699 612.6356,58.1699 Q612.2919,58.1699 612.0888,57.9668 Q611.8856,57.7793 611.7763,57.2637 Q611.7294,56.9043 611.5419,56.7168 Q611.2138,56.3418 610.6044,56.123 Q609.995,55.9043 609.37,55.9043 Q608.6044,55.9043 607.9638,56.2324 Q607.3388,56.5605 606.8388,57.3105 Q606.3544,58.0605 606.3544,59.0918 L606.3544,60.1855 Q606.3544,61.4199 607.245,62.248 Q608.1356,63.0605 609.7294,63.0605 Q610.6669,63.0605 611.3231,62.8105 Q611.7138,62.6543 612.1356,62.2168 Q612.4013,61.9512 612.5419,61.873 Q612.6981,61.7949 612.9013,61.7949 Q613.2294,61.7949 613.4794,62.0605 Q613.745,62.3105 613.745,62.6543 Q613.745,62.998 613.4013,63.4043 Q612.9013,63.9824 612.1044,64.3105 Q611.0263,64.7637 609.7294,64.7637 Q608.2138,64.7637 607.0106,64.1387 Q606.0263,63.6387 605.3388,62.5762 Q604.6513,61.498 604.6513,60.2168 L604.6513,59.0605 Q604.6513,57.7324 605.2606,56.5918 Q605.8856,55.4355 606.9794,54.8262 Q608.0731,54.2012 609.3075,54.2012 Q610.0419,54.2012 610.6825,54.373 Q611.3388,54.5293 611.8856,54.8887 Z " fill="#000000"/><text fill="#000000" font-family="sans-serif" font-size="14" lengthAdjust="spacing" textLength="37" x="629.62" y="64.8105">Sprite</text><line style="stroke:#181818;stroke-width:0.5;" x1="401.87" x2="861.87" y1="75.0137" y2="75.0137"/><polygon fill="none" points="411.87,84.8242,415.87,88.8242,411.87,92.8242,407.87,88.8242" style="stroke:#B38D22;stroke-width:1.0;"/><text fill="#000000" font-family="sans-serif" font-size="14" lengthAdjust="spacing" textLength="186" x="420.87" y="94.1211">spriteSettings : SpriteSettings</text><polygon fill="none" points="411.87,103.4453,415.87,107.4453,411.87,111.4453,407.87,107.4453" style="stroke:#B38D22;stroke-width:1.0;"/><text fill="#000000" font-family="sans-serif" font-size="14" lengthAdjust="spacing" textLength="95" x="420.87" y="112.7422">offset : b2Vec2</text><polygon fill="none" points="411.87,122.0664,415.87,126.0664,411.87,130.0664,407.87,126.0664" style="stroke:#B38D22;stroke-width:1.0;"/><text fill="#000000" font-family="sans-serif" font-size="14" lengthAdjust="spacing" textLength="128" x="420.87" y="131.3633">texture : fe::Texture*</text><line style="stroke:#181818;stroke-width:0.5;" x1="401.87" x2="861.87" y1="138.877" y2="138.877"/><ellipse cx="411.87" cy="153.6875" fill="#84BE84" rx="3" ry="3" style="stroke:#038048;stroke-width:1.0;"/><text fill="#000000" font-family="sans-serif" font-size="14" lengthAdjust="spacing" textLength="436" x="420.87" y="157.9844">Sprite(fe::Texture* _texture, bool _makeShape, const b2Vec2&amp; _size)</text><ellipse cx="411.87" cy="172.3086" fill="#84BE84" rx="3" ry="3" style="stroke:#038048;stroke-width:1.0;"/><text fill="#000000" font-family="sans-serif" font-size="14" lengthAdjust="spacing" textLength="314" x="420.87" y="176.6055">Sprite(fe::Texture* _texture, const b2Vec2&amp; _size)</text><ellipse cx="411.87" cy="190.9297" fill="#84BE84" rx="3" ry="3" style="stroke:#038048;stroke-width:1.0;"/><text fill="#000000" font-family="sans-serif" font-size="14" lengthAdjust="spacing" textLength="280" x="420.87" y="195.2266">GetSpriteSettings() : SpriteSettings&amp; {query}</text><ellipse cx="411.87" cy="209.5508" fill="#84BE84" rx="3" ry="3" style="stroke:#038048;stroke-width:1.0;"/><text fill="#000000" font-family="sans-serif" font-size="14" lengthAdjust="spacing" textLength="206" x="420.87" y="213.8477">FlipHorizontal(bool _value) : void</text><ellipse cx="411.87" cy="228.1719" fill="#84BE84" rx="3" ry="3" style="stroke:#038048;stroke-width:1.0;"/><text fill="#000000" font-family="sans-serif" font-size="14" lengthAdjust="spacing" textLength="191" x="420.87" y="232.4688">FlipVertical(bool _value) : void</text><ellipse cx="411.87" cy="246.793" fill="#84BE84" rx="3" ry="3" style="stroke:#038048;stroke-width:1.0;"/><text fill="#000000" font-family="sans-serif" font-size="14" lengthAdjust="spacing" textLength="271" x="420.87" y="251.0898">SetColour(const fe::Colour&amp; _colour) : void</text><ellipse cx="411.87" cy="265.4141" fill="#84BE84" rx="3" ry="3" style="stroke:#038048;stroke-width:1.0;"/><text fill="#000000" font-family="sans-serif" font-size="14" lengthAdjust="spacing" textLength="249" x="420.87" y="269.7109">SetOffset(const b2Vec2&amp; _offset) : void</text><ellipse cx="411.87" cy="284.0352" fill="#84BE84" rx="3" ry="3" style="stroke:#038048;stroke-width:1.0;"/><text fill="#000000" font-family="sans-serif" font-size="14" lengthAdjust="spacing" textLength="390" x="420.87" y="288.332">SetSpriteSettings(const SpriteSettings&amp; _spriteSettings) : void</text><ellipse cx="411.87" cy="302.6563" fill="#84BE84" rx="3" ry="3" style="stroke:#038048;stroke-width:1.0;"/><text fill="#000000" font-family="sans-serif" font-size="14" lengthAdjust="spacing" textLength="155" x="420.87" y="306.9531">Show(bool _value) : void</text><polygon fill="#FFFF44" points="411.87,316.2773,415.87,320.2773,411.87,324.2773,407.87,320.2773" style="stroke:#B38D22;stroke-width:1.0;"/><text fill="#000000" font-family="sans-serif" font-size="14" lengthAdjust="spacing" textLength="78" x="420.87" y="325.5742">Start() : void</text><polygon fill="#FFFF44" points="411.87,334.8984,415.87,338.8984,411.87,342.8984,407.87,338.8984" style="stroke:#B38D22;stroke-width:1.0;"/><text fill="#000000" font-family="sans-serif" font-size="14" lengthAdjust="spacing" textLength="194" x="420.87" y="344.1953">Update(float _deltaTime) : void</text><polygon fill="#FFFF44" points="411.87,353.5195,415.87,357.5195,411.87,361.5195,407.87,357.5195" style="stroke:#B38D22;stroke-width:1.0;"/><text fill="#000000" font-family="sans-serif" font-size="14" lengthAdjust="spacing" textLength="95" x="420.87" y="362.8164">Render() : void</text><polygon fill="#FFFF44" points="411.87,372.1406,415.87,376.1406,411.87,380.1406,407.87,376.1406" style="stroke:#B38D22;stroke-width:1.0;"/><text fill="#000000" font-family="sans-serif" font-size="14" lengthAdjust="spacing" textLength="164" x="420.87" y="381.4375">GetDefaultSize() : b2Vec2</text></g><!--class EngineSettings--><g id="elem_EngineSettings"><rect codeLine="152" fill="#F1F1F1" height="215.5898" id="EngineSettings" rx="2.5" ry="2.5" style="stroke:#181818;stroke-width:0.5;" width="181" x="924.37" y="1004.0137"/><ellipse cx="963.67" cy="1020.0137" fill="#ADD1B2" rx="11" ry="11" style="stroke:#181818;stroke-width:1.0;"/><path d="M966.4356,1015.8887 Q966.5919,1015.6699 966.7794,1015.5605 Q966.9669,1015.4512 967.1856,1015.4512 Q967.5606,1015.4512 967.795,1015.7168 Q968.0294,1015.9668 968.0294,1016.5762 L968.0294,1018.0293 Q968.0294,1018.6387 967.795,1018.9043 Q967.5606,1019.1699 967.1856,1019.1699 Q966.8419,1019.1699 966.6388,1018.9668 Q966.4356,1018.7793 966.3263,1018.2637 Q966.2794,1017.9043 966.0919,1017.7168 Q965.7638,1017.3418 965.1544,1017.123 Q964.545,1016.9043 963.92,1016.9043 Q963.1544,1016.9043 962.5138,1017.2324 Q961.8888,1017.5605 961.3888,1018.3105 Q960.9044,1019.0605 960.9044,1020.0918 L960.9044,1021.1855 Q960.9044,1022.4199 961.795,1023.248 Q962.6856,1024.0605 964.2794,1024.0605 Q965.2169,1024.0605 965.8731,1023.8105 Q966.2638,1023.6543 966.6856,1023.2168 Q966.9513,1022.9512 967.0919,1022.873 Q967.2481,1022.7949 967.4513,1022.7949 Q967.7794,1022.7949 968.0294,1023.0605 Q968.295,1023.3105 968.295,1023.6543 Q968.295,1023.998 967.9513,1024.4043 Q967.4513,1024.9824 966.6544,1025.3105 Q965.5763,1025.7637 964.2794,1025.7637 Q962.7638,1025.7637 961.5606,1025.1387 Q960.5763,1024.6387 959.8888,1023.5762 Q959.2013,1022.498 959.2013,1021.2168 L959.2013,1020.0605 Q959.2013,1018.7324 959.8106,1017.5918 Q960.4356,1016.4355 961.5294,1015.8262 Q962.6231,1015.2012 963.8575,1015.2012 Q964.5919,1015.2012 965.2325,1015.373 Q965.8888,1015.5293 966.4356,1015.8887 Z " fill="#000000"/><text fill="#000000" font-family="sans-serif" font-size="14" lengthAdjust="spacing" textLength="95" x="983.07" y="1025.8105">EngineSettings</text><line style="stroke:#181818;stroke-width:0.5;" x1="925.37" x2="1104.37" y1="1036.0137" y2="1036.0137"/><ellipse cx="935.37" cy="1050.8242" fill="none" rx="3" ry="3" style="stroke:#038048;stroke-width:1.0;"/><text fill="#000000" font-family="sans-serif" font-size="14" lengthAdjust="spacing" textLength="102" x="944.37" y="1055.1211">gravity : b2Vec2</text><ellipse cx="935.37" cy="1069.4453" fill="none" rx="3" ry="3" style="stroke:#038048;stroke-width:1.0;"/><text fill="#000000" font-family="sans-serif" font-size="14" lengthAdjust="spacing" textLength="102" x="944.37" y="1073.7422">gravity : b2Vec2</text><ellipse cx="935.37" cy="1088.0664" fill="none" rx="3" ry="3" style="stroke:#038048;stroke-width:1.0;"/><text fill="#000000" font-family="sans-serif" font-size="14" lengthAdjust="spacing" textLength="120" x="944.37" y="1092.3633">enableVsync : bool</text><ellipse cx="935.37" cy="1106.6875" fill="none" rx="3" ry="3" style="stroke:#038048;stroke-width:1.0;"/><text fill="#000000" font-family="sans-serif" font-size="14" lengthAdjust="spacing" textLength="155" x="944.37" y="1110.9844">windowTitle : const char*</text><ellipse cx="935.37" cy="1125.3086" fill="none" rx="3" ry="3" style="stroke:#038048;stroke-width:1.0;"/><text fill="#000000" font-family="sans-serif" font-size="14" lengthAdjust="spacing" textLength="92" x="944.37" y="1129.6055">farPlane : float</text><ellipse cx="935.37" cy="1143.9297" fill="none" rx="3" ry="3" style="stroke:#038048;stroke-width:1.0;"/><text fill="#000000" font-family="sans-serif" font-size="14" lengthAdjust="spacing" textLength="104" x="944.37" y="1148.2266">nearPlane : float</text><ellipse cx="935.37" cy="1162.5508" fill="none" rx="3" ry="3" style="stroke:#038048;stroke-width:1.0;"/><text fill="#000000" font-family="sans-serif" font-size="14" lengthAdjust="spacing" textLength="72" x="944.37" y="1166.8477">zoom : float</text><ellipse cx="935.37" cy="1181.1719" fill="none" rx="3" ry="3" style="stroke:#038048;stroke-width:1.0;"/><text fill="#000000" font-family="sans-serif" font-size="14" lengthAdjust="spacing" textLength="148" x="944.37" y="1185.4688">windowHeight : uint16_t</text><ellipse cx="935.37" cy="1199.793" fill="none" rx="3" ry="3" style="stroke:#038048;stroke-width:1.0;"/><text fill="#000000" font-family="sans-serif" font-size="14" lengthAdjust="spacing" textLength="144" x="944.37" y="1204.0898">windowWidth : uint16_t</text><line style="stroke:#181818;stroke-width:0.5;" x1="925.37" x2="1104.37" y1="1211.6035" y2="1211.6035"/></g><!--class SpriteSettings--><g id="elem_SpriteSettings"><rect codeLine="164" fill="#F1F1F1" height="159.7266" id="SpriteSettings" rx="2.5" ry="2.5" style="stroke:#181818;stroke-width:0.5;" width="145" x="302.37" y="1032.0137"/><ellipse cx="328.62" cy="1048.0137" fill="#ADD1B2" rx="11" ry="11" style="stroke:#181818;stroke-width:1.0;"/><path d="M331.3856,1043.8887 Q331.5419,1043.6699 331.7294,1043.5605 Q331.9169,1043.4512 332.1356,1043.4512 Q332.5106,1043.4512 332.745,1043.7168 Q332.9794,1043.9668 332.9794,1044.5762 L332.9794,1046.0293 Q332.9794,1046.6387 332.745,1046.9043 Q332.5106,1047.1699 332.1356,1047.1699 Q331.7919,1047.1699 331.5888,1046.9668 Q331.3856,1046.7793 331.2763,1046.2637 Q331.2294,1045.9043 331.0419,1045.7168 Q330.7138,1045.3418 330.1044,1045.123 Q329.495,1044.9043 328.87,1044.9043 Q328.1044,1044.9043 327.4638,1045.2324 Q326.8388,1045.5605 326.3388,1046.3105 Q325.8544,1047.0605 325.8544,1048.0918 L325.8544,1049.1855 Q325.8544,1050.4199 326.745,1051.248 Q327.6356,1052.0605 329.2294,1052.0605 Q330.1669,1052.0605 330.8231,1051.8105 Q331.2138,1051.6543 331.6356,1051.2168 Q331.9013,1050.9512 332.0419,1050.873 Q332.1981,1050.7949 332.4013,1050.7949 Q332.7294,1050.7949 332.9794,1051.0605 Q333.245,1051.3105 333.245,1051.6543 Q333.245,1051.998 332.9013,1052.4043 Q332.4013,1052.9824 331.6044,1053.3105 Q330.5263,1053.7637 329.2294,1053.7637 Q327.7138,1053.7637 326.5106,1053.1387 Q325.5263,1052.6387 324.8388,1051.5762 Q324.1513,1050.498 324.1513,1049.2168 L324.1513,1048.0605 Q324.1513,1046.7324 324.7606,1045.5918 Q325.3856,1044.4355 326.4794,1043.8262 Q327.5731,1043.2012 328.8075,1043.2012 Q329.5419,1043.2012 330.1825,1043.373 Q330.8388,1043.5293 331.3856,1043.8887 Z " fill="#000000"/><text fill="#000000" font-family="sans-serif" font-size="14" lengthAdjust="spacing" textLength="88" x="345.12" y="1053.8105">SpriteSettings</text><line style="stroke:#181818;stroke-width:0.5;" x1="303.37" x2="446.37" y1="1064.0137" y2="1064.0137"/><ellipse cx="313.37" cy="1078.8242" fill="none" rx="3" ry="3" style="stroke:#038048;stroke-width:1.0;"/><text fill="#000000" font-family="sans-serif" font-size="14" lengthAdjust="spacing" textLength="93" x="322.37" y="1083.1211">colour : Colour</text><ellipse cx="313.37" cy="1097.4453" fill="none" rx="3" ry="3" style="stroke:#038048;stroke-width:1.0;"/><text fill="#000000" font-family="sans-serif" font-size="14" lengthAdjust="spacing" textLength="109" x="322.37" y="1101.7422">position : b2Vec2</text><ellipse cx="313.37" cy="1116.0664" fill="none" rx="3" ry="3" style="stroke:#038048;stroke-width:1.0;"/><text fill="#000000" font-family="sans-serif" font-size="14" lengthAdjust="spacing" textLength="84" x="322.37" y="1120.3633">size : b2Vec2</text><ellipse cx="313.37" cy="1134.6875" fill="none" rx="3" ry="3" style="stroke:#038048;stroke-width:1.0;"/><text fill="#000000" font-family="sans-serif" font-size="14" lengthAdjust="spacing" textLength="119" x="322.37" y="1138.9844">flipHorizontal : bool</text><ellipse cx="313.37" cy="1153.3086" fill="none" rx="3" ry="3" style="stroke:#038048;stroke-width:1.0;"/><text fill="#000000" font-family="sans-serif" font-size="14" lengthAdjust="spacing" textLength="104" x="322.37" y="1157.6055">flipVertical : bool</text><ellipse cx="313.37" cy="1171.9297" fill="none" rx="3" ry="3" style="stroke:#038048;stroke-width:1.0;"/><text fill="#000000" font-family="sans-serif" font-size="14" lengthAdjust="spacing" textLength="74" x="322.37" y="1176.2266">angle : float</text><line style="stroke:#181818;stroke-width:0.5;" x1="303.37" x2="446.37" y1="1183.7402" y2="1183.7402"/></g><!--class AnimationSettings--><g id="elem_AnimationSettings"><rect codeLine="173" fill="#F1F1F1" height="196.9688" id="AnimationSettings" rx="2.5" ry="2.5" style="stroke:#181818;stroke-width:0.5;" width="406" x="482.87" y="1013.5137"/><ellipse cx="625.12" cy="1029.5137" fill="#ADD1B2" rx="11" ry="11" style="stroke:#181818;stroke-width:1.0;"/><path d="M627.8856,1025.3887 Q628.0419,1025.1699 628.2294,1025.0605 Q628.4169,1024.9512 628.6356,1024.9512 Q629.0106,1024.9512 629.245,1025.2168 Q629.4794,1025.4668 629.4794,1026.0762 L629.4794,1027.5293 Q629.4794,1028.1387 629.245,1028.4043 Q629.0106,1028.6699 628.6356,1028.6699 Q628.2919,1028.6699 628.0888,1028.4668 Q627.8856,1028.2793 627.7763,1027.7637 Q627.7294,1027.4043 627.5419,1027.2168 Q627.2138,1026.8418 626.6044,1026.623 Q625.995,1026.4043 625.37,1026.4043 Q624.6044,1026.4043 623.9638,1026.7324 Q623.3388,1027.0605 622.8388,1027.8105 Q622.3544,1028.5605 622.3544,1029.5918 L622.3544,1030.6855 Q622.3544,1031.9199 623.245,1032.748 Q624.1356,1033.5605 625.7294,1033.5605 Q626.6669,1033.5605 627.3231,1033.3105 Q627.7138,1033.1543 628.1356,1032.7168 Q628.4013,1032.4512 628.5419,1032.373 Q628.6981,1032.2949 628.9013,1032.2949 Q629.2294,1032.2949 629.4794,1032.5605 Q629.745,1032.8105 629.745,1033.1543 Q629.745,1033.498 629.4013,1033.9043 Q628.9013,1034.4824 628.1044,1034.8105 Q627.0263,1035.2637 625.7294,1035.2637 Q624.2138,1035.2637 623.0106,1034.6387 Q622.0263,1034.1387 621.3388,1033.0762 Q620.6513,1031.998 620.6513,1030.7168 L620.6513,1029.5605 Q620.6513,1028.2324 621.2606,1027.0918 Q621.8856,1025.9355 622.9794,1025.3262 Q624.0731,1024.7012 625.3075,1024.7012 Q626.0419,1024.7012 626.6825,1024.873 Q627.3388,1025.0293 627.8856,1025.3887 Z " fill="#000000"/><text fill="#000000" font-family="sans-serif" font-size="14" lengthAdjust="spacing" textLength="113" x="645.62" y="1035.3105">AnimationSettings</text><line style="stroke:#181818;stroke-width:0.5;" x1="483.87" x2="887.87" y1="1045.5137" y2="1045.5137"/><ellipse cx="493.87" cy="1060.3242" fill="none" rx="3" ry="3" style="stroke:#038048;stroke-width:1.0;"/><text fill="#000000" font-family="sans-serif" font-size="14" lengthAdjust="spacing" textLength="58" x="502.87" y="1064.6211">fps : float</text><ellipse cx="493.87" cy="1078.9453" fill="none" rx="3" ry="3" style="stroke:#038048;stroke-width:1.0;"/><text fill="#000000" font-family="sans-serif" font-size="14" lengthAdjust="spacing" textLength="79" x="502.87" y="1083.2422">columns : int</text><ellipse cx="493.87" cy="1097.5664" fill="none" rx="3" ry="3" style="stroke:#038048;stroke-width:1.0;"/><text fill="#000000" font-family="sans-serif" font-size="14" lengthAdjust="spacing" textLength="138" x="502.87" y="1101.8633">cycleFrameCount : int</text><ellipse cx="493.87" cy="1116.1875" fill="none" rx="3" ry="3" style="stroke:#038048;stroke-width:1.0;"/><text fill="#000000" font-family="sans-serif" font-size="14" lengthAdjust="spacing" textLength="130" x="502.87" y="1120.4844">cycleStartFrame : int</text><ellipse cx="493.87" cy="1134.8086" fill="none" rx="3" ry="3" style="stroke:#038048;stroke-width:1.0;"/><text fill="#000000" font-family="sans-serif" font-size="14" lengthAdjust="spacing" textLength="56" x="502.87" y="1139.1055">rows : int</text><ellipse cx="493.87" cy="1153.4297" fill="none" rx="3" ry="3" style="stroke:#038048;stroke-width:1.0;"/><text fill="#000000" font-family="sans-serif" font-size="14" lengthAdjust="spacing" textLength="133" x="502.87" y="1157.7266">totalFrameCount : int</text><line style="stroke:#181818;stroke-width:0.5;" x1="483.87" x2="887.87" y1="1165.2402" y2="1165.2402"/><ellipse cx="493.87" cy="1180.0508" fill="#84BE84" rx="3" ry="3" style="stroke:#038048;stroke-width:1.0;"/><text fill="#000000" font-family="sans-serif" font-size="14" lengthAdjust="spacing" textLength="349" x="502.87" y="1184.3477">AnimationSettings(int _cols, int _rows, int _numFrames)</text><ellipse cx="493.87" cy="1198.6719" fill="#84BE84" rx="3" ry="3" style="stroke:#038048;stroke-width:1.0;"/><text fill="#000000" font-family="sans-serif" font-size="14" lengthAdjust="spacing" textLength="380" x="502.87" y="1202.9688">SetCycle(int _cycleStartFrame, int _cycleFrameCount) : void</text></g><!--class AssetManager--><g id="elem_AssetManager"><rect codeLine="186" fill="#F1F1F1" height="85.2422" id="AssetManager" rx="2.5" ry="2.5" style="stroke:#181818;stroke-width:0.5;" width="330" x="3815.87" y="1069.5137"/><ellipse cx="3931.12" cy="1085.5137" fill="#ADD1B2" rx="11" ry="11" style="stroke:#181818;stroke-width:1.0;"/><path d="M3933.8856,1081.3887 Q3934.0419,1081.1699 3934.2294,1081.0605 Q3934.4169,1080.9512 3934.6356,1080.9512 Q3935.0106,1080.9512 3935.245,1081.2168 Q3935.4794,1081.4668 3935.4794,1082.0762 L3935.4794,1083.5293 Q3935.4794,1084.1387 3935.245,1084.4043 Q3935.0106,1084.6699 3934.6356,1084.6699 Q3934.2919,1084.6699 3934.0888,1084.4668 Q3933.8856,1084.2793 3933.7763,1083.7637 Q3933.7294,1083.4043 3933.5419,1083.2168 Q3933.2138,1082.8418 3932.6044,1082.623 Q3931.995,1082.4043 3931.37,1082.4043 Q3930.6044,1082.4043 3929.9638,1082.7324 Q3929.3388,1083.0605 3928.8388,1083.8105 Q3928.3544,1084.5605 3928.3544,1085.5918 L3928.3544,1086.6855 Q3928.3544,1087.9199 3929.245,1088.748 Q3930.1356,1089.5605 3931.7294,1089.5605 Q3932.6669,1089.5605 3933.3231,1089.3105 Q3933.7138,1089.1543 3934.1356,1088.7168 Q3934.4013,1088.4512 3934.5419,1088.373 Q3934.6981,1088.2949 3934.9013,1088.2949 Q3935.2294,1088.2949 3935.4794,1088.5605 Q3935.745,1088.8105 3935.745,1089.1543 Q3935.745,1089.498 3935.4013,1089.9043 Q3934.9013,1090.4824 3934.1044,1090.8105 Q3933.0263,1091.2637 3931.7294,1091.2637 Q3930.2138,1091.2637 3929.0106,1090.6387 Q3928.0263,1090.1387 3927.3388,1089.0762 Q3926.6513,1087.998 3926.6513,1086.7168 L3926.6513,1085.5605 Q3926.6513,1084.2324 3927.2606,1083.0918 Q3927.8856,1081.9355 3928.9794,1081.3262 Q3930.0731,1080.7012 3931.3075,1080.7012 Q3932.0419,1080.7012 3932.6825,1080.873 Q3933.3388,1081.0293 3933.8856,1081.3887 Z " fill="#000000"/><text fill="#000000" font-family="sans-serif" font-size="14" lengthAdjust="spacing" textLength="91" x="3951.62" y="1091.3105">AssetManager</text><line style="stroke:#181818;stroke-width:0.5;" x1="3816.87" x2="4144.87" y1="1101.5137" y2="1101.5137"/><line style="stroke:#181818;stroke-width:0.5;" x1="3816.87" x2="4144.87" y1="1109.5137" y2="1109.5137"/><ellipse cx="3826.87" cy="1124.3242" fill="#84BE84" rx="3" ry="3" style="stroke:#038048;stroke-width:1.0;"/><text fill="#000000" font-family="sans-serif" font-size="14" lengthAdjust="spacing" text-decoration="underline" textLength="304" x="3835.87" y="1128.6211">LoadTexture(const std::string&amp; _path) : Texture*</text><ellipse cx="3826.87" cy="1142.9453" fill="#84BE84" rx="3" ry="3" style="stroke:#038048;stroke-width:1.0;"/><text fill="#000000" font-family="sans-serif" font-size="14" lengthAdjust="spacing" text-decoration="underline" textLength="290" x="3835.87" y="1147.2422">UnloadTexture(const std::string&amp; _path) : bool</text></g><!--class FileUtils--><g id="elem_FileUtils"><rect codeLine="191" fill="#F1F1F1" height="85.2422" id="FileUtils" rx="2.5" ry="2.5" style="stroke:#181818;stroke-width:0.5;" width="343" x="3813.37" y="1343.5137"/><ellipse cx="3956.12" cy="1359.5137" fill="#ADD1B2" rx="11" ry="11" style="stroke:#181818;stroke-width:1.0;"/><path d="M3958.8856,1355.3887 Q3959.0419,1355.1699 3959.2294,1355.0605 Q3959.4169,1354.9512 3959.6356,1354.9512 Q3960.0106,1354.9512 3960.245,1355.2168 Q3960.4794,1355.4668 3960.4794,1356.0762 L3960.4794,1357.5293 Q3960.4794,1358.1387 3960.245,1358.4043 Q3960.0106,1358.6699 3959.6356,1358.6699 Q3959.2919,1358.6699 3959.0888,1358.4668 Q3958.8856,1358.2793 3958.7763,1357.7637 Q3958.7294,1357.4043 3958.5419,1357.2168 Q3958.2138,1356.8418 3957.6044,1356.623 Q3956.995,1356.4043 3956.37,1356.4043 Q3955.6044,1356.4043 3954.9638,1356.7324 Q3954.3388,1357.0605 3953.8388,1357.8105 Q3953.3544,1358.5605 3953.3544,1359.5918 L3953.3544,1360.6855 Q3953.3544,1361.9199 3954.245,1362.748 Q3955.1356,1363.5605 3956.7294,1363.5605 Q3957.6669,1363.5605 3958.3231,1363.3105 Q3958.7138,1363.1543 3959.1356,1362.7168 Q3959.4013,1362.4512 3959.5419,1362.373 Q3959.6981,1362.2949 3959.9013,1362.2949 Q3960.2294,1362.2949 3960.4794,1362.5605 Q3960.745,1362.8105 3960.745,1363.1543 Q3960.745,1363.498 3960.4013,1363.9043 Q3959.9013,1364.4824 3959.1044,1364.8105 Q3958.0263,1365.2637 3956.7294,1365.2637 Q3955.2138,1365.2637 3954.0106,1364.6387 Q3953.0263,1364.1387 3952.3388,1363.0762 Q3951.6513,1361.998 3951.6513,1360.7168 L3951.6513,1359.5605 Q3951.6513,1358.2324 3952.2606,1357.0918 Q3952.8856,1355.9355 3953.9794,1355.3262 Q3955.0731,1354.7012 3956.3075,1354.7012 Q3957.0419,1354.7012 3957.6825,1354.873 Q3958.3388,1355.0293 3958.8856,1355.3887 Z " fill="#000000"/><text fill="#000000" font-family="sans-serif" font-size="14" lengthAdjust="spacing" textLength="49" x="3976.62" y="1365.3105">FileUtils</text><line style="stroke:#181818;stroke-width:0.5;" x1="3814.37" x2="4155.37" y1="1375.5137" y2="1375.5137"/><line style="stroke:#181818;stroke-width:0.5;" x1="3814.37" x2="4155.37" y1="1383.5137" y2="1383.5137"/><ellipse cx="3824.37" cy="1398.3242" fill="#84BE84" rx="3" ry="3" style="stroke:#038048;stroke-width:1.0;"/><text fill="#000000" font-family="sans-serif" font-size="14" lengthAdjust="spacing" text-decoration="underline" textLength="234" x="3833.37" y="1402.6211">Exists(const std::string&amp; _path) : bool</text><ellipse cx="3824.37" cy="1416.9453" fill="#84BE84" rx="3" ry="3" style="stroke:#038048;stroke-width:1.0;"/><text fill="#000000" font-family="sans-serif" font-size="14" lengthAdjust="spacing" text-decoration="underline" textLength="317" x="3833.37" y="1421.2422">ReadTextFile(const std::string&amp; _path) : std::string</text></g><!--reverse link AssetManager to Texture--><g id="link_AssetManager_Texture"><path codeLine="197" d="M3927.9068,1158.2366 C3888.0468,1189.6366 3833.11,1226.5237 3772.87,1244.0137 C3704.9,1263.7537 1293.7,1235.5437 1224.87,1252.0137 C1171.34,1264.8237 1116.33,1290.2437 1070.47,1315.4637 " fill="none" id="AssetManager-backto-Texture" style="stroke:#181818;stroke-width:1.0;"/><polygon fill="#181818" points="3932.62,1154.5237,3923.0749,1156.9508,3928.6923,1157.6177,3928.0254,1163.2351,3932.62,1154.5237" style="stroke:#181818;stroke-width:1.0;"/></g><!--reverse link AssetManager to FileUtils--><g id="link_AssetManager_FileUtils"><path codeLine="198" d="M3981.5679,1160.623 C3982.3179,1211.813 3983.5,1292.2237 3984.26,1343.4137 " fill="none" id="AssetManager-backto-FileUtils" style="stroke:#181818;stroke-width:1.0;"/><polygon fill="#181818" points="3981.48,1154.6237,3977.6123,1163.6813,3981.5532,1159.6231,3985.6114,1163.5641,3981.48,1154.6237" style="stroke:#181818;stroke-width:1.0;"/></g><!--reverse link Engine to GameObject--><g id="link_Engine_GameObject"><path codeLine="200" d="M2653.0266,233.0767 C2435.4266,256.1067 2082.63,311.8937 1799.87,449.0137 C1793.79,451.9637 1787.73,455.0537 1781.69,458.2737 " fill="none" id="Engine-backto-GameObject" style="stroke:#181818;stroke-width:1.0;"/><polygon fill="#181818" points="2664.96,231.8137,2658.5723,228.4674,2653.0266,233.0767,2659.4143,236.4229,2664.96,231.8137" style="stroke:#181818;stroke-width:1.0;"/></g><!--reverse link Engine to GameTemplate--><g id="link_Engine_GameTemplate"><path codeLine="201" d="M3052.2688,245.8279 C3197.5088,274.7579 3384.35,331.3737 3519.87,449.0137 C3576.85,498.4837 3611.67,579.7837 3630.1,635.3937 " fill="none" id="Engine-backto-GameTemplate" style="stroke:#181818;stroke-width:1.0;"/><polygon fill="#181818" points="3040.5,243.4837,3045.603,248.5787,3052.2688,245.8279,3047.1658,240.7328,3040.5,243.4837" style="stroke:#181818;stroke-width:1.0;"/></g><!--reverse link Engine to EngineSettings--><g id="link_Engine_EngineSettings"><path codeLine="202" d="M2653.1417,218.4959 C2266.9917,225.0059 1413.89,260.6037 1198.87,449.0137 C1177.62,467.6337 1087.01,821.4337 1041.36,1003.9837 " fill="none" id="Engine-backto-EngineSettings" style="stroke:#181818;stroke-width:1.0;"/><polygon fill="#181818" points="2665.14,218.2937,2659.0734,214.3954,2653.1417,218.4959,2659.2083,222.3942,2665.14,218.2937" style="stroke:#181818;stroke-width:1.0;"/></g><!--reverse link Engine to Input--><g id="link_Engine_Input"><path codeLine="203" d="M2852.87,395.0837 C2852.87,465.2837 2852.87,537.8837 2852.87,597.8937 " fill="none" id="Engine-backto-Input" style="stroke:#181818;stroke-width:1.0;"/><polygon fill="#181818" points="2852.87,389.0837,2848.87,398.0837,2852.87,394.0837,2856.87,398.0837,2852.87,389.0837" style="stroke:#181818;stroke-width:1.0;"/></g><!--reverse link Engine to Box2DDebug--><g id="link_Engine_Box2DDebug"><path codeLine="204" d="M2988.5723,393.9868 C3002.7223,413.9268 3013.11,429.2937 3025.87,449.0137 C3060.96,503.2837 3096.29,567.1237 3122.28,616.2337 " fill="none" id="Engine-backto-Box2DDebug" style="stroke:#181818;stroke-width:1.0;"/><polygon fill="#181818" points="2985.1,389.0937,2987.0464,398.7483,2987.9936,393.1713,2993.5706,394.1185,2985.1,389.0937" style="stroke:#181818;stroke-width:1.0;"/></g><!--reverse link Engine to Renderer--><g id="link_Engine_Renderer"><path codeLine="205" d="M2660.4703,367.1956 C2538.1403,462.6856 2390.67,577.8037 2305.49,644.2937 " fill="none" id="Engine-backto-Renderer" style="stroke:#181818;stroke-width:1.0;"/><polygon fill="#181818" points="2665.2,363.5037,2655.6442,365.8885,2661.2586,366.5803,2660.5668,372.1947,2665.2,363.5037" style="stroke:#181818;stroke-width:1.0;"/></g><!--reverse link Engine to Time--><g id="link_Engine_Time"><path codeLine="206" d="M3046.045,283.377 C3133.905,321.027 3229.02,373.8637 3299.87,449.0137 C3359.02,511.7537 3389.97,611.6537 3402.7,662.8737 " fill="none" id="Engine-backto-Time" style="stroke:#181818;stroke-width:1.0;"/><polygon fill="#181818" points="3040.53,281.0137,3047.2269,288.2352,3045.1258,282.9831,3050.378,280.882,3040.53,281.0137" style="stroke:#181818;stroke-width:1.0;"/></g><!--reverse link GameObject to Component--><g id="link_GameObject_Component"><path codeLine="208" d="M1486.4589,956.023 C1486.7989,987.673 1487.43,1006.0337 1488.59,1031.9737 " fill="none" id="GameObject-backto-Component" style="stroke:#181818;stroke-width:1.0;"/><polygon fill="#181818" points="1486.33,944.0237,1482.3947,950.0663,1486.4589,956.023,1490.3942,949.9804,1486.33,944.0237" style="stroke:#181818;stroke-width:1.0;"/></g><!--reverse link Component to GameObject--><g id="link_Component_GameObject"><path codeLine="211" d="M1510.323,1019.9874 C1511.563,994.0474 1511.78,975.6737 1512.14,944.0237 " fill="none" id="Component-backto-GameObject" style="stroke:#181818;stroke-width:1.0;"/><polygon fill="none" points="1509.75,1031.9737,1514.0319,1026.1715,1510.323,1019.9874,1506.0411,1025.7895,1509.75,1031.9737" style="stroke:#181818;stroke-width:1.0;"/></g><!--reverse link Component to Sprite--><g id="link_Component_Sprite"><path codeLine="210" d="M1371.9446,1067.0566 C1308.0046,1040.3066 1247.39,1005.0037 1198.87,944.0137 C1056.3,764.8137 1199.09,627.6937 1055.87,449.0137 C1005.55,386.2437 933.46,337.9437 862.95,302.0937 " fill="none" id="Component-backto-Sprite" style="stroke:#181818;stroke-width:1.0;"/><polygon fill="none" points="1388.55,1074.0037,1374.2603,1061.5215,1369.6289,1072.5918,1388.55,1074.0037" style="stroke:#181818;stroke-width:1.0;"/></g><!--reverse link Renderer to Shader--><g id="link_Renderer_Shader"><path codeLine="213" d="M2185.9772,757.5849 C2089.8472,862.5949 1864.3,1095.9737 1626.87,1244.0137 C1523.8,1308.2737 1386.4,1353.9637 1320.03,1373.8737 " fill="none" id="Renderer-backto-Shader" style="stroke:#181818;stroke-width:1.0;"/><polygon fill="#181818" points="2194.08,748.7337,2187.0782,750.4584,2185.9772,757.5849,2192.979,755.8602,2194.08,748.7337" style="stroke:#181818;stroke-width:1.0;"/></g><!--reverse link Sprite to AnimatedSprite--><g id="link_Sprite_AnimatedSprite"><path codeLine="215" d="M631.87,407.0837 C631.87,484.7837 631.87,554.7737 631.87,616.4637 " fill="none" id="Sprite-backto-AnimatedSprite" style="stroke:#181818;stroke-width:1.0;"/><polygon fill="none" points="631.87,389.0837,625.87,407.0837,637.87,407.0837,631.87,389.0837" style="stroke:#181818;stroke-width:1.0;"/></g><!--reverse link Sprite to SpriteSettings--><g id="link_Sprite_SpriteSettings"><path codeLine="216" d="M389.9117,294.4145 C314.9817,330.0245 250.98,376.2937 207.87,449.0137 C95.69,638.2637 123.68,740.7637 207.87,944.0137 C227.17,990.6037 266.47,1030.9837 302.11,1060.3537 " fill="none" id="Sprite-backto-SpriteSettings" style="stroke:#181818;stroke-width:1.0;"/><polygon fill="#181818" points="400.75,289.2637,393.6139,288.2263,389.9117,294.4145,397.0478,295.4519,400.75,289.2637" style="stroke:#181818;stroke-width:1.0;"/></g><!--reverse link Sprite to Texture--><g id="link_Sprite_Texture"><path codeLine="217" d="M389.1364,267.1391 C286.2864,300.5291 186.19,353.5137 124.87,449.0137 C6,634.1337 71.23,730.6537 124.87,944.0137 C161.76,1090.7737 156.77,1165.0737 285.87,1244.0137 C305.4,1255.9537 675.65,1246.4837 697.87,1252.0137 C750.75,1265.1637 805.15,1290.3937 850.65,1315.3737 " fill="none" id="Sprite-backto-Texture" style="stroke:#181818;stroke-width:1.0;"/><polygon fill="none" points="400.55,263.4337,393.6081,261.4818,389.1364,267.1391,396.0783,269.0909,400.55,263.4337" style="stroke:#181818;stroke-width:1.0;"/></g><!--reverse link Sprite to Renderer--><g id="link_Sprite_Renderer"><path codeLine="218" d="M868.8505,300.0149 C970.9205,332.9249 1087.33,366.5637 1199.87,389.0137 C1462.25,441.3637 1543.64,368.7337 1798.87,449.0137 C1939.85,493.3637 2086.3,586.1237 2169.94,644.3537 " fill="none" id="Sprite-backto-Renderer" style="stroke:#181818;stroke-width:1.0;"/><polygon fill="#181818" points="863.14,298.1737,870.4783,304.7425,867.8988,299.708,872.9332,297.1285,863.14,298.1737" style="stroke:#181818;stroke-width:1.0;"/></g><!--reverse link SpriteSettings to Colour--><g id="link_SpriteSettings_Colour"><path codeLine="220" d="M433.794,1202.0598 C455.494,1234.8398 474.13,1263.0037 496.43,1296.7037 " fill="none" id="SpriteSettings-backto-Colour" style="stroke:#181818;stroke-width:1.0;"/><polygon fill="#181818" points="427.17,1192.0537,427.1466,1199.2647,433.794,1202.0598,433.8174,1194.8488,427.17,1192.0537" style="stroke:#181818;stroke-width:1.0;"/></g><!--reverse link AnimatedSprite to AnimationSettings--><g id="link_AnimatedSprite_AnimationSettings"><path codeLine="222" d="M643.7731,788.6527 C652.5731,856.0727 663.7,941.2737 673.13,1013.4637 " fill="none" id="AnimatedSprite-backto-AnimationSettings" style="stroke:#181818;stroke-width:1.0;"/><polygon fill="#181818" points="642.22,776.7537,639.0302,783.2209,643.7731,788.6527,646.9629,782.1855,642.22,776.7537" style="stroke:#181818;stroke-width:1.0;"/></g><!--SRC=[lHbTRzisyBdw5G8C17AQ5bWsxC7eYnCtgR6sAMAd1VPYq1OjQvL8ZwJYk5tsstVyaYY9KjIYNO14ul7kUDztOWZACT-Z3GulASDVWn1-DXdYF7nDafJWK8Fap_ElN22HRXx3Qomk2yOm4GiiH4eI7et3IMWN9twIJoc9wM6HVi4AUtt-4M_EEr0fo-9vRF3CoiTsJbAHeipolATfxC5Q2CH4T0sgBd6-pv309-4gSPQzj7JVntjEu8s04097KvRmbozVXWYUacHvwY6OOIuOFIfnRjP_uOqu3LTKlVGSSyamd711usEqFfUF6Tu2tLg_QJj9yDoh0nPNY7t84C7HDgD8XAjxb1MzQcDnpT1zAkHvqb5WCBtk9tgFl_qW9p2Ab8XVVby1tI6DnUuih00xd2OxCOJJCXKPZZOKF1DkTeY1dOG4zTF-IMa-LEWbJP8CV-H7iedMb6RX2XEqRfpmgFuw6UK6e9DNesO8XHqnDD9nt99hv8_HqTq-bYoDJZ7E15gc-G0XTLYw8ieuyyNOYE_G7aC4gis5MLGMgxYPi5qUznZ2jdm_2xMVT911MkufXvIcP5mn-TVXue2dSNn9ypqbK8TwxVPSrgiIixbvYtDwZwlzyWt2PcFVLOA1epl9-CrMgkEf522ciaja5Vr0isD2YT9LlOqhuytx2ArvWTAQlJBVKAvW2rL5t99n4dxzky3i-5X3iyT5uvfpJsf87uoxd9BkPNPBPUgKUB3qeaq9v9N2qL7hmvdF58Ai3B-Uhpmu2qUihkXgkMdXo6Y9000qp82zD5fWas98BhneIuO8trAMTmbq5lu87WC5xomaGog6Ghp59COiwYybPNAuGuIJY4w6-w0ZfnHDdBfq-d_heP4myyv2CuOEKvBcojABFKlXt2L-40N3ik_eD-kP2j6EIjBX3PX5rimSJ5u3zBGdAPEf1wPxWoZtcC4c1lQGE7g97ovfGSGPU2gZ1PFrJZwVuFoKajyYTylMSx8lHDVG-GS-Hl0RhZxZOxiYDp1dz426Oz_j1-9EoT4oxqTyHmkE8_NteX224cXxwZc0JB7_Fb9GvFi8eMGsv_BAEqqtNT27yzaChul4wwivVwtceRZFHdC-dLvS349KlMS8JurYPhAdfZYDB8Nu9W8jJ2T9AwHbvUa8QBcrm90sCQ-Qdk7o60G1AR_EPaWWz-lCP9zhVGEAoiQuWiAIu2le64YCtHPAC9FbKTK1XVD93ziLu8qQjc7y9ZnD28xj70rb5RKDT05ZTrb3X_JiZe6Z_cbOmwciQdkBgbXA_MVFdZEW0jvcbTHMwzeAkMQ6jMQaRS6C2HBpN5TTUMpGGSphjxSOcGagoVB9v1vlVdE51RJIoLUCvc_mGrJwf0mOVN1WTQjKW_Y2TYFzJvoFSpjdka6WsmcETSLrOw6-4stnPF9Zcb8vT71mrbceao17dtLMZ7-g1Ds7oLI2OIUxOc0nrTEKTwGJVTFXvN6JcV3dSe9GPCRdsv95Urg0Os00HaKckcunEWOAnsTjN_LRgA6qrm_ZeSpwQMKArbgrljLfjFEcGKVrzjwYg13fTikny1ZDo2Spqv6x4kmgI_TlA4k_K09ExY_M4lUZ6dMUmfI1e9DVcqMUhG4dtPCG4DqeDPf3k5REIz0mwdTETuiTFVGgz7EcuG61_rYlLLQ5zcLY6IDEz9jR9S-5OFUElcnHro-jKU1GNG71ddC9LA5ipHLLhU6g7O8xjxvGchUX-ZJTBKr_axTLJGJLNvlxhK6X7XAkaNGqrfg6th2VVXuZoUJsWBUrN6gPR-kaJsjJVPisnfI63grItkvApgQkmQ2T_IfXz61VIP6hkioT2hNTyxOFWBp82Q-wl07B8byr1E_segp-pMqfI1CcwYsckLrlB0t-Hgc6K8qsKKkZgpJ3yvkmrkyvb9XtYC20vlyOVKjHRCT07VfSn9C95moiBMyAaDYf-wzMYIrPt95i89CoDchzJOfz9zACUmLy_P1omOUnhLFAcKjA9VdtqZlGogmroxrwyS9QeBrHoXy4vZyWfm2jRX-QK7kXwyBhrSxkIExgyzO5L1zIBjJUEBWmMRA3mBaJaIULSs4GLBSjh_w17LrC72Yjgn6KjngIZvav0pETA0xr2SvkdPQyI_tC3dNCQlcukWID-gRbL_KiQ4oof-NnJh48Wly0]--></g></svg>