<?xml version="1.0" encoding="us-ascii" standalone="no"?><svg xmlns="http://www.w3.org/2000/svg" xmlns:xlink="http://www.w3.org/1999/xlink" contentStyleType="text/css" height="1815.3px" preserveAspectRatio="none" style="width:2682px;height:1815px;background:#FFFFFF;" version="1.1" viewBox="0 0 2682 1815" width="2682px" zoomAndPan="magnify"><defs/><g><!--class Input--><g id="elem_Input"><rect codeLine="3" fill="#F1F1F1" height="177.2719" id="Input" rx="2.25" ry="2.25" style="stroke:#181818;stroke-width:0.45;" width="279" x="967.05" y="505.8"/><ellipse cx="1088.775" cy="520.2" fill="#ADD1B2" rx="9.9" ry="9.9" style="stroke:#181818;stroke-width:0.9;"/><path d="M1091.2641,516.4875 Q1091.4047,516.2906 1091.5734,516.1922 Q1091.7422,516.0938 1091.9391,516.0938 Q1092.2766,516.0938 1092.4875,516.3328 Q1092.6984,516.5578 1092.6984,517.1063 L1092.6984,518.4141 Q1092.6984,518.9625 1092.4875,519.2016 Q1092.2766,519.4406 1091.9391,519.4406 Q1091.6297,519.4406 1091.4469,519.2578 Q1091.2641,519.0891 1091.1656,518.625 Q1091.1234,518.3016 1090.9547,518.1328 Q1090.6594,517.7953 1090.1109,517.5984 Q1089.5625,517.4016 1089,517.4016 Q1088.3109,517.4016 1087.7344,517.6969 Q1087.1719,517.9922 1086.7219,518.6672 Q1086.2859,519.3422 1086.2859,520.2703 L1086.2859,521.2547 Q1086.2859,522.3656 1087.0875,523.1109 Q1087.8891,523.8422 1089.3234,523.8422 Q1090.1672,523.8422 1090.7578,523.6172 Q1091.1094,523.4766 1091.4891,523.0828 Q1091.7281,522.8438 1091.8547,522.7734 Q1091.9953,522.7031 1092.1781,522.7031 Q1092.4734,522.7031 1092.6984,522.9422 Q1092.9375,523.1672 1092.9375,523.4766 Q1092.9375,523.7859 1092.6281,524.1516 Q1092.1781,524.6719 1091.4609,524.9672 Q1090.4906,525.375 1089.3234,525.375 Q1087.9594,525.375 1086.8766,524.8125 Q1085.9906,524.3625 1085.3719,523.4063 Q1084.7531,522.4359 1084.7531,521.2828 L1084.7531,520.2422 Q1084.7531,519.0469 1085.3016,518.0203 Q1085.8641,516.9797 1086.8484,516.4313 Q1087.8328,515.8688 1088.9438,515.8688 Q1089.6047,515.8688 1090.1813,516.0234 Q1090.7719,516.1641 1091.2641,516.4875 Z " fill="#000000"/><text fill="#000000" font-family="sans-serif" font-size="12.6" lengthAdjust="spacing" textLength="27.9" x="1107.225" y="525.4172">Input</text><line style="stroke:#181818;stroke-width:0.45;" x1="967.95" x2="1245.15" y1="534.6" y2="534.6"/><line style="stroke:#181818;stroke-width:0.45;" x1="967.95" x2="1245.15" y1="541.8" y2="541.8"/><ellipse cx="976.95" cy="555.1295" fill="#84BE84" rx="2.7" ry="2.7" style="stroke:#038048;stroke-width:0.9;"/><text fill="#000000" font-family="sans-serif" font-size="12.6" lengthAdjust="spacing" text-decoration="underline" textLength="138.6" x="985.05" y="558.9967">GetKey(Key _key) : bool</text><ellipse cx="976.95" cy="571.8885" fill="#84BE84" rx="2.7" ry="2.7" style="stroke:#038048;stroke-width:0.9;"/><text fill="#000000" font-family="sans-serif" font-size="12.6" lengthAdjust="spacing" text-decoration="underline" textLength="170.1" x="985.05" y="575.7557">GetKeyDown(Key _key) : bool</text><ellipse cx="976.95" cy="588.6475" fill="#84BE84" rx="2.7" ry="2.7" style="stroke:#038048;stroke-width:0.9;"/><text fill="#000000" font-family="sans-serif" font-size="12.6" lengthAdjust="spacing" text-decoration="underline" textLength="153.9" x="985.05" y="592.5146">GetKeyUp(Key _key) : bool</text><ellipse cx="976.95" cy="605.4064" fill="#84BE84" rx="2.7" ry="2.7" style="stroke:#038048;stroke-width:0.9;"/><text fill="#000000" font-family="sans-serif" font-size="12.6" lengthAdjust="spacing" text-decoration="underline" textLength="139.5" x="985.05" y="609.2736">GetAnyKeyDown() : bool</text><ellipse cx="976.95" cy="622.1654" fill="#84BE84" rx="2.7" ry="2.7" style="stroke:#038048;stroke-width:0.9;"/><text fill="#000000" font-family="sans-serif" font-size="12.6" lengthAdjust="spacing" text-decoration="underline" textLength="224.1" x="985.05" y="626.0326">GetMouse(MouseButton _button) : bool</text><ellipse cx="976.95" cy="638.9244" fill="#84BE84" rx="2.7" ry="2.7" style="stroke:#038048;stroke-width:0.9;"/><text fill="#000000" font-family="sans-serif" font-size="12.6" lengthAdjust="spacing" text-decoration="underline" textLength="255.6" x="985.05" y="642.7916">GetMouseDown(MouseButton _button) : bool</text><ellipse cx="976.95" cy="655.6834" fill="#84BE84" rx="2.7" ry="2.7" style="stroke:#038048;stroke-width:0.9;"/><text fill="#000000" font-family="sans-serif" font-size="12.6" lengthAdjust="spacing" text-decoration="underline" textLength="239.4" x="985.05" y="659.5506">GetMouseUp(MouseButton _button) : bool</text><ellipse cx="976.95" cy="672.4424" fill="#84BE84" rx="2.7" ry="2.7" style="stroke:#038048;stroke-width:0.9;"/><text fill="#000000" font-family="sans-serif" font-size="12.6" lengthAdjust="spacing" text-decoration="underline" textLength="143.1" x="985.05" y="676.3096">GetMousePos() : b2Vec2</text></g><!--class Box2DDebug--><g id="elem_Box2DDebug"><rect codeLine="14" fill="#F1F1F1" height="76.718" id="Box2DDebug" rx="2.25" ry="2.25" style="stroke:#181818;stroke-width:0.45;" width="171.9" x="1278" y="556.2"/><ellipse cx="1322.775" cy="570.6" fill="#ADD1B2" rx="9.9" ry="9.9" style="stroke:#181818;stroke-width:0.9;"/><path d="M1325.2641,566.8875 Q1325.4047,566.6906 1325.5734,566.5922 Q1325.7422,566.4938 1325.9391,566.4938 Q1326.2766,566.4938 1326.4875,566.7328 Q1326.6984,566.9578 1326.6984,567.5063 L1326.6984,568.8141 Q1326.6984,569.3625 1326.4875,569.6016 Q1326.2766,569.8406 1325.9391,569.8406 Q1325.6297,569.8406 1325.4469,569.6578 Q1325.2641,569.4891 1325.1656,569.025 Q1325.1234,568.7016 1324.9547,568.5328 Q1324.6594,568.1953 1324.1109,567.9984 Q1323.5625,567.8016 1323,567.8016 Q1322.3109,567.8016 1321.7344,568.0969 Q1321.1719,568.3922 1320.7219,569.0672 Q1320.2859,569.7422 1320.2859,570.6703 L1320.2859,571.6547 Q1320.2859,572.7656 1321.0875,573.5109 Q1321.8891,574.2422 1323.3234,574.2422 Q1324.1672,574.2422 1324.7578,574.0172 Q1325.1094,573.8766 1325.4891,573.4828 Q1325.7281,573.2438 1325.8547,573.1734 Q1325.9953,573.1031 1326.1781,573.1031 Q1326.4734,573.1031 1326.6984,573.3422 Q1326.9375,573.5672 1326.9375,573.8766 Q1326.9375,574.1859 1326.6281,574.5516 Q1326.1781,575.0719 1325.4609,575.3672 Q1324.4906,575.775 1323.3234,575.775 Q1321.9594,575.775 1320.8766,575.2125 Q1319.9906,574.7625 1319.3719,573.8063 Q1318.7531,572.8359 1318.7531,571.6828 L1318.7531,570.6422 Q1318.7531,569.4469 1319.3016,568.4203 Q1319.8641,567.3797 1320.8484,566.8313 Q1321.8328,566.2688 1322.9438,566.2688 Q1323.6047,566.2688 1324.1813,566.4234 Q1324.7719,566.5641 1325.2641,566.8875 Z " fill="#000000"/><text fill="#000000" font-family="sans-serif" font-size="12.6" lengthAdjust="spacing" textLength="74.7" x="1341.225" y="575.8172">Box2DDebug</text><line style="stroke:#181818;stroke-width:0.45;" x1="1278.9" x2="1449" y1="585" y2="585"/><line style="stroke:#181818;stroke-width:0.45;" x1="1278.9" x2="1449" y1="592.2" y2="592.2"/><ellipse cx="1287.9" cy="605.5295" fill="#84BE84" rx="2.7" ry="2.7" style="stroke:#038048;stroke-width:0.9;"/><text fill="#000000" font-family="sans-serif" font-size="12.6" lengthAdjust="spacing" text-decoration="underline" textLength="99.9" x="1296" y="609.3967">IsEnabled() : bool</text><ellipse cx="1287.9" cy="622.2885" fill="#84BE84" rx="2.7" ry="2.7" style="stroke:#038048;stroke-width:0.9;"/><text fill="#000000" font-family="sans-serif" font-size="12.6" lengthAdjust="spacing" text-decoration="underline" textLength="148.5" x="1296" y="626.1557">Enable(bool _value) : void</text></g><!--class AnimatedSprite--><g id="elem_AnimatedSprite"><rect codeLine="19" fill="#F1F1F1" height="143.7539" id="AnimatedSprite" rx="2.25" ry="2.25" style="stroke:#181818;stroke-width:0.45;" width="731.7" x="819.9" y="1434.6"/><ellipse cx="1138.725" cy="1449" fill="#ADD1B2" rx="9.9" ry="9.9" style="stroke:#181818;stroke-width:0.9;"/><path d="M1141.2141,1445.2875 Q1141.3547,1445.0906 1141.5234,1444.9922 Q1141.6922,1444.8938 1141.8891,1444.8938 Q1142.2266,1444.8938 1142.4375,1445.1328 Q1142.6484,1445.3578 1142.6484,1445.9063 L1142.6484,1447.2141 Q1142.6484,1447.7625 1142.4375,1448.0016 Q1142.2266,1448.2406 1141.8891,1448.2406 Q1141.5797,1448.2406 1141.3969,1448.0578 Q1141.2141,1447.8891 1141.1156,1447.425 Q1141.0734,1447.1016 1140.9047,1446.9328 Q1140.6094,1446.5953 1140.0609,1446.3984 Q1139.5125,1446.2016 1138.95,1446.2016 Q1138.2609,1446.2016 1137.6844,1446.4969 Q1137.1219,1446.7922 1136.6719,1447.4672 Q1136.2359,1448.1422 1136.2359,1449.0703 L1136.2359,1450.0547 Q1136.2359,1451.1656 1137.0375,1451.9109 Q1137.8391,1452.6422 1139.2734,1452.6422 Q1140.1172,1452.6422 1140.7078,1452.4172 Q1141.0594,1452.2766 1141.4391,1451.8828 Q1141.6781,1451.6438 1141.8047,1451.5734 Q1141.9453,1451.5031 1142.1281,1451.5031 Q1142.4234,1451.5031 1142.6484,1451.7422 Q1142.8875,1451.9672 1142.8875,1452.2766 Q1142.8875,1452.5859 1142.5781,1452.9516 Q1142.1281,1453.4719 1141.4109,1453.7672 Q1140.4406,1454.175 1139.2734,1454.175 Q1137.9094,1454.175 1136.8266,1453.6125 Q1135.9406,1453.1625 1135.3219,1452.2063 Q1134.7031,1451.2359 1134.7031,1450.0828 L1134.7031,1449.0422 Q1134.7031,1447.8469 1135.2516,1446.8203 Q1135.8141,1445.7797 1136.7984,1445.2313 Q1137.7828,1444.6688 1138.8938,1444.6688 Q1139.5547,1444.6688 1140.1313,1444.8234 Q1140.7219,1444.9641 1141.2141,1445.2875 Z " fill="#000000"/><text fill="#000000" font-family="sans-serif" font-size="12.6" lengthAdjust="spacing" textLength="86.4" x="1157.175" y="1454.2172">AnimatedSprite</text><line style="stroke:#181818;stroke-width:0.45;" x1="820.8" x2="1550.7" y1="1463.4" y2="1463.4"/><line style="stroke:#181818;stroke-width:0.45;" x1="820.8" x2="1550.7" y1="1470.6" y2="1470.6"/><ellipse cx="829.8" cy="1483.9295" fill="#84BE84" rx="2.7" ry="2.7" style="stroke:#038048;stroke-width:0.9;"/><text fill="#000000" font-family="sans-serif" font-size="12.6" lengthAdjust="spacing" textLength="708.3" x="837.9" y="1487.7967">AnimatedSprite(fe::Texture* _texture, const AnimationSettings&amp; _animationSettings, const b2Vec2&amp; _size, bool _makeShape)</text><ellipse cx="829.8" cy="1500.6885" fill="#84BE84" rx="2.7" ry="2.7" style="stroke:#038048;stroke-width:0.9;"/><text fill="#000000" font-family="sans-serif" font-size="12.6" lengthAdjust="spacing" textLength="583.2" x="837.9" y="1504.5557">AnimatedSprite(fe::Texture* _texture, const AnimationSettings&amp; _animationSettings, bool _makeShape)</text><ellipse cx="829.8" cy="1517.4475" fill="#84BE84" rx="2.7" ry="2.7" style="stroke:#038048;stroke-width:0.9;"/><text fill="#000000" font-family="sans-serif" font-size="12.6" lengthAdjust="spacing" textLength="198.9" x="837.9" y="1521.3146">GetTotalFrameCount() : int {query}</text><ellipse cx="829.8" cy="1534.2064" fill="#84BE84" rx="2.7" ry="2.7" style="stroke:#038048;stroke-width:0.9;"/><text fill="#000000" font-family="sans-serif" font-size="12.6" lengthAdjust="spacing" textLength="278.1" x="837.9" y="1538.0736">SetCycle(int _startFrame, int _frameCount) : void</text><polygon fill="#FFFF44" points="829.8,1546.4654,833.4,1550.0654,829.8,1553.6654,826.2,1550.0654" style="stroke:#B38D22;stroke-width:0.9;"/><text fill="#000000" font-family="sans-serif" font-size="12.6" lengthAdjust="spacing" textLength="147.6" x="837.9" y="1554.8326">GetDefaultSize() : b2Vec2</text><polygon fill="#FFFF44" points="829.8,1563.2244,833.4,1566.8244,829.8,1570.4244,826.2,1566.8244" style="stroke:#B38D22;stroke-width:0.9;"/><text fill="#000000" font-family="sans-serif" font-size="12.6" lengthAdjust="spacing" textLength="85.5" x="837.9" y="1571.5916">Render() : void</text></g><!--class AssetManager--><g id="elem_AssetManager"><rect codeLine="28" fill="#F1F1F1" height="76.718" id="AssetManager" rx="2.25" ry="2.25" style="stroke:#181818;stroke-width:0.45;" width="297" x="215.55" y="1186.65"/><ellipse cx="319.275" cy="1201.05" fill="#ADD1B2" rx="9.9" ry="9.9" style="stroke:#181818;stroke-width:0.9;"/><path d="M321.7641,1197.3375 Q321.9047,1197.1406 322.0734,1197.0422 Q322.2422,1196.9438 322.4391,1196.9438 Q322.7766,1196.9438 322.9875,1197.1828 Q323.1984,1197.4078 323.1984,1197.9563 L323.1984,1199.2641 Q323.1984,1199.8125 322.9875,1200.0516 Q322.7766,1200.2906 322.4391,1200.2906 Q322.1297,1200.2906 321.9469,1200.1078 Q321.7641,1199.9391 321.6656,1199.475 Q321.6234,1199.1516 321.4547,1198.9828 Q321.1594,1198.6453 320.6109,1198.4484 Q320.0625,1198.2516 319.5,1198.2516 Q318.8109,1198.2516 318.2344,1198.5469 Q317.6719,1198.8422 317.2219,1199.5172 Q316.7859,1200.1922 316.7859,1201.1203 L316.7859,1202.1047 Q316.7859,1203.2156 317.5875,1203.9609 Q318.3891,1204.6922 319.8234,1204.6922 Q320.6672,1204.6922 321.2578,1204.4672 Q321.6094,1204.3266 321.9891,1203.9328 Q322.2281,1203.6938 322.3547,1203.6234 Q322.4953,1203.5531 322.6781,1203.5531 Q322.9734,1203.5531 323.1984,1203.7922 Q323.4375,1204.0172 323.4375,1204.3266 Q323.4375,1204.6359 323.1281,1205.0016 Q322.6781,1205.5219 321.9609,1205.8172 Q320.9906,1206.225 319.8234,1206.225 Q318.4594,1206.225 317.3766,1205.6625 Q316.4906,1205.2125 315.8719,1204.2563 Q315.2531,1203.2859 315.2531,1202.1328 L315.2531,1201.0922 Q315.2531,1199.8969 315.8016,1198.8703 Q316.3641,1197.8297 317.3484,1197.2813 Q318.3328,1196.7188 319.4438,1196.7188 Q320.1047,1196.7188 320.6813,1196.8734 Q321.2719,1197.0141 321.7641,1197.3375 Z " fill="#000000"/><text fill="#000000" font-family="sans-serif" font-size="12.6" lengthAdjust="spacing" textLength="81.9" x="337.725" y="1206.2672">AssetManager</text><line style="stroke:#181818;stroke-width:0.45;" x1="216.45" x2="511.65" y1="1215.45" y2="1215.45"/><line style="stroke:#181818;stroke-width:0.45;" x1="216.45" x2="511.65" y1="1222.65" y2="1222.65"/><ellipse cx="225.45" cy="1235.9795" fill="#84BE84" rx="2.7" ry="2.7" style="stroke:#038048;stroke-width:0.9;"/><text fill="#000000" font-family="sans-serif" font-size="12.6" lengthAdjust="spacing" text-decoration="underline" textLength="273.6" x="233.55" y="1239.8467">LoadTexture(const std::string&amp; _path) : Texture*</text><ellipse cx="225.45" cy="1252.7385" fill="#84BE84" rx="2.7" ry="2.7" style="stroke:#038048;stroke-width:0.9;"/><text fill="#000000" font-family="sans-serif" font-size="12.6" lengthAdjust="spacing" text-decoration="underline" textLength="261" x="233.55" y="1256.6057">UnloadTexture(const std::string&amp; _path) : bool</text></g><!--class Component--><g id="elem_Component"><rect codeLine="35" fill="#F1F1F1" height="143.7539" id="Component" rx="2.25" ry="2.25" style="stroke:#181818;stroke-width:0.45;" width="198" x="1636.65" y="871.2"/><ellipse cx="1698.975" cy="885.6" fill="#ADD1B2" rx="9.9" ry="9.9" style="stroke:#181818;stroke-width:0.9;"/><path d="M1701.4641,881.8875 Q1701.6047,881.6906 1701.7734,881.5922 Q1701.9422,881.4938 1702.1391,881.4938 Q1702.4766,881.4938 1702.6875,881.7328 Q1702.8984,881.9578 1702.8984,882.5063 L1702.8984,883.8141 Q1702.8984,884.3625 1702.6875,884.6016 Q1702.4766,884.8406 1702.1391,884.8406 Q1701.8297,884.8406 1701.6469,884.6578 Q1701.4641,884.4891 1701.3656,884.025 Q1701.3234,883.7016 1701.1547,883.5328 Q1700.8594,883.1953 1700.3109,882.9984 Q1699.7625,882.8016 1699.2,882.8016 Q1698.5109,882.8016 1697.9344,883.0969 Q1697.3719,883.3922 1696.9219,884.0672 Q1696.4859,884.7422 1696.4859,885.6703 L1696.4859,886.6547 Q1696.4859,887.7656 1697.2875,888.5109 Q1698.0891,889.2422 1699.5234,889.2422 Q1700.3672,889.2422 1700.9578,889.0172 Q1701.3094,888.8766 1701.6891,888.4828 Q1701.9281,888.2438 1702.0547,888.1734 Q1702.1953,888.1031 1702.3781,888.1031 Q1702.6734,888.1031 1702.8984,888.3422 Q1703.1375,888.5672 1703.1375,888.8766 Q1703.1375,889.1859 1702.8281,889.5516 Q1702.3781,890.0719 1701.6609,890.3672 Q1700.6906,890.775 1699.5234,890.775 Q1698.1594,890.775 1697.0766,890.2125 Q1696.1906,889.7625 1695.5719,888.8063 Q1694.9531,887.8359 1694.9531,886.6828 L1694.9531,885.6422 Q1694.9531,884.4469 1695.5016,883.4203 Q1696.0641,882.3797 1697.0484,881.8313 Q1698.0328,881.2688 1699.1438,881.2688 Q1699.8047,881.2688 1700.3813,881.4234 Q1700.9719,881.5641 1701.4641,881.8875 Z " fill="#000000"/><text fill="#000000" font-family="sans-serif" font-size="12.6" lengthAdjust="spacing" textLength="65.7" x="1717.425" y="890.8172">Component</text><line style="stroke:#181818;stroke-width:0.45;" x1="1637.55" x2="1833.75" y1="900" y2="900"/><polygon fill="none" points="1646.55,908.8295,1650.15,912.4295,1646.55,916.0295,1642.95,912.4295" style="stroke:#B38D22;stroke-width:0.9;"/><text fill="#000000" font-family="sans-serif" font-size="12.6" lengthAdjust="spacing" textLength="157.5" x="1654.65" y="917.1967">GameObject : GameObject*</text><line style="stroke:#181818;stroke-width:0.45;" x1="1637.55" x2="1833.75" y1="923.959" y2="923.959"/><ellipse cx="1646.55" cy="937.2885" fill="#84BE84" rx="2.7" ry="2.7" style="stroke:#038048;stroke-width:0.9;"/><text fill="#000000" font-family="sans-serif" font-size="12.6" lengthAdjust="spacing" textLength="74.7" x="1654.65" y="941.1557">Component()</text><ellipse cx="1646.55" cy="954.0475" fill="#84BE84" rx="2.7" ry="2.7" style="stroke:#038048;stroke-width:0.9;"/><text fill="#000000" font-family="sans-serif" font-size="12.6" lengthAdjust="spacing" textLength="81.9" x="1654.65" y="957.9146">~Component()</text><polygon fill="#FFFF44" points="1646.55,966.3064,1650.15,969.9064,1646.55,973.5064,1642.95,969.9064" style="stroke:#B38D22;stroke-width:0.9;"/><text fill="#000000" font-family="sans-serif" font-size="12.6" lengthAdjust="spacing" textLength="70.2" x="1654.65" y="974.6736">Start() : void</text><polygon fill="#FFFF44" points="1646.55,983.0654,1650.15,986.6654,1646.55,990.2654,1642.95,986.6654" style="stroke:#B38D22;stroke-width:0.9;"/><text fill="#000000" font-family="sans-serif" font-size="12.6" lengthAdjust="spacing" textLength="174.6" x="1654.65" y="991.4326">Update(float _deltaTime) : void</text><polygon fill="#FFFF44" points="1646.55,999.8244,1650.15,1003.4244,1646.55,1007.0244,1642.95,1003.4244" style="stroke:#B38D22;stroke-width:0.9;"/><text fill="#000000" font-family="sans-serif" font-size="12.6" lengthAdjust="spacing" textLength="85.5" x="1654.65" y="1008.1916">Render() : void</text></g><!--class Engine--><g id="elem_Engine"><rect codeLine="44" fill="#F1F1F1" height="311.3438" id="Engine" rx="2.25" ry="2.25" style="stroke:#181818;stroke-width:0.45;" width="337.5" x="1869.3" y="6.3"/><ellipse cx="2014.425" cy="20.7" fill="#ADD1B2" rx="9.9" ry="9.9" style="stroke:#181818;stroke-width:0.9;"/><path d="M2016.9141,16.9875 Q2017.0547,16.7906 2017.2234,16.6922 Q2017.3922,16.5938 2017.5891,16.5938 Q2017.9266,16.5938 2018.1375,16.8328 Q2018.3484,17.0578 2018.3484,17.6063 L2018.3484,18.9141 Q2018.3484,19.4625 2018.1375,19.7016 Q2017.9266,19.9406 2017.5891,19.9406 Q2017.2797,19.9406 2017.0969,19.7578 Q2016.9141,19.5891 2016.8156,19.125 Q2016.7734,18.8016 2016.6047,18.6328 Q2016.3094,18.2953 2015.7609,18.0984 Q2015.2125,17.9016 2014.65,17.9016 Q2013.9609,17.9016 2013.3844,18.1969 Q2012.8219,18.4922 2012.3719,19.1672 Q2011.9359,19.8422 2011.9359,20.7703 L2011.9359,21.7547 Q2011.9359,22.8656 2012.7375,23.6109 Q2013.5391,24.3422 2014.9734,24.3422 Q2015.8172,24.3422 2016.4078,24.1172 Q2016.7594,23.9766 2017.1391,23.5828 Q2017.3781,23.3438 2017.5047,23.2734 Q2017.6453,23.2031 2017.8281,23.2031 Q2018.1234,23.2031 2018.3484,23.4422 Q2018.5875,23.6672 2018.5875,23.9766 Q2018.5875,24.2859 2018.2781,24.6516 Q2017.8281,25.1719 2017.1109,25.4672 Q2016.1406,25.875 2014.9734,25.875 Q2013.6094,25.875 2012.5266,25.3125 Q2011.6406,24.8625 2011.0219,23.9063 Q2010.4031,22.9359 2010.4031,21.7828 L2010.4031,20.7422 Q2010.4031,19.5469 2010.9516,18.5203 Q2011.5141,17.4797 2012.4984,16.9313 Q2013.4828,16.3688 2014.5938,16.3688 Q2015.2547,16.3688 2015.8313,16.5234 Q2016.4219,16.6641 2016.9141,16.9875 Z " fill="#000000"/><text fill="#000000" font-family="sans-serif" font-size="12.6" lengthAdjust="spacing" textLength="39.6" x="2032.875" y="25.9172">Engine</text><line style="stroke:#181818;stroke-width:0.45;" x1="1870.2" x2="2205.9" y1="35.1" y2="35.1"/><line style="stroke:#181818;stroke-width:0.45;" x1="1870.2" x2="2205.9" y1="42.3" y2="42.3"/><ellipse cx="1879.2" cy="55.6295" fill="#84BE84" rx="2.7" ry="2.7" style="stroke:#038048;stroke-width:0.9;"/><text fill="#000000" font-family="sans-serif" font-size="12.6" lengthAdjust="spacing" text-decoration="underline" textLength="183.6" x="1887.3" y="59.4967">GetCurrentSettings() : Settings&amp;</text><ellipse cx="1879.2" cy="72.3885" fill="#84BE84" rx="2.7" ry="2.7" style="stroke:#038048;stroke-width:0.9;"/><text fill="#000000" font-family="sans-serif" font-size="12.6" lengthAdjust="spacing" text-decoration="underline" textLength="151.2" x="1887.3" y="76.2557">GetWindowSize() : b2Vec2</text><ellipse cx="1879.2" cy="89.1475" fill="#84BE84" rx="2.7" ry="2.7" style="stroke:#038048;stroke-width:0.9;"/><text fill="#000000" font-family="sans-serif" font-size="12.6" lengthAdjust="spacing" text-decoration="underline" textLength="149.4" x="1887.3" y="93.0146">GetWorldId() : b2WorldId&amp;</text><ellipse cx="1879.2" cy="105.9064" fill="#84BE84" rx="2.7" ry="2.7" style="stroke:#038048;stroke-width:0.9;"/><text fill="#000000" font-family="sans-serif" font-size="12.6" lengthAdjust="spacing" text-decoration="underline" textLength="87.3" x="1887.3" y="109.7736">Initialize() : void</text><ellipse cx="1879.2" cy="122.6654" fill="#84BE84" rx="2.7" ry="2.7" style="stroke:#038048;stroke-width:0.9;"/><text fill="#000000" font-family="sans-serif" font-size="12.6" lengthAdjust="spacing" text-decoration="underline" textLength="261" x="1887.3" y="126.5326">Start(GameTemplate&amp; _gameTemplate) : void</text><ellipse cx="1879.2" cy="139.4244" fill="#84BE84" rx="2.7" ry="2.7" style="stroke:#038048;stroke-width:0.9;"/><text fill="#000000" font-family="sans-serif" font-size="12.6" lengthAdjust="spacing" text-decoration="underline" textLength="69.3" x="1887.3" y="143.2916">Stop() : void</text><ellipse cx="1879.2" cy="156.1834" fill="#84BE84" rx="2.7" ry="2.7" style="stroke:#038048;stroke-width:0.9;"/><text fill="#000000" font-family="sans-serif" font-size="12.6" lengthAdjust="spacing" text-decoration="underline" textLength="156.6" x="1887.3" y="160.0506">Instantiate(Args... args) : T*</text><ellipse cx="1879.2" cy="172.9424" fill="#84BE84" rx="2.7" ry="2.7" style="stroke:#038048;stroke-width:0.9;"/><text fill="#000000" font-family="sans-serif" font-size="12.6" lengthAdjust="spacing" text-decoration="underline" textLength="207.9" x="1887.3" y="176.8096">Destroy(GameObject* _object) : void</text><ellipse cx="1879.2" cy="189.7014" fill="#84BE84" rx="2.7" ry="2.7" style="stroke:#038048;stroke-width:0.9;"/><text fill="#000000" font-family="sans-serif" font-size="12.6" lengthAdjust="spacing" text-decoration="underline" textLength="266.4" x="1887.3" y="193.5686">CreateBody(b2BodyDef* _bodyDef) : b2BodyId</text><ellipse cx="1879.2" cy="206.4604" fill="#84BE84" rx="2.7" ry="2.7" style="stroke:#038048;stroke-width:0.9;"/><text fill="#000000" font-family="sans-serif" font-size="12.6" lengthAdjust="spacing" text-decoration="underline" textLength="180" x="1887.3" y="210.3275">SetFarPlane(float _value) : void</text><ellipse cx="1879.2" cy="223.2193" fill="#84BE84" rx="2.7" ry="2.7" style="stroke:#038048;stroke-width:0.9;"/><text fill="#000000" font-family="sans-serif" font-size="12.6" lengthAdjust="spacing" text-decoration="underline" textLength="194.4" x="1887.3" y="227.0865">SetGravity(b2Vec2 _gravity) : void</text><ellipse cx="1879.2" cy="239.9783" fill="#84BE84" rx="2.7" ry="2.7" style="stroke:#038048;stroke-width:0.9;"/><text fill="#000000" font-family="sans-serif" font-size="12.6" lengthAdjust="spacing" text-decoration="underline" textLength="187.2" x="1887.3" y="243.8455">SetNearPlane(float _value) : void</text><ellipse cx="1879.2" cy="256.7373" fill="#84BE84" rx="2.7" ry="2.7" style="stroke:#038048;stroke-width:0.9;"/><text fill="#000000" font-family="sans-serif" font-size="12.6" lengthAdjust="spacing" text-decoration="underline" textLength="314.1" x="1887.3" y="260.6045">SetWindowSize(uint16_t _width, uint16_t _height) : void</text><ellipse cx="1879.2" cy="273.4963" fill="#84BE84" rx="2.7" ry="2.7" style="stroke:#038048;stroke-width:0.9;"/><text fill="#000000" font-family="sans-serif" font-size="12.6" lengthAdjust="spacing" text-decoration="underline" textLength="225" x="1887.3" y="277.3635">SetWindowTitle(const char* _title) : void</text><ellipse cx="1879.2" cy="290.2553" fill="#84BE84" rx="2.7" ry="2.7" style="stroke:#038048;stroke-width:0.9;"/><text fill="#000000" font-family="sans-serif" font-size="12.6" lengthAdjust="spacing" text-decoration="underline" textLength="159.3" x="1887.3" y="294.1225">SetZoom(float _value) : void</text><ellipse cx="1879.2" cy="307.0143" fill="#84BE84" rx="2.7" ry="2.7" style="stroke:#038048;stroke-width:0.9;"/><text fill="#000000" font-family="sans-serif" font-size="12.6" lengthAdjust="spacing" text-decoration="underline" textLength="190.8" x="1887.3" y="310.8814">ToggleVsync(bool _enable) : void</text></g><!--class FileUtils--><g id="elem_FileUtils"><rect codeLine="63" fill="#F1F1F1" height="76.718" id="FileUtils" rx="2.25" ry="2.25" style="stroke:#181818;stroke-width:0.45;" width="308.7" x="6.3" y="1468.35"/><ellipse cx="134.775" cy="1482.75" fill="#ADD1B2" rx="9.9" ry="9.9" style="stroke:#181818;stroke-width:0.9;"/><path d="M137.2641,1479.0375 Q137.4047,1478.8406 137.5734,1478.7422 Q137.7422,1478.6438 137.9391,1478.6438 Q138.2766,1478.6438 138.4875,1478.8828 Q138.6984,1479.1078 138.6984,1479.6563 L138.6984,1480.9641 Q138.6984,1481.5125 138.4875,1481.7516 Q138.2766,1481.9906 137.9391,1481.9906 Q137.6297,1481.9906 137.4469,1481.8078 Q137.2641,1481.6391 137.1656,1481.175 Q137.1234,1480.8516 136.9547,1480.6828 Q136.6594,1480.3453 136.1109,1480.1484 Q135.5625,1479.9516 135,1479.9516 Q134.3109,1479.9516 133.7344,1480.2469 Q133.1719,1480.5422 132.7219,1481.2172 Q132.2859,1481.8922 132.2859,1482.8203 L132.2859,1483.8047 Q132.2859,1484.9156 133.0875,1485.6609 Q133.8891,1486.3922 135.3234,1486.3922 Q136.1672,1486.3922 136.7578,1486.1672 Q137.1094,1486.0266 137.4891,1485.6328 Q137.7281,1485.3938 137.8547,1485.3234 Q137.9953,1485.2531 138.1781,1485.2531 Q138.4734,1485.2531 138.6984,1485.4922 Q138.9375,1485.7172 138.9375,1486.0266 Q138.9375,1486.3359 138.6281,1486.7016 Q138.1781,1487.2219 137.4609,1487.5172 Q136.4906,1487.925 135.3234,1487.925 Q133.9594,1487.925 132.8766,1487.3625 Q131.9906,1486.9125 131.3719,1485.9563 Q130.7531,1484.9859 130.7531,1483.8328 L130.7531,1482.7922 Q130.7531,1481.5969 131.3016,1480.5703 Q131.8641,1479.5297 132.8484,1478.9813 Q133.8328,1478.4188 134.9438,1478.4188 Q135.6047,1478.4188 136.1813,1478.5734 Q136.7719,1478.7141 137.2641,1479.0375 Z " fill="#000000"/><text fill="#000000" font-family="sans-serif" font-size="12.6" lengthAdjust="spacing" textLength="44.1" x="153.225" y="1487.9672">FileUtils</text><line style="stroke:#181818;stroke-width:0.45;" x1="7.2" x2="314.1" y1="1497.15" y2="1497.15"/><line style="stroke:#181818;stroke-width:0.45;" x1="7.2" x2="314.1" y1="1504.35" y2="1504.35"/><ellipse cx="16.2" cy="1517.6795" fill="#84BE84" rx="2.7" ry="2.7" style="stroke:#038048;stroke-width:0.9;"/><text fill="#000000" font-family="sans-serif" font-size="12.6" lengthAdjust="spacing" text-decoration="underline" textLength="210.6" x="24.3" y="1521.5467">Exists(const std::string&amp; _path) : bool</text><ellipse cx="16.2" cy="1534.4385" fill="#84BE84" rx="2.7" ry="2.7" style="stroke:#038048;stroke-width:0.9;"/><text fill="#000000" font-family="sans-serif" font-size="12.6" lengthAdjust="spacing" text-decoration="underline" textLength="285.3" x="24.3" y="1538.3057">ReadTextFile(const std::string&amp; _path) : std::string</text></g><!--class GameObject--><g id="elem_GameObject"><rect codeLine="68" fill="#F1F1F1" height="445.4156" id="GameObject" rx="2.25" ry="2.25" style="stroke:#181818;stroke-width:0.45;" width="508.5" x="1481.4" y="371.7"/><ellipse cx="1696.275" cy="386.1" fill="#ADD1B2" rx="9.9" ry="9.9" style="stroke:#181818;stroke-width:0.9;"/><path d="M1698.7641,382.3875 Q1698.9047,382.1906 1699.0734,382.0922 Q1699.2422,381.9938 1699.4391,381.9938 Q1699.7766,381.9938 1699.9875,382.2328 Q1700.1984,382.4578 1700.1984,383.0063 L1700.1984,384.3141 Q1700.1984,384.8625 1699.9875,385.1016 Q1699.7766,385.3406 1699.4391,385.3406 Q1699.1297,385.3406 1698.9469,385.1578 Q1698.7641,384.9891 1698.6656,384.525 Q1698.6234,384.2016 1698.4547,384.0328 Q1698.1594,383.6953 1697.6109,383.4984 Q1697.0625,383.3016 1696.5,383.3016 Q1695.8109,383.3016 1695.2344,383.5969 Q1694.6719,383.8922 1694.2219,384.5672 Q1693.7859,385.2422 1693.7859,386.1703 L1693.7859,387.1547 Q1693.7859,388.2656 1694.5875,389.0109 Q1695.3891,389.7422 1696.8234,389.7422 Q1697.6672,389.7422 1698.2578,389.5172 Q1698.6094,389.3766 1698.9891,388.9828 Q1699.2281,388.7438 1699.3547,388.6734 Q1699.4953,388.6031 1699.6781,388.6031 Q1699.9734,388.6031 1700.1984,388.8422 Q1700.4375,389.0672 1700.4375,389.3766 Q1700.4375,389.6859 1700.1281,390.0516 Q1699.6781,390.5719 1698.9609,390.8672 Q1697.9906,391.275 1696.8234,391.275 Q1695.4594,391.275 1694.3766,390.7125 Q1693.4906,390.2625 1692.8719,389.3063 Q1692.2531,388.3359 1692.2531,387.1828 L1692.2531,386.1422 Q1692.2531,384.9469 1692.8016,383.9203 Q1693.3641,382.8797 1694.3484,382.3313 Q1695.3328,381.7688 1696.4438,381.7688 Q1697.1047,381.7688 1697.6813,381.9234 Q1698.2719,382.0641 1698.7641,382.3875 Z " fill="#000000"/><text fill="#000000" font-family="sans-serif" font-size="12.6" lengthAdjust="spacing" textLength="71.1" x="1714.725" y="391.3172">GameObject</text><line style="stroke:#181818;stroke-width:0.45;" x1="1482.3" x2="1989" y1="400.5" y2="400.5"/><polygon fill="none" points="1491.3,409.3295,1494.9,412.9295,1491.3,416.5295,1487.7,412.9295" style="stroke:#B38D22;stroke-width:0.9;"/><text fill="#000000" font-family="sans-serif" font-size="12.6" lengthAdjust="spacing" textLength="91.8" x="1499.4" y="417.6967">body : b2BodyId</text><polygon fill="none" points="1491.3,426.0885,1494.9,429.6885,1491.3,433.2885,1487.7,429.6885" style="stroke:#B38D22;stroke-width:0.9;"/><text fill="#000000" font-family="sans-serif" font-size="12.6" lengthAdjust="spacing" textLength="136.8" x="1499.4" y="434.4557">shapeDef : b2ShapeDef</text><line style="stroke:#181818;stroke-width:0.45;" x1="1482.3" x2="1989" y1="441.218" y2="441.218"/><ellipse cx="1491.3" cy="454.5475" fill="#84BE84" rx="2.7" ry="2.7" style="stroke:#038048;stroke-width:0.9;"/><text fill="#000000" font-family="sans-serif" font-size="12.6" lengthAdjust="spacing" textLength="382.5" x="1499.4" y="458.4146">GameObject(b2BodyType _b2BodyType, const b2Vec2&amp; _position)</text><ellipse cx="1491.3" cy="471.3064" fill="#84BE84" rx="2.7" ry="2.7" style="stroke:#038048;stroke-width:0.9;"/><text fill="#000000" font-family="sans-serif" font-size="12.6" lengthAdjust="spacing" textLength="87.3" x="1499.4" y="475.1736">~GameObject()</text><ellipse cx="1491.3" cy="488.0654" fill="#84BE84" rx="2.7" ry="2.7" style="stroke:#038048;stroke-width:0.9;"/><text fill="#000000" font-family="sans-serif" font-size="12.6" lengthAdjust="spacing" textLength="189.9" x="1499.4" y="491.9326">AddComponent(Args ... args) : T*</text><ellipse cx="1491.3" cy="504.8244" fill="#84BE84" rx="2.7" ry="2.7" style="stroke:#038048;stroke-width:0.9;"/><text fill="#000000" font-family="sans-serif" font-size="12.6" lengthAdjust="spacing" textLength="118.8" x="1499.4" y="508.6916">GetComponent() : T*</text><ellipse cx="1491.3" cy="521.5834" fill="#84BE84" rx="2.7" ry="2.7" style="stroke:#038048;stroke-width:0.9;"/><text fill="#000000" font-family="sans-serif" font-size="12.6" lengthAdjust="spacing" textLength="300.6" x="1499.4" y="525.4506">RemoveComponent(Component* _component) : bool</text><ellipse cx="1491.3" cy="538.3424" fill="#84BE84" rx="2.7" ry="2.7" style="stroke:#038048;stroke-width:0.9;"/><text fill="#000000" font-family="sans-serif" font-size="12.6" lengthAdjust="spacing" textLength="204.3" x="1499.4" y="542.2096">RemoveComponentsOfType() : void</text><ellipse cx="1491.3" cy="555.1014" fill="#84BE84" rx="2.7" ry="2.7" style="stroke:#038048;stroke-width:0.9;"/><text fill="#000000" font-family="sans-serif" font-size="12.6" lengthAdjust="spacing" textLength="298.8" x="1499.4" y="558.9686">AddShape(const b2Polygon&amp; _polygon) : b2ShapeId</text><ellipse cx="1491.3" cy="571.8604" fill="#84BE84" rx="2.7" ry="2.7" style="stroke:#038048;stroke-width:0.9;"/><text fill="#000000" font-family="sans-serif" font-size="12.6" lengthAdjust="spacing" textLength="485.1" x="1499.4" y="575.7275">AddShape(const b2ShapeDef&amp; _shapeDef, const b2Polygon&amp; _polygon) : b2ShapeId</text><ellipse cx="1491.3" cy="588.6193" fill="#84BE84" rx="2.7" ry="2.7" style="stroke:#038048;stroke-width:0.9;"/><text fill="#000000" font-family="sans-serif" font-size="12.6" lengthAdjust="spacing" textLength="175.5" x="1499.4" y="592.4865">GetBody() : b2BodyId&amp; {query}</text><ellipse cx="1491.3" cy="605.3783" fill="#84BE84" rx="2.7" ry="2.7" style="stroke:#038048;stroke-width:0.9;"/><text fill="#000000" font-family="sans-serif" font-size="12.6" lengthAdjust="spacing" textLength="176.4" x="1499.4" y="609.2455">GetShapeDef() : b2ShapeDef&amp;</text><ellipse cx="1491.3" cy="622.1373" fill="#84BE84" rx="2.7" ry="2.7" style="stroke:#038048;stroke-width:0.9;"/><text fill="#000000" font-family="sans-serif" font-size="12.6" lengthAdjust="spacing" textLength="173.7" x="1499.4" y="626.0045">GetPosition() : b2Vec2 {query}</text><ellipse cx="1491.3" cy="638.8963" fill="#84BE84" rx="2.7" ry="2.7" style="stroke:#038048;stroke-width:0.9;"/><text fill="#000000" font-family="sans-serif" font-size="12.6" lengthAdjust="spacing" textLength="167.4" x="1499.4" y="642.7635">GetRotation() : b2Rot {query}</text><ellipse cx="1491.3" cy="655.6553" fill="#84BE84" rx="2.7" ry="2.7" style="stroke:#038048;stroke-width:0.9;"/><text fill="#000000" font-family="sans-serif" font-size="12.6" lengthAdjust="spacing" textLength="142.2" x="1499.4" y="659.5225">GetAngle() : float {query}</text><ellipse cx="1491.3" cy="672.4143" fill="#84BE84" rx="2.7" ry="2.7" style="stroke:#038048;stroke-width:0.9;"/><text fill="#000000" font-family="sans-serif" font-size="12.6" lengthAdjust="spacing" textLength="143.1" x="1499.4" y="676.2814">GetID() : uint32_t {query}</text><ellipse cx="1491.3" cy="689.1732" fill="#84BE84" rx="2.7" ry="2.7" style="stroke:#038048;stroke-width:0.9;"/><text fill="#000000" font-family="sans-serif" font-size="12.6" lengthAdjust="spacing" textLength="247.5" x="1499.4" y="693.0404">SetPosition(const b2Vec2&amp; _position) : void</text><ellipse cx="1491.3" cy="705.9322" fill="#84BE84" rx="2.7" ry="2.7" style="stroke:#038048;stroke-width:0.9;"/><text fill="#000000" font-family="sans-serif" font-size="12.6" lengthAdjust="spacing" textLength="240.3" x="1499.4" y="709.7994">SetRotation(const b2Rot&amp; _rotation) : void</text><ellipse cx="1491.3" cy="722.6912" fill="#84BE84" rx="2.7" ry="2.7" style="stroke:#038048;stroke-width:0.9;"/><text fill="#000000" font-family="sans-serif" font-size="12.6" lengthAdjust="spacing" textLength="161.1" x="1499.4" y="726.5584">SetAngle(float _angle) : void</text><ellipse cx="1491.3" cy="739.4502" fill="#84BE84" rx="2.7" ry="2.7" style="stroke:#038048;stroke-width:0.9;"/><text fill="#000000" font-family="sans-serif" font-size="12.6" lengthAdjust="spacing" textLength="334.8" x="1499.4" y="743.3174">SetTransform(const b2Vec2&amp; _position, float _angle) : void</text><ellipse cx="1491.3" cy="756.2092" fill="#84BE84" rx="2.7" ry="2.7" style="stroke:#038048;stroke-width:0.9;"/><text fill="#000000" font-family="sans-serif" font-size="12.6" lengthAdjust="spacing" textLength="398.7" x="1499.4" y="760.0764">SetTransform(const b2Vec2&amp; _position, const b2Rot&amp; _rotation) : void</text><polygon fill="#FFFF44" points="1491.3,768.4682,1494.9,772.0682,1491.3,775.6682,1487.7,772.0682" style="stroke:#B38D22;stroke-width:0.9;"/><text fill="#000000" font-family="sans-serif" font-size="12.6" lengthAdjust="spacing" textLength="70.2" x="1499.4" y="776.8354">Start() : void</text><polygon fill="#FFFF44" points="1491.3,785.2271,1494.9,788.8271,1491.3,792.4271,1487.7,788.8271" style="stroke:#B38D22;stroke-width:0.9;"/><text fill="#000000" font-family="sans-serif" font-size="12.6" lengthAdjust="spacing" textLength="174.6" x="1499.4" y="793.5943">Update(float _deltaTime) : void</text><polygon fill="#FFFF44" points="1491.3,801.9861,1494.9,805.5861,1491.3,809.1861,1487.7,805.5861" style="stroke:#B38D22;stroke-width:0.9;"/><text fill="#000000" font-family="sans-serif" font-size="12.6" lengthAdjust="spacing" textLength="85.5" x="1499.4" y="810.3533">Render() : void</text></g><!--class GameTemplate--><g id="elem_GameTemplate"><rect codeLine="95" fill="#F1F1F1" height="110.2359" id="GameTemplate" rx="2.25" ry="2.25" style="stroke:#181818;stroke-width:0.45;" width="198" x="2085.75" y="539.55"/><ellipse cx="2137.275" cy="553.95" fill="#ADD1B2" rx="9.9" ry="9.9" style="stroke:#181818;stroke-width:0.9;"/><path d="M2139.7641,550.2375 Q2139.9047,550.0406 2140.0734,549.9422 Q2140.2422,549.8438 2140.4391,549.8438 Q2140.7766,549.8438 2140.9875,550.0828 Q2141.1984,550.3078 2141.1984,550.8563 L2141.1984,552.1641 Q2141.1984,552.7125 2140.9875,552.9516 Q2140.7766,553.1906 2140.4391,553.1906 Q2140.1297,553.1906 2139.9469,553.0078 Q2139.7641,552.8391 2139.6656,552.375 Q2139.6234,552.0516 2139.4547,551.8828 Q2139.1594,551.5453 2138.6109,551.3484 Q2138.0625,551.1516 2137.5,551.1516 Q2136.8109,551.1516 2136.2344,551.4469 Q2135.6719,551.7422 2135.2219,552.4172 Q2134.7859,553.0922 2134.7859,554.0203 L2134.7859,555.0047 Q2134.7859,556.1156 2135.5875,556.8609 Q2136.3891,557.5922 2137.8234,557.5922 Q2138.6672,557.5922 2139.2578,557.3672 Q2139.6094,557.2266 2139.9891,556.8328 Q2140.2281,556.5938 2140.3547,556.5234 Q2140.4953,556.4531 2140.6781,556.4531 Q2140.9734,556.4531 2141.1984,556.6922 Q2141.4375,556.9172 2141.4375,557.2266 Q2141.4375,557.5359 2141.1281,557.9016 Q2140.6781,558.4219 2139.9609,558.7172 Q2138.9906,559.125 2137.8234,559.125 Q2136.4594,559.125 2135.3766,558.5625 Q2134.4906,558.1125 2133.8719,557.1563 Q2133.2531,556.1859 2133.2531,555.0328 L2133.2531,553.9922 Q2133.2531,552.7969 2133.8016,551.7703 Q2134.3641,550.7297 2135.3484,550.1813 Q2136.3328,549.6188 2137.4438,549.6188 Q2138.1047,549.6188 2138.6813,549.7734 Q2139.2719,549.9141 2139.7641,550.2375 Z " fill="#000000"/><text fill="#000000" font-family="sans-serif" font-size="12.6" lengthAdjust="spacing" textLength="87.3" x="2155.725" y="559.1672">GameTemplate</text><line style="stroke:#181818;stroke-width:0.45;" x1="2086.65" x2="2282.85" y1="568.35" y2="568.35"/><line style="stroke:#181818;stroke-width:0.45;" x1="2086.65" x2="2282.85" y1="575.55" y2="575.55"/><polygon fill="#FFFF44" points="2095.65,584.3795,2099.25,587.9795,2095.65,591.5795,2092.05,587.9795" style="stroke:#B38D22;stroke-width:0.9;"/><text fill="#000000" font-family="sans-serif" font-size="12.6" lengthAdjust="spacing" textLength="160.2" x="2103.75" y="592.7467">Instantiate(Args ... args) : T*</text><polygon fill="#FFFF44" points="2095.65,601.1385,2099.25,604.7385,2095.65,608.3385,2092.05,604.7385" style="stroke:#B38D22;stroke-width:0.9;"/><text fill="#000000" font-family="sans-serif" font-size="12.6" lengthAdjust="spacing" textLength="70.2" x="2103.75" y="609.5057">Start() : void</text><polygon fill="#FFFF44" points="2095.65,617.8975,2099.25,621.4975,2095.65,625.0975,2092.05,621.4975" style="stroke:#B38D22;stroke-width:0.9;"/><text fill="#000000" font-family="sans-serif" font-size="12.6" lengthAdjust="spacing" textLength="69.3" x="2103.75" y="626.2646">Stop() : void</text><polygon fill="#FFFF44" points="2095.65,634.6564,2099.25,638.2564,2095.65,641.8564,2092.05,638.2564" style="stroke:#B38D22;stroke-width:0.9;"/><text fill="#000000" font-family="sans-serif" font-size="12.6" lengthAdjust="spacing" textLength="174.6" x="2103.75" y="643.0236">Update(float _deltaTime) : void</text></g><!--class Sprite--><g id="elem_Sprite"><rect codeLine="104" fill="#F1F1F1" height="311.3438" id="Sprite" rx="2.25" ry="2.25" style="stroke:#181818;stroke-width:0.45;" width="415.8" x="1440.45" y="1069.2"/><ellipse cx="1627.875" cy="1083.6" fill="#ADD1B2" rx="9.9" ry="9.9" style="stroke:#181818;stroke-width:0.9;"/><path d="M1630.3641,1079.8875 Q1630.5047,1079.6906 1630.6734,1079.5922 Q1630.8422,1079.4938 1631.0391,1079.4938 Q1631.3766,1079.4938 1631.5875,1079.7328 Q1631.7984,1079.9578 1631.7984,1080.5063 L1631.7984,1081.8141 Q1631.7984,1082.3625 1631.5875,1082.6016 Q1631.3766,1082.8406 1631.0391,1082.8406 Q1630.7297,1082.8406 1630.5469,1082.6578 Q1630.3641,1082.4891 1630.2656,1082.025 Q1630.2234,1081.7016 1630.0547,1081.5328 Q1629.7594,1081.1953 1629.2109,1080.9984 Q1628.6625,1080.8016 1628.1,1080.8016 Q1627.4109,1080.8016 1626.8344,1081.0969 Q1626.2719,1081.3922 1625.8219,1082.0672 Q1625.3859,1082.7422 1625.3859,1083.6703 L1625.3859,1084.6547 Q1625.3859,1085.7656 1626.1875,1086.5109 Q1626.9891,1087.2422 1628.4234,1087.2422 Q1629.2672,1087.2422 1629.8578,1087.0172 Q1630.2094,1086.8766 1630.5891,1086.4828 Q1630.8281,1086.2438 1630.9547,1086.1734 Q1631.0953,1086.1031 1631.2781,1086.1031 Q1631.5734,1086.1031 1631.7984,1086.3422 Q1632.0375,1086.5672 1632.0375,1086.8766 Q1632.0375,1087.1859 1631.7281,1087.5516 Q1631.2781,1088.0719 1630.5609,1088.3672 Q1629.5906,1088.775 1628.4234,1088.775 Q1627.0594,1088.775 1625.9766,1088.2125 Q1625.0906,1087.7625 1624.4719,1086.8063 Q1623.8531,1085.8359 1623.8531,1084.6828 L1623.8531,1083.6422 Q1623.8531,1082.4469 1624.4016,1081.4203 Q1624.9641,1080.3797 1625.9484,1079.8313 Q1626.9328,1079.2688 1628.0438,1079.2688 Q1628.7047,1079.2688 1629.2813,1079.4234 Q1629.8719,1079.5641 1630.3641,1079.8875 Z " fill="#000000"/><text fill="#000000" font-family="sans-serif" font-size="12.6" lengthAdjust="spacing" textLength="33.3" x="1646.325" y="1088.8172">Sprite</text><line style="stroke:#181818;stroke-width:0.45;" x1="1441.35" x2="1855.35" y1="1098" y2="1098"/><polygon fill="none" points="1450.35,1106.8295,1453.95,1110.4295,1450.35,1114.0295,1446.75,1110.4295" style="stroke:#B38D22;stroke-width:0.9;"/><text fill="#000000" font-family="sans-serif" font-size="12.6" lengthAdjust="spacing" textLength="167.4" x="1458.45" y="1115.1967">spriteSettings : SpriteSettings</text><polygon fill="none" points="1450.35,1123.5885,1453.95,1127.1885,1450.35,1130.7885,1446.75,1127.1885" style="stroke:#B38D22;stroke-width:0.9;"/><text fill="#000000" font-family="sans-serif" font-size="12.6" lengthAdjust="spacing" textLength="85.5" x="1458.45" y="1131.9557">offset : b2Vec2</text><polygon fill="none" points="1450.35,1140.3475,1453.95,1143.9475,1450.35,1147.5475,1446.75,1143.9475" style="stroke:#B38D22;stroke-width:0.9;"/><text fill="#000000" font-family="sans-serif" font-size="12.6" lengthAdjust="spacing" textLength="115.2" x="1458.45" y="1148.7146">texture : fe::Texture*</text><line style="stroke:#181818;stroke-width:0.45;" x1="1441.35" x2="1855.35" y1="1155.477" y2="1155.477"/><ellipse cx="1450.35" cy="1168.8064" fill="#84BE84" rx="2.7" ry="2.7" style="stroke:#038048;stroke-width:0.9;"/><text fill="#000000" font-family="sans-serif" font-size="12.6" lengthAdjust="spacing" textLength="392.4" x="1458.45" y="1172.6736">Sprite(fe::Texture* _texture, bool _makeShape, const b2Vec2&amp; _size)</text><ellipse cx="1450.35" cy="1185.5654" fill="#84BE84" rx="2.7" ry="2.7" style="stroke:#038048;stroke-width:0.9;"/><text fill="#000000" font-family="sans-serif" font-size="12.6" lengthAdjust="spacing" textLength="282.6" x="1458.45" y="1189.4326">Sprite(fe::Texture* _texture, const b2Vec2&amp; _size)</text><ellipse cx="1450.35" cy="1202.3244" fill="#84BE84" rx="2.7" ry="2.7" style="stroke:#038048;stroke-width:0.9;"/><text fill="#000000" font-family="sans-serif" font-size="12.6" lengthAdjust="spacing" textLength="252" x="1458.45" y="1206.1916">GetSpriteSettings() : SpriteSettings&amp; {query}</text><ellipse cx="1450.35" cy="1219.0834" fill="#84BE84" rx="2.7" ry="2.7" style="stroke:#038048;stroke-width:0.9;"/><text fill="#000000" font-family="sans-serif" font-size="12.6" lengthAdjust="spacing" textLength="185.4" x="1458.45" y="1222.9506">FlipHorizontal(bool _value) : void</text><ellipse cx="1450.35" cy="1235.8424" fill="#84BE84" rx="2.7" ry="2.7" style="stroke:#038048;stroke-width:0.9;"/><text fill="#000000" font-family="sans-serif" font-size="12.6" lengthAdjust="spacing" textLength="171.9" x="1458.45" y="1239.7096">FlipVertical(bool _value) : void</text><ellipse cx="1450.35" cy="1252.6014" fill="#84BE84" rx="2.7" ry="2.7" style="stroke:#038048;stroke-width:0.9;"/><text fill="#000000" font-family="sans-serif" font-size="12.6" lengthAdjust="spacing" textLength="243.9" x="1458.45" y="1256.4686">SetColour(const fe::Colour&amp; _colour) : void</text><ellipse cx="1450.35" cy="1269.3604" fill="#84BE84" rx="2.7" ry="2.7" style="stroke:#038048;stroke-width:0.9;"/><text fill="#000000" font-family="sans-serif" font-size="12.6" lengthAdjust="spacing" textLength="224.1" x="1458.45" y="1273.2275">SetOffset(const b2Vec2&amp; _offset) : void</text><ellipse cx="1450.35" cy="1286.1193" fill="#84BE84" rx="2.7" ry="2.7" style="stroke:#038048;stroke-width:0.9;"/><text fill="#000000" font-family="sans-serif" font-size="12.6" lengthAdjust="spacing" textLength="351" x="1458.45" y="1289.9865">SetSpriteSettings(const SpriteSettings&amp; _spriteSettings) : void</text><ellipse cx="1450.35" cy="1302.8783" fill="#84BE84" rx="2.7" ry="2.7" style="stroke:#038048;stroke-width:0.9;"/><text fill="#000000" font-family="sans-serif" font-size="12.6" lengthAdjust="spacing" textLength="139.5" x="1458.45" y="1306.7455">Show(bool _value) : void</text><polygon fill="#FFFF44" points="1450.35,1315.1373,1453.95,1318.7373,1450.35,1322.3373,1446.75,1318.7373" style="stroke:#B38D22;stroke-width:0.9;"/><text fill="#000000" font-family="sans-serif" font-size="12.6" lengthAdjust="spacing" textLength="70.2" x="1458.45" y="1323.5045">Start() : void</text><polygon fill="#FFFF44" points="1450.35,1331.8963,1453.95,1335.4963,1450.35,1339.0963,1446.75,1335.4963" style="stroke:#B38D22;stroke-width:0.9;"/><text fill="#000000" font-family="sans-serif" font-size="12.6" lengthAdjust="spacing" textLength="174.6" x="1458.45" y="1340.2635">Update(float _deltaTime) : void</text><polygon fill="#FFFF44" points="1450.35,1348.6553,1453.95,1352.2553,1450.35,1355.8553,1446.75,1352.2553" style="stroke:#B38D22;stroke-width:0.9;"/><text fill="#000000" font-family="sans-serif" font-size="12.6" lengthAdjust="spacing" textLength="85.5" x="1458.45" y="1357.0225">Render() : void</text><polygon fill="#FFFF44" points="1450.35,1365.4143,1453.95,1369.0143,1450.35,1372.6143,1446.75,1369.0143" style="stroke:#B38D22;stroke-width:0.9;"/><text fill="#000000" font-family="sans-serif" font-size="12.6" lengthAdjust="spacing" textLength="147.6" x="1458.45" y="1373.7814">GetDefaultSize() : b2Vec2</text></g><!--class Texture--><g id="elem_Texture"><rect codeLine="123" fill="#F1F1F1" height="126.9949" id="Texture" rx="2.25" ry="2.25" style="stroke:#181818;stroke-width:0.45;" width="441.9" x="346.5" y="1443.15"/><ellipse cx="542.025" cy="1457.55" fill="#ADD1B2" rx="9.9" ry="9.9" style="stroke:#181818;stroke-width:0.9;"/><path d="M544.5141,1453.8375 Q544.6547,1453.6406 544.8234,1453.5422 Q544.9922,1453.4438 545.1891,1453.4438 Q545.5266,1453.4438 545.7375,1453.6828 Q545.9484,1453.9078 545.9484,1454.4563 L545.9484,1455.7641 Q545.9484,1456.3125 545.7375,1456.5516 Q545.5266,1456.7906 545.1891,1456.7906 Q544.8797,1456.7906 544.6969,1456.6078 Q544.5141,1456.4391 544.4156,1455.975 Q544.3734,1455.6516 544.2047,1455.4828 Q543.9094,1455.1453 543.3609,1454.9484 Q542.8125,1454.7516 542.25,1454.7516 Q541.5609,1454.7516 540.9844,1455.0469 Q540.4219,1455.3422 539.9719,1456.0172 Q539.5359,1456.6922 539.5359,1457.6203 L539.5359,1458.6047 Q539.5359,1459.7156 540.3375,1460.4609 Q541.1391,1461.1922 542.5734,1461.1922 Q543.4172,1461.1922 544.0078,1460.9672 Q544.3594,1460.8266 544.7391,1460.4328 Q544.9781,1460.1938 545.1047,1460.1234 Q545.2453,1460.0531 545.4281,1460.0531 Q545.7234,1460.0531 545.9484,1460.2922 Q546.1875,1460.5172 546.1875,1460.8266 Q546.1875,1461.1359 545.8781,1461.5016 Q545.4281,1462.0219 544.7109,1462.3172 Q543.7406,1462.725 542.5734,1462.725 Q541.2094,1462.725 540.1266,1462.1625 Q539.2406,1461.7125 538.6219,1460.7563 Q538.0031,1459.7859 538.0031,1458.6328 L538.0031,1457.5922 Q538.0031,1456.3969 538.5516,1455.3703 Q539.1141,1454.3297 540.0984,1453.7813 Q541.0828,1453.2188 542.1938,1453.2188 Q542.8547,1453.2188 543.4313,1453.3734 Q544.0219,1453.5141 544.5141,1453.8375 Z " fill="#000000"/><text fill="#000000" font-family="sans-serif" font-size="12.6" lengthAdjust="spacing" textLength="43.2" x="560.475" y="1462.7672">Texture</text><line style="stroke:#181818;stroke-width:0.45;" x1="347.4" x2="787.5" y1="1471.95" y2="1471.95"/><line style="stroke:#181818;stroke-width:0.45;" x1="347.4" x2="787.5" y1="1479.15" y2="1479.15"/><ellipse cx="356.4" cy="1492.4795" fill="#84BE84" rx="2.7" ry="2.7" style="stroke:#038048;stroke-width:0.9;"/><text fill="#000000" font-family="sans-serif" font-size="12.6" lengthAdjust="spacing" textLength="183.6" x="364.5" y="1496.3467">Texture(uint32_t _imageFormat)</text><ellipse cx="356.4" cy="1509.2385" fill="#84BE84" rx="2.7" ry="2.7" style="stroke:#038048;stroke-width:0.9;"/><text fill="#000000" font-family="sans-serif" font-size="12.6" lengthAdjust="spacing" textLength="418.5" x="364.5" y="1513.1057">Generate(int _imageWidth, int _imageHeight, unsigned char* _data) : void</text><ellipse cx="356.4" cy="1525.9975" fill="#84BE84" rx="2.7" ry="2.7" style="stroke:#038048;stroke-width:0.9;"/><text fill="#000000" font-family="sans-serif" font-size="12.6" lengthAdjust="spacing" textLength="113.4" x="364.5" y="1529.8646">Bind() : void {query}</text><ellipse cx="356.4" cy="1542.7564" fill="#84BE84" rx="2.7" ry="2.7" style="stroke:#038048;stroke-width:0.9;"/><text fill="#000000" font-family="sans-serif" font-size="12.6" lengthAdjust="spacing" textLength="151.2" x="364.5" y="1546.6236">GetID() : uint32_t&amp; {query}</text><ellipse cx="356.4" cy="1559.5154" fill="#84BE84" rx="2.7" ry="2.7" style="stroke:#038048;stroke-width:0.9;"/><text fill="#000000" font-family="sans-serif" font-size="12.6" lengthAdjust="spacing" textLength="152.1" x="364.5" y="1563.3826">GetSize() : b2Vec2 {query}</text></g><!--class AnimationSettings--><g id="elem_AnimationSettings"><rect codeLine="131" fill="#F1F1F1" height="177.2719" id="AnimationSettings" rx="2.25" ry="2.25" style="stroke:#181818;stroke-width:0.45;" width="365.4" x="1003.05" y="1632.6"/><ellipse cx="1131.075" cy="1647" fill="#ADD1B2" rx="9.9" ry="9.9" style="stroke:#181818;stroke-width:0.9;"/><path d="M1133.5641,1643.2875 Q1133.7047,1643.0906 1133.8734,1642.9922 Q1134.0422,1642.8938 1134.2391,1642.8938 Q1134.5766,1642.8938 1134.7875,1643.1328 Q1134.9984,1643.3578 1134.9984,1643.9063 L1134.9984,1645.2141 Q1134.9984,1645.7625 1134.7875,1646.0016 Q1134.5766,1646.2406 1134.2391,1646.2406 Q1133.9297,1646.2406 1133.7469,1646.0578 Q1133.5641,1645.8891 1133.4656,1645.425 Q1133.4234,1645.1016 1133.2547,1644.9328 Q1132.9594,1644.5953 1132.4109,1644.3984 Q1131.8625,1644.2016 1131.3,1644.2016 Q1130.6109,1644.2016 1130.0344,1644.4969 Q1129.4719,1644.7922 1129.0219,1645.4672 Q1128.5859,1646.1422 1128.5859,1647.0703 L1128.5859,1648.0547 Q1128.5859,1649.1656 1129.3875,1649.9109 Q1130.1891,1650.6422 1131.6234,1650.6422 Q1132.4672,1650.6422 1133.0578,1650.4172 Q1133.4094,1650.2766 1133.7891,1649.8828 Q1134.0281,1649.6438 1134.1547,1649.5734 Q1134.2953,1649.5031 1134.4781,1649.5031 Q1134.7734,1649.5031 1134.9984,1649.7422 Q1135.2375,1649.9672 1135.2375,1650.2766 Q1135.2375,1650.5859 1134.9281,1650.9516 Q1134.4781,1651.4719 1133.7609,1651.7672 Q1132.7906,1652.175 1131.6234,1652.175 Q1130.2594,1652.175 1129.1766,1651.6125 Q1128.2906,1651.1625 1127.6719,1650.2063 Q1127.0531,1649.2359 1127.0531,1648.0828 L1127.0531,1647.0422 Q1127.0531,1645.8469 1127.6016,1644.8203 Q1128.1641,1643.7797 1129.1484,1643.2313 Q1130.1328,1642.6688 1131.2438,1642.6688 Q1131.9047,1642.6688 1132.4813,1642.8234 Q1133.0719,1642.9641 1133.5641,1643.2875 Z " fill="#000000"/><text fill="#000000" font-family="sans-serif" font-size="12.6" lengthAdjust="spacing" textLength="101.7" x="1149.525" y="1652.2172">AnimationSettings</text><line style="stroke:#181818;stroke-width:0.45;" x1="1003.95" x2="1367.55" y1="1661.4" y2="1661.4"/><ellipse cx="1012.95" cy="1674.7295" fill="none" rx="2.7" ry="2.7" style="stroke:#038048;stroke-width:0.9;"/><text fill="#000000" font-family="sans-serif" font-size="12.6" lengthAdjust="spacing" textLength="52.2" x="1021.05" y="1678.5967">fps : float</text><ellipse cx="1012.95" cy="1691.4885" fill="none" rx="2.7" ry="2.7" style="stroke:#038048;stroke-width:0.9;"/><text fill="#000000" font-family="sans-serif" font-size="12.6" lengthAdjust="spacing" textLength="71.1" x="1021.05" y="1695.3557">columns : int</text><ellipse cx="1012.95" cy="1708.2475" fill="none" rx="2.7" ry="2.7" style="stroke:#038048;stroke-width:0.9;"/><text fill="#000000" font-family="sans-serif" font-size="12.6" lengthAdjust="spacing" textLength="124.2" x="1021.05" y="1712.1146">cycleFrameCount : int</text><ellipse cx="1012.95" cy="1725.0064" fill="none" rx="2.7" ry="2.7" style="stroke:#038048;stroke-width:0.9;"/><text fill="#000000" font-family="sans-serif" font-size="12.6" lengthAdjust="spacing" textLength="117" x="1021.05" y="1728.8736">cycleStartFrame : int</text><ellipse cx="1012.95" cy="1741.7654" fill="none" rx="2.7" ry="2.7" style="stroke:#038048;stroke-width:0.9;"/><text fill="#000000" font-family="sans-serif" font-size="12.6" lengthAdjust="spacing" textLength="50.4" x="1021.05" y="1745.6326">rows : int</text><ellipse cx="1012.95" cy="1758.5244" fill="none" rx="2.7" ry="2.7" style="stroke:#038048;stroke-width:0.9;"/><text fill="#000000" font-family="sans-serif" font-size="12.6" lengthAdjust="spacing" textLength="119.7" x="1021.05" y="1762.3916">totalFrameCount : int</text><line style="stroke:#181818;stroke-width:0.45;" x1="1003.95" x2="1367.55" y1="1769.1539" y2="1769.1539"/><ellipse cx="1012.95" cy="1782.4834" fill="#84BE84" rx="2.7" ry="2.7" style="stroke:#038048;stroke-width:0.9;"/><text fill="#000000" font-family="sans-serif" font-size="12.6" lengthAdjust="spacing" textLength="314.1" x="1021.05" y="1786.3506">AnimationSettings(int _cols, int _rows, int _numFrames)</text><ellipse cx="1012.95" cy="1799.2424" fill="#84BE84" rx="2.7" ry="2.7" style="stroke:#038048;stroke-width:0.9;"/><text fill="#000000" font-family="sans-serif" font-size="12.6" lengthAdjust="spacing" textLength="342" x="1021.05" y="1803.1096">SetCycle(int _cycleStartFrame, int _cycleFrameCount) : void</text></g><!--class Renderer--><g id="elem_Renderer"><rect codeLine="142" fill="#F1F1F1" height="93.477" id="Renderer" rx="2.25" ry="2.25" style="stroke:#181818;stroke-width:0.45;" width="761.4" x="1745.55" y="1459.8"/><ellipse cx="2095.425" cy="1474.2" fill="#ADD1B2" rx="9.9" ry="9.9" style="stroke:#181818;stroke-width:0.9;"/><path d="M2097.9141,1470.4875 Q2098.0547,1470.2906 2098.2234,1470.1922 Q2098.3922,1470.0938 2098.5891,1470.0938 Q2098.9266,1470.0938 2099.1375,1470.3328 Q2099.3484,1470.5578 2099.3484,1471.1063 L2099.3484,1472.4141 Q2099.3484,1472.9625 2099.1375,1473.2016 Q2098.9266,1473.4406 2098.5891,1473.4406 Q2098.2797,1473.4406 2098.0969,1473.2578 Q2097.9141,1473.0891 2097.8156,1472.625 Q2097.7734,1472.3016 2097.6047,1472.1328 Q2097.3094,1471.7953 2096.7609,1471.5984 Q2096.2125,1471.4016 2095.65,1471.4016 Q2094.9609,1471.4016 2094.3844,1471.6969 Q2093.8219,1471.9922 2093.3719,1472.6672 Q2092.9359,1473.3422 2092.9359,1474.2703 L2092.9359,1475.2547 Q2092.9359,1476.3656 2093.7375,1477.1109 Q2094.5391,1477.8422 2095.9734,1477.8422 Q2096.8172,1477.8422 2097.4078,1477.6172 Q2097.7594,1477.4766 2098.1391,1477.0828 Q2098.3781,1476.8438 2098.5047,1476.7734 Q2098.6453,1476.7031 2098.8281,1476.7031 Q2099.1234,1476.7031 2099.3484,1476.9422 Q2099.5875,1477.1672 2099.5875,1477.4766 Q2099.5875,1477.7859 2099.2781,1478.1516 Q2098.8281,1478.6719 2098.1109,1478.9672 Q2097.1406,1479.375 2095.9734,1479.375 Q2094.6094,1479.375 2093.5266,1478.8125 Q2092.6406,1478.3625 2092.0219,1477.4063 Q2091.4031,1476.4359 2091.4031,1475.2828 L2091.4031,1474.2422 Q2091.4031,1473.0469 2091.9516,1472.0203 Q2092.5141,1470.9797 2093.4984,1470.4313 Q2094.4828,1469.8688 2095.5938,1469.8688 Q2096.2547,1469.8688 2096.8313,1470.0234 Q2097.4219,1470.1641 2097.9141,1470.4875 Z " fill="#000000"/><text fill="#000000" font-family="sans-serif" font-size="12.6" lengthAdjust="spacing" textLength="54" x="2113.875" y="1479.4172">Renderer</text><line style="stroke:#181818;stroke-width:0.45;" x1="1746.45" x2="2506.05" y1="1488.6" y2="1488.6"/><line style="stroke:#181818;stroke-width:0.45;" x1="1746.45" x2="2506.05" y1="1495.8" y2="1495.8"/><ellipse cx="1755.45" cy="1509.1295" fill="#84BE84" rx="2.7" ry="2.7" style="stroke:#038048;stroke-width:0.9;"/><text fill="#000000" font-family="sans-serif" font-size="12.6" lengthAdjust="spacing" text-decoration="underline" textLength="738" x="1763.55" y="1512.9967">DrawAnimationSprite(Texture* _texture, const AnimationSettings&amp; _animationSettings, const SpriteSettings&amp; _spriteSettings) : void</text><ellipse cx="1755.45" cy="1525.8885" fill="#84BE84" rx="2.7" ry="2.7" style="stroke:#038048;stroke-width:0.9;"/><text fill="#000000" font-family="sans-serif" font-size="12.6" lengthAdjust="spacing" text-decoration="underline" textLength="411.3" x="1763.55" y="1529.7557">DrawPolygon(b2Vec2* _vertices, int _vertexCount, Colour _colour) : void</text><ellipse cx="1755.45" cy="1542.6475" fill="#84BE84" rx="2.7" ry="2.7" style="stroke:#038048;stroke-width:0.9;"/><text fill="#000000" font-family="sans-serif" font-size="12.6" lengthAdjust="spacing" text-decoration="underline" textLength="419.4" x="1763.55" y="1546.5146">DrawSprite(Texture* _texture, const SpriteSettings&amp; _spriteSettings) : void</text></g><!--class Settings--><g id="elem_Settings"><rect codeLine="148" fill="#F1F1F1" height="194.0309" id="Settings" rx="2.25" ry="2.25" style="stroke:#181818;stroke-width:0.45;" width="162.9" x="2315.7" y="497.25"/><ellipse cx="2370.375" cy="511.65" fill="#ADD1B2" rx="9.9" ry="9.9" style="stroke:#181818;stroke-width:0.9;"/><path d="M2372.8641,507.9375 Q2373.0047,507.7406 2373.1734,507.6422 Q2373.3422,507.5438 2373.5391,507.5438 Q2373.8766,507.5438 2374.0875,507.7828 Q2374.2984,508.0078 2374.2984,508.5563 L2374.2984,509.8641 Q2374.2984,510.4125 2374.0875,510.6516 Q2373.8766,510.8906 2373.5391,510.8906 Q2373.2297,510.8906 2373.0469,510.7078 Q2372.8641,510.5391 2372.7656,510.075 Q2372.7234,509.7516 2372.5547,509.5828 Q2372.2594,509.2453 2371.7109,509.0484 Q2371.1625,508.8516 2370.6,508.8516 Q2369.9109,508.8516 2369.3344,509.1469 Q2368.7719,509.4422 2368.3219,510.1172 Q2367.8859,510.7922 2367.8859,511.7203 L2367.8859,512.7047 Q2367.8859,513.8156 2368.6875,514.5609 Q2369.4891,515.2922 2370.9234,515.2922 Q2371.7672,515.2922 2372.3578,515.0672 Q2372.7094,514.9266 2373.0891,514.5328 Q2373.3281,514.2938 2373.4547,514.2234 Q2373.5953,514.1531 2373.7781,514.1531 Q2374.0734,514.1531 2374.2984,514.3922 Q2374.5375,514.6172 2374.5375,514.9266 Q2374.5375,515.2359 2374.2281,515.6016 Q2373.7781,516.1219 2373.0609,516.4172 Q2372.0906,516.825 2370.9234,516.825 Q2369.5594,516.825 2368.4766,516.2625 Q2367.5906,515.8125 2366.9719,514.8563 Q2366.3531,513.8859 2366.3531,512.7328 L2366.3531,511.6922 Q2366.3531,510.4969 2366.9016,509.4703 Q2367.4641,508.4297 2368.4484,507.8813 Q2369.4328,507.3188 2370.5438,507.3188 Q2371.2047,507.3188 2371.7813,507.4734 Q2372.3719,507.6141 2372.8641,507.9375 Z " fill="#000000"/><text fill="#000000" font-family="sans-serif" font-size="12.6" lengthAdjust="spacing" textLength="45.9" x="2388.825" y="516.8672">Settings</text><line style="stroke:#181818;stroke-width:0.45;" x1="2316.6" x2="2477.7" y1="526.05" y2="526.05"/><ellipse cx="2325.6" cy="539.3795" fill="none" rx="2.7" ry="2.7" style="stroke:#038048;stroke-width:0.9;"/><text fill="#000000" font-family="sans-serif" font-size="12.6" lengthAdjust="spacing" textLength="91.8" x="2333.7" y="543.2467">gravity : b2Vec2</text><ellipse cx="2325.6" cy="556.1385" fill="none" rx="2.7" ry="2.7" style="stroke:#038048;stroke-width:0.9;"/><text fill="#000000" font-family="sans-serif" font-size="12.6" lengthAdjust="spacing" textLength="91.8" x="2333.7" y="560.0057">gravity : b2Vec2</text><ellipse cx="2325.6" cy="572.8975" fill="none" rx="2.7" ry="2.7" style="stroke:#038048;stroke-width:0.9;"/><text fill="#000000" font-family="sans-serif" font-size="12.6" lengthAdjust="spacing" textLength="108" x="2333.7" y="576.7646">enableVsync : bool</text><ellipse cx="2325.6" cy="589.6564" fill="none" rx="2.7" ry="2.7" style="stroke:#038048;stroke-width:0.9;"/><text fill="#000000" font-family="sans-serif" font-size="12.6" lengthAdjust="spacing" textLength="139.5" x="2333.7" y="593.5236">windowTitle : const char*</text><ellipse cx="2325.6" cy="606.4154" fill="none" rx="2.7" ry="2.7" style="stroke:#038048;stroke-width:0.9;"/><text fill="#000000" font-family="sans-serif" font-size="12.6" lengthAdjust="spacing" textLength="82.8" x="2333.7" y="610.2826">farPlane : float</text><ellipse cx="2325.6" cy="623.1744" fill="none" rx="2.7" ry="2.7" style="stroke:#038048;stroke-width:0.9;"/><text fill="#000000" font-family="sans-serif" font-size="12.6" lengthAdjust="spacing" textLength="93.6" x="2333.7" y="627.0416">nearPlane : float</text><ellipse cx="2325.6" cy="639.9334" fill="none" rx="2.7" ry="2.7" style="stroke:#038048;stroke-width:0.9;"/><text fill="#000000" font-family="sans-serif" font-size="12.6" lengthAdjust="spacing" textLength="64.8" x="2333.7" y="643.8006">zoom : float</text><ellipse cx="2325.6" cy="656.6924" fill="none" rx="2.7" ry="2.7" style="stroke:#038048;stroke-width:0.9;"/><text fill="#000000" font-family="sans-serif" font-size="12.6" lengthAdjust="spacing" textLength="133.2" x="2333.7" y="660.5596">windowHeight : uint16_t</text><ellipse cx="2325.6" cy="673.4514" fill="none" rx="2.7" ry="2.7" style="stroke:#038048;stroke-width:0.9;"/><text fill="#000000" font-family="sans-serif" font-size="12.6" lengthAdjust="spacing" textLength="129.6" x="2333.7" y="677.3186">windowWidth : uint16_t</text><line style="stroke:#181818;stroke-width:0.45;" x1="2316.6" x2="2477.7" y1="684.0809" y2="684.0809"/></g><!--class Time--><g id="elem_Time"><rect codeLine="160" fill="#F1F1F1" height="59.959" id="Time" rx="2.25" ry="2.25" style="stroke:#181818;stroke-width:0.45;" width="165.6" x="2510.55" y="564.3"/><ellipse cx="2575.575" cy="578.7" fill="#ADD1B2" rx="9.9" ry="9.9" style="stroke:#181818;stroke-width:0.9;"/><path d="M2578.0641,574.9875 Q2578.2047,574.7906 2578.3734,574.6922 Q2578.5422,574.5938 2578.7391,574.5938 Q2579.0766,574.5938 2579.2875,574.8328 Q2579.4984,575.0578 2579.4984,575.6063 L2579.4984,576.9141 Q2579.4984,577.4625 2579.2875,577.7016 Q2579.0766,577.9406 2578.7391,577.9406 Q2578.4297,577.9406 2578.2469,577.7578 Q2578.0641,577.5891 2577.9656,577.125 Q2577.9234,576.8016 2577.7547,576.6328 Q2577.4594,576.2953 2576.9109,576.0984 Q2576.3625,575.9016 2575.8,575.9016 Q2575.1109,575.9016 2574.5344,576.1969 Q2573.9719,576.4922 2573.5219,577.1672 Q2573.0859,577.8422 2573.0859,578.7703 L2573.0859,579.7547 Q2573.0859,580.8656 2573.8875,581.6109 Q2574.6891,582.3422 2576.1234,582.3422 Q2576.9672,582.3422 2577.5578,582.1172 Q2577.9094,581.9766 2578.2891,581.5828 Q2578.5281,581.3438 2578.6547,581.2734 Q2578.7953,581.2031 2578.9781,581.2031 Q2579.2734,581.2031 2579.4984,581.4422 Q2579.7375,581.6672 2579.7375,581.9766 Q2579.7375,582.2859 2579.4281,582.6516 Q2578.9781,583.1719 2578.2609,583.4672 Q2577.2906,583.875 2576.1234,583.875 Q2574.7594,583.875 2573.6766,583.3125 Q2572.7906,582.8625 2572.1719,581.9063 Q2571.5531,580.9359 2571.5531,579.7828 L2571.5531,578.7422 Q2571.5531,577.5469 2572.1016,576.5203 Q2572.6641,575.4797 2573.6484,574.9313 Q2574.6328,574.3688 2575.7438,574.3688 Q2576.4047,574.3688 2576.9813,574.5234 Q2577.5719,574.6641 2578.0641,574.9875 Z " fill="#000000"/><text fill="#000000" font-family="sans-serif" font-size="12.6" lengthAdjust="spacing" textLength="27.9" x="2594.025" y="583.9172">Time</text><line style="stroke:#181818;stroke-width:0.45;" x1="2511.45" x2="2675.25" y1="593.1" y2="593.1"/><line style="stroke:#181818;stroke-width:0.45;" x1="2511.45" x2="2675.25" y1="600.3" y2="600.3"/><ellipse cx="2520.45" cy="613.6295" fill="#84BE84" rx="2.7" ry="2.7" style="stroke:#038048;stroke-width:0.9;"/><text fill="#000000" font-family="sans-serif" font-size="12.6" lengthAdjust="spacing" text-decoration="underline" textLength="142.2" x="2528.55" y="617.4967">GetTimeSeconds() : float</text></g><!--class SpriteSettings--><g id="elem_SpriteSettings"><rect codeLine="165" fill="#F1F1F1" height="143.7539" id="SpriteSettings" rx="2.25" ry="2.25" style="stroke:#181818;stroke-width:0.45;" width="130.5" x="1583.1" y="1434.6"/><ellipse cx="1606.725" cy="1449" fill="#ADD1B2" rx="9.9" ry="9.9" style="stroke:#181818;stroke-width:0.9;"/><path d="M1609.2141,1445.2875 Q1609.3547,1445.0906 1609.5234,1444.9922 Q1609.6922,1444.8938 1609.8891,1444.8938 Q1610.2266,1444.8938 1610.4375,1445.1328 Q1610.6484,1445.3578 1610.6484,1445.9063 L1610.6484,1447.2141 Q1610.6484,1447.7625 1610.4375,1448.0016 Q1610.2266,1448.2406 1609.8891,1448.2406 Q1609.5797,1448.2406 1609.3969,1448.0578 Q1609.2141,1447.8891 1609.1156,1447.425 Q1609.0734,1447.1016 1608.9047,1446.9328 Q1608.6094,1446.5953 1608.0609,1446.3984 Q1607.5125,1446.2016 1606.95,1446.2016 Q1606.2609,1446.2016 1605.6844,1446.4969 Q1605.1219,1446.7922 1604.6719,1447.4672 Q1604.2359,1448.1422 1604.2359,1449.0703 L1604.2359,1450.0547 Q1604.2359,1451.1656 1605.0375,1451.9109 Q1605.8391,1452.6422 1607.2734,1452.6422 Q1608.1172,1452.6422 1608.7078,1452.4172 Q1609.0594,1452.2766 1609.4391,1451.8828 Q1609.6781,1451.6438 1609.8047,1451.5734 Q1609.9453,1451.5031 1610.1281,1451.5031 Q1610.4234,1451.5031 1610.6484,1451.7422 Q1610.8875,1451.9672 1610.8875,1452.2766 Q1610.8875,1452.5859 1610.5781,1452.9516 Q1610.1281,1453.4719 1609.4109,1453.7672 Q1608.4406,1454.175 1607.2734,1454.175 Q1605.9094,1454.175 1604.8266,1453.6125 Q1603.9406,1453.1625 1603.3219,1452.2063 Q1602.7031,1451.2359 1602.7031,1450.0828 L1602.7031,1449.0422 Q1602.7031,1447.8469 1603.2516,1446.8203 Q1603.8141,1445.7797 1604.7984,1445.2313 Q1605.7828,1444.6688 1606.8938,1444.6688 Q1607.5547,1444.6688 1608.1313,1444.8234 Q1608.7219,1444.9641 1609.2141,1445.2875 Z " fill="#000000"/><text fill="#000000" font-family="sans-serif" font-size="12.6" lengthAdjust="spacing" textLength="79.2" x="1621.575" y="1454.2172">SpriteSettings</text><line style="stroke:#181818;stroke-width:0.45;" x1="1584" x2="1712.7" y1="1463.4" y2="1463.4"/><ellipse cx="1593" cy="1476.7295" fill="none" rx="2.7" ry="2.7" style="stroke:#038048;stroke-width:0.9;"/><text fill="#000000" font-family="sans-serif" font-size="12.6" lengthAdjust="spacing" textLength="83.7" x="1601.1" y="1480.5967">colour : Colour</text><ellipse cx="1593" cy="1493.4885" fill="none" rx="2.7" ry="2.7" style="stroke:#038048;stroke-width:0.9;"/><text fill="#000000" font-family="sans-serif" font-size="12.6" lengthAdjust="spacing" textLength="98.1" x="1601.1" y="1497.3557">position : b2Vec2</text><ellipse cx="1593" cy="1510.2475" fill="none" rx="2.7" ry="2.7" style="stroke:#038048;stroke-width:0.9;"/><text fill="#000000" font-family="sans-serif" font-size="12.6" lengthAdjust="spacing" textLength="75.6" x="1601.1" y="1514.1146">size : b2Vec2</text><ellipse cx="1593" cy="1527.0064" fill="none" rx="2.7" ry="2.7" style="stroke:#038048;stroke-width:0.9;"/><text fill="#000000" font-family="sans-serif" font-size="12.6" lengthAdjust="spacing" textLength="107.1" x="1601.1" y="1530.8736">flipHorizontal : bool</text><ellipse cx="1593" cy="1543.7654" fill="none" rx="2.7" ry="2.7" style="stroke:#038048;stroke-width:0.9;"/><text fill="#000000" font-family="sans-serif" font-size="12.6" lengthAdjust="spacing" textLength="93.6" x="1601.1" y="1547.6326">flipVertical : bool</text><ellipse cx="1593" cy="1560.5244" fill="none" rx="2.7" ry="2.7" style="stroke:#038048;stroke-width:0.9;"/><text fill="#000000" font-family="sans-serif" font-size="12.6" lengthAdjust="spacing" textLength="66.6" x="1601.1" y="1564.3916">angle : float</text><line style="stroke:#181818;stroke-width:0.45;" x1="1584" x2="1712.7" y1="1571.1539" y2="1571.1539"/></g><!--reverse link AssetManager to Texture--><g id="link_AssetManager_Texture"><path codeLine="177" d="M394.4408,1267.6262 C427.8398,1313.5802 481.779,1387.809 521.901,1443.024 " fill="none" id="AssetManager-backto-Texture" style="stroke:#181818;stroke-width:0.9;"/><polygon fill="#181818" points="391.266,1263.258,393.116,1271.9268,393.9116,1266.8981,398.9402,1267.6938,391.266,1263.258" style="stroke:#181818;stroke-width:0.9;"/></g><!--reverse link AssetManager to FileUtils--><g id="link_AssetManager_FileUtils"><path codeLine="178" d="M333.6591,1267.626 C294.7881,1321.104 226.989,1414.413 188.037,1468.017 " fill="none" id="AssetManager-backto-FileUtils" style="stroke:#181818;stroke-width:0.9;"/><polygon fill="#181818" points="336.834,1263.258,329.1596,1267.6934,334.1882,1266.898,334.9836,1271.9267,336.834,1263.258" style="stroke:#181818;stroke-width:0.9;"/></g><!--reverse link Engine to GameObject--><g id="link_Engine_GameObject"><path codeLine="181" d="M1923.0977,326.6024 C1910.8217,344.0894 1904.346,353.313 1891.62,371.439 " fill="none" id="Engine-backto-GameObject" style="stroke:#181818;stroke-width:0.9;"/><polygon fill="#181818" points="1929.303,317.763,1923.2539,320.1142,1923.0977,326.6024,1929.1468,324.2511,1929.303,317.763" style="stroke:#181818;stroke-width:0.9;"/></g><!--reverse link Engine to GameTemplate--><g id="link_Engine_GameTemplate"><path codeLine="182" d="M2094.2895,327.9865 C2120.6505,405.3955 2147.409,483.921 2166.291,539.361 " fill="none" id="Engine-backto-GameTemplate" style="stroke:#181818;stroke-width:0.9;"/><polygon fill="#181818" points="2090.808,317.763,2089.1409,324.0352,2094.2895,327.9865,2095.9566,321.7142,2090.808,317.763" style="stroke:#181818;stroke-width:0.9;"/></g><!--reverse link Engine to Settings--><g id="link_Engine_Settings"><path codeLine="183" d="M2215.1244,285.0798 C2248.4874,313.0248 2272.941,337.788 2299.05,371.7 C2327.76,408.987 2350.098,455.994 2366.163,497.133 " fill="none" id="Engine-backto-Settings" style="stroke:#181818;stroke-width:0.9;"/><polygon fill="#181818" points="2206.845,278.145,2208.6731,284.3722,2215.1244,285.0798,2213.2963,278.8526,2206.845,278.145" style="stroke:#181818;stroke-width:0.9;"/></g><!--reverse link Engine to Input--><g id="link_Engine_Input"><path codeLine="184" d="M1863.5573,175.6666 C1696.2293,194.8996 1444.77,243.891 1262.25,371.7 C1213.875,405.576 1175.508,459.549 1148.967,505.782 " fill="none" id="Engine-backto-Input" style="stroke:#181818;stroke-width:0.9;"/><polygon fill="#181818" points="1868.922,175.05,1860.4639,172.3985,1864.4514,175.5639,1861.2861,179.5514,1868.922,175.05" style="stroke:#181818;stroke-width:0.9;"/></g><!--reverse link Engine to Box2DDebug--><g id="link_Engine_Box2DDebug"><path codeLine="185" d="M1863.903,189.709 C1739.136,216.457 1577.484,268.479 1465.65,371.7 C1411.164,421.992 1383.642,507.195 1371.69,556.083 " fill="none" id="Engine-backto-Box2DDebug" style="stroke:#181818;stroke-width:0.9;"/><polygon fill="#181818" points="1869.183,188.577,1860.5083,186.7549,1864.783,189.5203,1862.0176,193.7949,1869.183,188.577" style="stroke:#181818;stroke-width:0.9;"/></g><!--reverse link Engine to Renderer--><g id="link_Engine_Renderer"><path codeLine="186" d="M2044.2486,323.3834 C2049.7206,456.0164 2058.417,646.551 2069.55,817.2 C2085.336,1059.255 2111.571,1348.578 2121.885,1459.404 " fill="none" id="Engine-backto-Renderer" style="stroke:#181818;stroke-width:0.9;"/><polygon fill="#181818" points="2044.026,317.988,2040.763,326.2295,2044.2115,322.4842,2047.9568,325.9327,2044.026,317.988" style="stroke:#181818;stroke-width:0.9;"/></g><!--reverse link Engine to Time--><g id="link_Engine_Time"><path codeLine="187" d="M2212.1695,209.5423 C2306.6785,241.9243 2415.798,292.401 2494.35,371.7 C2549.115,426.987 2576.367,517.815 2587.311,564.237 " fill="none" id="Engine-backto-Time" style="stroke:#181818;stroke-width:0.9;"/><polygon fill="#181818" points="2207.061,207.792,2213.5568,213.8231,2211.318,209.2506,2215.8906,207.0119,2207.061,207.792" style="stroke:#181818;stroke-width:0.9;"/></g><!--reverse link GameObject to Component--><g id="link_GameObject_Component"><path codeLine="189" d="M1724.7684,828.0884 C1725.1014,847.1774 1725.444,854.622 1726.164,870.984 " fill="none" id="GameObject-backto-Component" style="stroke:#181818;stroke-width:0.9;"/><polygon fill="#181818" points="1724.58,817.29,1721.0747,822.752,1724.7684,828.0884,1728.2736,822.6264,1724.58,817.29" style="stroke:#181818;stroke-width:0.9;"/></g><!--reverse link Component to GameObject--><g id="link_Component_GameObject"><path codeLine="192" d="M1746.1984,860.1958 C1746.9634,843.8338 1747.017,836.379 1747.368,817.29 " fill="none" id="Component-backto-GameObject" style="stroke:#181818;stroke-width:0.9;"/><polygon fill="none" points="1745.694,870.984,1749.5423,865.758,1746.1984,860.1958,1742.3501,865.4218,1745.694,870.984" style="stroke:#181818;stroke-width:0.9;"/></g><!--reverse link Component to Sprite--><g id="link_Component_Sprite"><path codeLine="191" d="M1708.5729,1030.9183 C1703.3979,1047.5233 1702.503,1050.372 1696.68,1069.038 " fill="none" id="Component-backto-Sprite" style="stroke:#181818;stroke-width:0.9;"/><polygon fill="none" points="1713.393,1015.452,1703.4174,1029.3116,1713.7283,1032.525,1713.393,1015.452" style="stroke:#181818;stroke-width:0.9;"/></g><!--reverse link Sprite to AnimatedSprite--><g id="link_Sprite_AnimatedSprite"><path codeLine="194" d="M1426.5347,1360.0138 C1379.6087,1388.3998 1345.257,1409.193 1303.578,1434.411 " fill="none" id="Sprite-backto-AnimatedSprite" style="stroke:#181818;stroke-width:0.9;"/><polygon fill="none" points="1440.396,1351.629,1423.7398,1355.3934,1429.3297,1364.6342,1440.396,1351.629" style="stroke:#181818;stroke-width:0.9;"/></g><!--reverse link Sprite to SpriteSettings--><g id="link_Sprite_SpriteSettings"><path codeLine="195" d="M1648.35,1391.697 C1648.35,1410.363 1648.35,1417.869 1648.35,1434.456 " fill="none" id="Sprite-backto-SpriteSettings" style="stroke:#181818;stroke-width:0.9;"/><polygon fill="#181818" points="1648.35,1380.897,1644.75,1386.297,1648.35,1391.697,1651.95,1386.297,1648.35,1380.897" style="stroke:#181818;stroke-width:0.9;"/></g><!--reverse link Sprite to Texture--><g id="link_Sprite_Texture"><path codeLine="196" d="M1429.8062,1276.7199 C1258.4822,1317.3279 1020.033,1375.515 804.15,1434.6 C794.115,1437.345 783.855,1440.207 773.505,1443.15 " fill="none" id="Sprite-backto-Texture" style="stroke:#181818;stroke-width:0.9;"/><polygon fill="none" points="1440.315,1274.229,1434.2303,1271.9715,1429.8062,1276.7199,1435.8909,1278.9774,1440.315,1274.229" style="stroke:#181818;stroke-width:0.9;"/></g><!--reverse link Sprite to Renderer--><g id="link_Sprite_Renderer"><path codeLine="197" d="M1861.2335,1350.4794 C1929.0215,1390.1874 1995.507,1429.128 2047.689,1459.683 " fill="none" id="Sprite-backto-Renderer" style="stroke:#181818;stroke-width:0.9;"/><polygon fill="#181818" points="1856.574,1347.75,1861.7436,1354.9503,1860.4569,1350.0245,1865.3828,1348.7377,1856.574,1347.75" style="stroke:#181818;stroke-width:0.9;"/></g><!--reverse link AnimatedSprite to AnimationSettings--><g id="link_AnimatedSprite_AnimationSettings"><path codeLine="199" d="M1185.75,1589.472 C1185.75,1606.752 1185.75,1614.636 1185.75,1632.582 " fill="none" id="AnimatedSprite-backto-AnimationSettings" style="stroke:#181818;stroke-width:0.9;"/><polygon fill="#181818" points="1185.75,1578.672,1182.15,1584.072,1185.75,1589.472,1189.35,1584.072,1185.75,1578.672" style="stroke:#181818;stroke-width:0.9;"/></g><!--SRC=[jHZRJkCuz3rV4Ga95PP1sgwq3sXUW09JxGL42oFjI-GsRfkTrCxQ3gNCiD- -nzVOJaABTcOaficv-TnzJkObuZmTaweMwTSaXNy_VUK2YMB-cjvWyHlU3k0lpRxWxL5wbiueBJkfHdH3zgDygFQWEoTRAxIVw0zQSpnG_r_KGb2IPZFrkuD5YNq_6oZ-VgOxohK5mqSy7oQlIJ9N7h-WpyFH2C_gPSljOtv5qAp4UP_f6ZsGc3HxGcMD9U4JBV96_ZafraZWV5AnGc1xHWWTBF3PsHG_YvhXupGJ-kaadLF2XP5GK3B1GXHaoG_J3CKmIwpD0mfUl804hTeQVS6J5QhmqGyxlViWSFwK2bHUCxJ6bxGcGhco893Z_zIORLyr7SYvtCx1bHAJWNkPK2mdYZHRE7RdNybs0E97U87gKap0MZ-y2dsFIOxPe2Ccd4DM88AMcBMY_Zj5kV76GBk0Y_piZ0i6beBn5H8hAT9wB69_8EMU0bH2WKvMgqkwhYZ1nDM_0moCE_-D8GStu9ZRsTzuBa1WywALEfX8Hmv2dprKEP8n1ot1ipak1PeMQnmIzNhkYYmBWhiQr6ND62XcCqBnkfHfatykI4utNM4BoIWhyx4fmA5vYyMDII4AL5fPpeo6GZj2-cUArrK93e0uBBtNNZvQzSaSGsGHWOF1c-TioKzFJrC4loetugmOOGW_tGwy4AKPLGyzuYyP1iaNDDyEPaFv0vaEF3FzfFqXmUEMpbXS8tPN8kAY7BQc5laDGq-5aEV8881Zz7i_mv_uVGTumQwXe7_-DGEUJP6BrKdQ05QuMAx4BYdJGfIshkOhn6J7ag1-lhyeNU-Zw9GkboL-v5ioDoqTg_xUheBheiGFeYXvgn2kdWik-Ewo3xdkiUuOKkwRl1wqqSRh0LgT0vaaSO8SSDcN8NKKOc9UJ9js4aokJRSLXbnppwtRfQAya1U0RKoU17l7v7dJhMHzf5q58Xj7qzCyn3rUqoVSuDmJn7jkdqDtHYpyTY5LZyeNr5As3wn1TxJSBYbHDgcdeyP1upucwpvvpvh7naNxI0IxLMdxTNmOteb0OeyP70L1EtG4ToOCNWzj2Rcd0daqyDeYEIUG-0glooJ6ZqSAAKlrbs7MlhkT6drP4eHWukba6G00zCo0M_HQGLF3IBwqIAOC4RwWRDsdn4dwV_dtKFO7NBd-hMKBFBvxkcghKvNsXRPJEsz22MVOjwV7Q23id4-FzX7KpoShHB66GqS02elgW0V85hKceei5p8VHC6dqaJNYwQaLkIwBwXDbnGibCEnsxWEExX4pwFblKSbXc9QqPYOJvNaQS2XxdtneCTmgbUFKrOQqY2EdQQRORLdegaZ8Ycvw3VX-DR1Zo7SbOg9X4zCEtwvVPR2kBF4r53SIBdS8Pb8ZjM0e_6Sza3I0JseWWH65y699S6xd3R04XVwuWD74gRshVNRq-T0mXu-MI6_X2lT83w7jWIpXnX96D_QHr6krLN7ZWqN5RSlN062hruJh3Ss0v5hMh6yjrCJjQZvA7kg_Yt09z57XwXV9D8f7IhHxf4wSZcLknD2cyP7kCzzdqNvNlGJwcFd0ZDkWnfDg2TY6IRxYPsNfIQeBlxlk0wcxZDjNN-VJEDNCLX0jQzrGFJYhKJeOqJRD20zmRuWt2MdMYZ0h2Uu4ly1O7qAqT5srfjxaPk4ZLOtxkAQ7G3VgM6ibU891qvmt0vAw4_qhCVQLZXQGw_1fe1qa8b_92oq2BOBx9F3Wmhj20eIQQW85aoJupl7nmmVRADi8jz40bzdnZm7SZFKnr4uaFjpTeWOc1QiFcZwW-TxcGsq1-p3f-YJnjXjvXXllawJvNlBncpnTHSA3qj20n4mlYZZy0cPHnqwCCyLWgESyAyTNEua-ynsxCxpMaIJ_0G00]--></g></svg>